SplineFontDB: 3.2
FontName: OpenTTDSmall
FullName: OpenTTD Small
FamilyName: OpenTTD Small
Weight: Regular
Copyright: Richard Wheeler (Zephyris)
UComments: "2023-12-11: Created with FontForge (http://fontforge.org)"
Version: 001.000
ItalicAngle: 0
UnderlinePosition: -80
UnderlineWidth: 40
Ascent: 600
Descent: 200
InvalidEm: 0
LayerCount: 2
Layer: 0 0 "Back" 1
Layer: 1 0 "Fore" 0
XUID: [1021 686 -1269612197 6434]
StyleMap: 0x0000
FSType: 0
OS2Version: 4
OS2_WeightWidthSlopeOnly: 0
OS2_UseTypoMetrics: 1
CreationTime: 1702291130
ModificationTime: 1709073161
PfmFamily: 33
TTFWeight: 500
TTFWidth: 5
LineGap: 0
VLineGap: 0
OS2TypoAscent: 0
OS2TypoAOffset: 1
OS2TypoDescent: 0
OS2TypoDOffset: 1
OS2TypoLinegap: 0
OS2WinAscent: 600
OS2WinAOffset: 0
OS2WinDescent: 100
OS2WinDOffset: 0
HheadAscent: -66
HheadAOffset: 1
HheadDescent: 0
HheadDOffset: 1
OS2CapHeight: 500
OS2XHeight: 400
OS2Vendor: 'PfEd'
Lookup: 1 0 0 "SmallCaps" { "SmallCaps" ("smallcaps") } ['c2sc' ('DFLT' <'dflt' > 'armn' <'dflt' > 'cyrl' <'dflt' > 'grek' <'dflt' > 'latn' <'dflt' > ) ]
Lookup: 5 0 0 "CapitalsDiacriticAbove" { "CapitalsDiacriticAbove"  } [' RQD' ('DFLT' <'dflt' > 'armn' <'dflt' > 'cyrl' <'dflt' > 'grek' <'dflt' > 'latn' <'dflt' > ) ]
Lookup: 260 0 0 "Diacritics" { "Diacritics"  } ['mark' ('DFLT' <'dflt' > 'armn' <'dflt' > 'cyrl' <'dflt' > 'grek' <'dflt' > 'latn' <'dflt' > ) ]
MarkAttachClasses: 1
DEI: 91125
ContextSub2: class "CapitalsDiacriticAbove" 3 3 3 1
  Class: 299 A B C D E F G H I J K L M N O P Q R S T U V W X Y Z uni0410 uni0411 uni0412 uni0413 uni0414 uni0415 uni0416 uni0417 uni0418 uni041A uni041B uni041C uni041D uni041E uni041F uni0420 uni0421 uni0422 uni0423 uni0424 uni0425 uni0426 uni0427 uni0428 uni0429 uni042A uni042B uni042C uni042D uni042E uni042F
  Class: 101 gravecomb acutecomb uni0302 tildecomb uni0304 uni0305 uni0306 uni0307 uni0308 uni030A uni030B uni030C
  BClass: 0 

StartChar: a
Encoding: 97 97 0
Width: 400
VWidth: 960
Flags: HW
HStem: 0 100<120.671 200> 300 100<120.671 200>
VStem: -0 100<120.671 279.329> 200 100<100 300>
AnchorPoint: "top" 100 400 basechar 0
AnchorPoint: "bottom" 200 0 basechar 0
LayerCount: 2
Fore
SplineSet
200 400 m 2
 300 400 l 1
 300 0 l 1
 200 0 l 2
 75 0 -0 75 -0 200 c 0
 0 325 75 400 200 400 c 2
200 300 m 1
 175 300 l 2
 125 300 100 281.762695312 100 225 c 2
 100 175 l 2
 100 125 125 100 175 100 c 2
 200 100 l 1
 200 300 l 1
EndSplineSet
EndChar

StartChar: y
Encoding: 121 121 1
Width: 400
Flags: HW
HStem: -100 100<25 184.87> 100 100<117.85 200> 380 20G<0 100 200 300>
VStem: 0 100<218.568 400> 200 100<17.8497 100 200 400>
AnchorPoint: "bottom" 100 0 basechar 0
AnchorPoint: "top" 100 400 basechar 0
LayerCount: 2
Fore
SplineSet
200 200 m 1
 200 400 l 1
 300 400 l 1
 300 100 l 2
 300 0 225 -100 150 -100 c 2
 25 -100 l 1
 25 0 l 1
 150 0 l 2
 175 0 200 25 200 50 c 2
 200 100 l 1
 100 100 0 175 0 250 c 2
 0 400 l 1
 100 400 l 1
 100 250 l 2
 100 225 125 200 175 200 c 2
 200 200 l 1
EndSplineSet
EndChar

StartChar: d
Encoding: 100 100 2
Width: 400
VWidth: 960
Flags: HW
HStem: 0 100<120.671 200> 300 100<120.671 200> 480 20G<200 300>
VStem: 0 100<120.671 279.329> 200 100<100 300 400 500>
AnchorPoint: "bottom" 100 0 basechar 0
AnchorPoint: "top" 100 400 basechar 0
LayerCount: 2
Fore
SplineSet
300 0 m 1
 200 0 l 2
 75 0 0 75 0 200 c 0
 0 325 75 400 200 400 c 1
 200 500 l 1
 300 500 l 1
 300 0 l 1
200 300 m 1
 175 300 l 2
 125 300 100 281.762695312 100 225 c 2
 100 175 l 2
 100 125 125 100 175 100 c 2
 200 100 l 1
 200 300 l 1
EndSplineSet
EndChar

StartChar: b
Encoding: 98 98 3
Width: 400
VWidth: 960
Flags: HW
HStem: 0 100<100 179.329> 300 100<100 179.329> 480 20G<0 100>
VStem: 0 100<100 300 400 500> 200 100<120.671 279.329>
AnchorPoint: "bottom" 100 0 basechar 0
AnchorPoint: "top" 100 400 basechar 0
LayerCount: 2
Fore
SplineSet
0 0 m 1
 0 500 l 1
 100 500 l 1
 100 400 l 1
 225 400 300 325 300 200 c 0
 300 75 225 0 100 0 c 2
 0 0 l 1
100 300 m 1
 100 100 l 1
 125 100 l 2
 175 100 200 125 200 175 c 2
 200 225 l 2
 200 281.762695312 175 300 125 300 c 2
 100 300 l 1
EndSplineSet
EndChar

StartChar: c
Encoding: 99 99 4
Width: 400
VWidth: 960
Flags: HW
HStem: 0 100<114.517 198.655> 300 100<114.517 198.655>
VStem: 0 100<116.016 284.443>
AnchorPoint: "bottom" 100 0 basechar 0
AnchorPoint: "top" 100 400 basechar 0
LayerCount: 2
Fore
SplineSet
150 400 m 0
 225 400 300 350 300 275 c 1
 200 275 l 1
 200 300 175 300 150 300 c 0
 125 300 100 275 100 250 c 2
 100 150 l 2
 100 125 125 100 150 100 c 0
 175 100 200 100 200 125 c 1
 300 125 l 1
 300 50 225 0 150 0 c 0
 75 0 0 100 0 175 c 2
 0 225 l 2
 0 301.086914062 75 400 150 400 c 0
EndSplineSet
EndChar

StartChar: e
Encoding: 101 101 5
Width: 400
VWidth: 960
Flags: HW
HStem: 0 100<114.982 204.747> 175 75<100 200> 325 75<114.517 185.493>
VStem: 0 100<116.105 175 250 291.433> 200 100<250 300.166>
AnchorPoint: "bottom" 100 0 basechar 0
AnchorPoint: "top" 100 400 basechar 0
LayerCount: 2
Fore
SplineSet
300 225 m 2
 300 175 l 1
 100 175 l 1
 100 150 l 2
 100 125 125 100 150 100 c 2
 200 100 l 1
 300 100 l 1
 300 50 249.99609375 -0.8427734375 150 0 c 0
 74.556640625 0.6357421875 0 100 0 175 c 2
 0 225 l 2
 0 300 75 400 150 400 c 0
 225 400 300.318359375 320.036132812 300 225 c 2
150 325 m 0
 125 325 100 300 100 275 c 2
 100 250 l 1
 200 250 l 1
 200 275 l 2
 200 300 175 325 150 325 c 0
EndSplineSet
EndChar

StartChar: f
Encoding: 102 102 6
Width: 300
VWidth: 960
Flags: HW
HStem: 0 21G<0 100> 0 21G<0 100> 200 100<100 200> 400 100<115.13 200>
VStem: 0 100<0 200 300 382.15>
AnchorPoint: "bottom" 100 0 basechar 0
AnchorPoint: "top" 100 400 basechar 0
LayerCount: 2
Fore
SplineSet
0 0 m 1xb8
 0 300 l 2
 0 400 75 500 150 500 c 2
 200 500 l 1
 200 400 l 1
 150 400 l 2
 125 400 100 375 100 350 c 2
 100 300 l 1
 200 300 l 1
 200 200 l 1
 100 200 l 1
 100 0 l 1
 0 0 l 1xb8
EndSplineSet
EndChar

StartChar: g
Encoding: 103 103 7
Width: 400
VWidth: 960
Flags: HW
HStem: -100 100<25 184.87> 100 100<117.85 200> 300 100<117.85 200>
VStem: 0 100<217.54 282.46> 200 100<17.8497 100 200 300>
CounterMasks: 1 e0
AnchorPoint: "bottom" 100 0 basechar 0
AnchorPoint: "top" 100 400 basechar 0
LayerCount: 2
Fore
SplineSet
200 400 m 2
 300 400 l 1
 300 100 l 2
 300 0 225 -100 150 -100 c 2
 25 -100 l 1
 25 0 l 1
 150 0 l 2
 175 0 200 25 200 50 c 2
 200 100 l 1
 100 100 0 175 0 250 c 0
 0 325 100 400 200 400 c 2
175 300 m 2
 125 300 100 275 100 250 c 0
 100 225 125 200 175 200 c 2
 200 200 l 1
 200 300 l 1
 175 300 l 2
EndSplineSet
EndChar

StartChar: h
Encoding: 104 104 8
Width: 400
VWidth: 960
Flags: HW
HStem: 0 21G<0 100 200 300> 0 21G<0 100 200 300> 300 100<100 179.329> 480 20G<0 100>
VStem: 0 100<0 300 400 500> 200 100<0 279.329>
AnchorPoint: "bottom" 100 0 basechar 0
AnchorPoint: "top" 100 400 basechar 0
LayerCount: 2
Fore
SplineSet
100 300 m 1xbc
 100 0 l 1
 0 0 l 1
 0 500 l 1
 100 500 l 1
 100 400 l 1
 225 400 300 325 300 200 c 2
 300 0 l 1
 200 0 l 1
 200 225 l 2
 200 281.76171875 175 300 125 300 c 2
 100 300 l 1xbc
EndSplineSet
EndChar

StartChar: i
Encoding: 105 105 9
Width: 200
VWidth: 960
Flags: HW
HStem: 0 21G<0 100> 0 21G<0 100> 400 100<12.1926 87.8074>
VStem: 0 100<0 300 412.193 487.807>
AnchorPoint: "bottom" 0 0 basechar 0
AnchorPoint: "top" 0 400 basechar 0
LayerCount: 2
Fore
SplineSet
0 450 m 0x30
 0 477.614257812 22.3857421875 500 50 500 c 0
 77.6142578125 500 100 477.614257812 100 450 c 0
 100 422.385742188 77.6142578125 400 50 400 c 0
 22.3857421875 400 0 422.385742188 0 450 c 0x30
0 0 m 1xb0
 0 300 l 1
 100 300 l 1
 100 0 l 1
 0 0 l 1xb0
EndSplineSet
EndChar

StartChar: j
Encoding: 106 106 10
Width: 300
VWidth: 960
Flags: HW
HStem: -100 100<0 84.8701> 400 100<112.193 187.807>
VStem: 100 100<17.8497 300 412.193 487.807>
AnchorPoint: "bottom" 100 0 basechar 0
AnchorPoint: "top" 100 400 basechar 0
LayerCount: 2
Fore
SplineSet
100 450 m 0
 100 477.614257812 122.385742188 500 150 500 c 0
 177.614257812 500 200 477.614257812 200 450 c 0
 200 422.385742188 177.614257812 400 150 400 c 0
 122.385742188 400 100 422.385742188 100 450 c 0
100 300 m 1
 200 300 l 1
 200 100 l 2
 200 0 125 -100 50 -100 c 2
 0 -100 l 1
 0 0 l 1
 50 0 l 2
 75 0 100 25 100 50 c 2
 100 300 l 1
EndSplineSet
EndChar

StartChar: k
Encoding: 107 107 11
Width: 400
VWidth: 960
Flags: HW
HStem: 0 21G<0 100 200 300> 0 21G<0 100 200 300> 380 20G<200 300> 480 20G<0 100>
VStem: 0 100<0 150 250 500> 200 100<0.0182194 88.0303 311.97 400>
AnchorPoint: "bottom" 100 0 basechar 0
AnchorPoint: "top" 100 400 basechar 0
LayerCount: 2
Fore
SplineSet
0 0 m 1xbc
 0 500 l 1
 100 500 l 1
 100 250 l 1
 125 250 l 1
 175 300 200 325 200 350 c 0
 200 375 200 400 200 400 c 1
 300 400 l 1
 300 350 l 2
 300 308.333007812 200 200 200 200 c 1
 200 200 300 91.6669921875 300 50 c 2
 300 0 l 1
 200 0 l 1
 200 0 200.534179688 25.005859375 200 50 c 0
 199.375976562 79.189453125 175 100 125 150 c 1
 100 150 l 1
 100 0 l 1
 0 0 l 1xbc
EndSplineSet
EndChar

StartChar: l
Encoding: 108 108 12
Width: 300
VWidth: 960
Flags: HW
HStem: 0 100<115.13 200> 480 20G<0 100>
VStem: 0 100<117.85 500>
AnchorPoint: "bottom" 100 0 basechar 0
AnchorPoint: "top" 100 400 basechar 0
LayerCount: 2
Fore
SplineSet
100 500 m 1
 100 150 l 2
 100 125 125 100 150 100 c 2
 200 100 l 1
 200 0 l 1
 150 0 l 2
 75 0 0 100 0 200 c 2
 0 500 l 1
 100 500 l 1
EndSplineSet
EndChar

StartChar: n
Encoding: 110 110 13
Width: 400
VWidth: 960
Flags: HW
HStem: 0 21G<0 100 200 300> 0 21G<0 100 200 300> 300 100<100 179.329>
VStem: 0 100<0 300> 200 100<0 279.329>
AnchorPoint: "bottom" 100 0 basechar 0
AnchorPoint: "top" 100 400 basechar 0
LayerCount: 2
Fore
SplineSet
0 400 m 1xb8
 100 400 l 2
 225 400 300 325 300 200 c 2
 300 0 l 1
 200 0 l 1
 200 225 l 2
 200 281.76171875 175 300 125 300 c 2
 100 300 l 1
 100 0 l 1
 0 0 l 1
 0 400 l 1xb8
EndSplineSet
EndChar

StartChar: m
Encoding: 109 109 14
Width: 600
VWidth: 960
Flags: HW
HStem: 0 21G<0 100 200 300 400 500> 0 21G<0 100 200 300 400 500> 300 100<100 182.404 288.699 384.615>
VStem: 0 100<0 300> 200 100<0 282.404> 400 100<0 283.984>
CounterMasks: 1 1c
AnchorPoint: "bottom" 200 0 basechar 0
AnchorPoint: "top" 200 400 basechar 0
LayerCount: 2
Fore
SplineSet
0 400 m 1xbc
 100 400 l 2
 149.09375 400 190.431640625 388.384765625 222.5859375 366.76171875 c 1
 237.092773438 384.7421875 260.884765625 399.463867188 300 400 c 0
 425 400 500 324.999023438 500 200 c 2
 500 0 l 1
 400 0 l 1
 400 225 l 2
 400 281.76171875 375 300 350 300 c 0
 325 300 300 275 300 225 c 2
 300 200 l 1
 300 0 l 1
 200 0 l 1
 200 225 l 2
 200 281.76171875 175 300 125 300 c 2
 100 300 l 1
 100 0 l 1
 0 0 l 1
 0 400 l 1xbc
EndSplineSet
EndChar

StartChar: o
Encoding: 111 111 15
Width: 400
VWidth: 960
Flags: HW
HStem: 0 100<114.517 185.483> 300 100<114.517 185.483>
VStem: 0 100<116.016 283.984> 200 100<114.199 283.984>
AnchorPoint: "bottom" 100 0 basechar 0
AnchorPoint: "top" 100 400 basechar 0
LayerCount: 2
Fore
SplineSet
150 400 m 0
 225 400 300 300 300 225 c 2
 300 175 l 2
 300 104.453125 225 0 150 0 c 0
 75 0 0 100 0 175 c 2
 0 225 l 2
 0 300 75 400 150 400 c 0
150 300 m 0
 125 300 100 275 100 250 c 2
 100 150 l 2
 100 125 125 100 150 100 c 0
 175 100 200 125 200 150 c 2
 200 250 l 2
 200 275 175 300 150 300 c 0
EndSplineSet
EndChar

StartChar: p
Encoding: 112 112 16
Width: 400
VWidth: 960
Flags: HW
HStem: 0 100<100 179.329> 300 100<100 179.329>
VStem: 0 100<-100 0 100 300> 200 100<120.671 279.329>
AnchorPoint: "bottom" 100 0 basechar 0
AnchorPoint: "top" 100 400 basechar 0
LayerCount: 2
Fore
SplineSet
100 400 m 2
 225 400 300 325 300 200 c 0
 300 75 225 0 100 0 c 1
 100 -100 l 1
 0 -100 l 1
 0 0 l 1
 0 400 l 1
 100 400 l 2
125 300 m 2
 100 300 l 1
 100 100 l 1
 125 100 l 2
 175 100 200 125 200 175 c 2
 200 225 l 2
 200 281.762695312 175 300 125 300 c 2
EndSplineSet
EndChar

StartChar: q
Encoding: 113 113 17
Width: 400
VWidth: 960
Flags: HW
HStem: 0 100<120.671 200> 300 100<120.671 200>
VStem: 0 100<120.671 279.329> 200 100<-100 0 100 300>
AnchorPoint: "bottom" 100 0 basechar 0
AnchorPoint: "top" 100 400 basechar 0
LayerCount: 2
Fore
SplineSet
200 400 m 2
 300 400 l 1
 300 0 l 1
 300 -100 l 1
 200 -100 l 1
 200 0 l 1
 75 0 0 75 0 200 c 0
 0 325 75 400 200 400 c 2
175 300 m 2
 125 300 100 281.762695312 100 225 c 2
 100 175 l 2
 100 125 125 100 175 100 c 2
 200 100 l 1
 200 300 l 1
 175 300 l 2
EndSplineSet
EndChar

StartChar: r
Encoding: 114 114 18
Width: 400
VWidth: 960
Flags: HW
HStem: 0 21G<-100 0> 0 21G<-100 0> 300 100<15.13 200>
VStem: -100 100<0 283.984>
AnchorPoint: "bottom" 0 0 basechar 0
AnchorPoint: "top" 100 400 basechar 0
LayerCount: 2
Fore
SplineSet
150 400 m 2xb0
 300 400 l 1
 300 300 l 1
 150 300 l 2
 125 300 100 275 100 250 c 2
 100 200 l 1
 100 0 l 5
 0 0 l 1
 0 200 l 1
 0 225 l 2
 0 300 75 400 150 400 c 2xb0
EndSplineSet
EndChar

StartChar: t
Encoding: 116 116 19
Width: 300
VWidth: 960
Flags: HW
HStem: 0 100<115.13 200> 300 100<100 200> 480 20G<0 100>
VStem: 0 100<115.13 300 400 500>
AnchorPoint: "bottom" 100 0 basechar 0
AnchorPoint: "top" 100 400 basechar 0
LayerCount: 2
Fore
SplineSet
0 500 m 1
 100 500 l 1
 100 400 l 1
 200 400 l 1
 200 300 l 1
 100 300 l 1
 100 150 l 2
 100 125 125 100 150 100 c 2
 200 100 l 1
 200 0 l 1
 150 0 l 2
 75 0 0 75 0 150 c 2
 0 500 l 1
EndSplineSet
EndChar

StartChar: s
Encoding: 115 115 20
Width: 400
VWidth: 960
Flags: HW
HStem: 0 75<85.9888 184.866> 175 75<101.123 186.095> 325 75<115.13 219.104>
VStem: 0 100<253.31 309.663> 200 100<90.2949 160.725>
AnchorPoint: "bottom" 100 0 basechar 0
AnchorPoint: "top" 100 400 basechar 0
LayerCount: 2
Fore
SplineSet
200 325 m 1
 150 325 l 2
 125 325 100 300 100 275 c 0
 100 250 125 250 150 250 c 2
 225 250 l 2
 275 250 300 175 300 125 c 0
 300 50 224.987304688 -1.3759765625 150 0 c 0
 53.8251953125 1.7646484375 0 25 0 75 c 1
 100 75 l 1
 150 75 l 2
 175 75 200 100 200 125 c 0
 200 150 175 175 150 175 c 2
 75 175 l 2
 25 175 0 225 0 275 c 0
 0 350 75 400 150 400 c 0
 250 400 300 375 300 325 c 1
 200 325 l 1
EndSplineSet
EndChar

StartChar: u
Encoding: 117 117 21
Width: 400
VWidth: 960
Flags: HW
HStem: 0 100<114.517 185.483> 380 20G<0 100 200 300>
VStem: 0 100<115.13 400> 200 100<115.13 400>
AnchorPoint: "bottom" 100 0 basechar 0
AnchorPoint: "top" 100 400 basechar 0
LayerCount: 2
Fore
SplineSet
0 400 m 1
 100 400 l 1
 100 150 l 2
 100 125 125 100 150 100 c 0
 175 100 200 125 200 150 c 2
 200 400 l 1
 300 400 l 1
 300 150 l 2
 300 75 225 0 150 0 c 0
 75 0 0 75 0 150 c 2
 0 400 l 1
EndSplineSet
EndChar

StartChar: v
Encoding: 118 118 22
Width: 400
VWidth: 960
Flags: HW
HStem: 0 21G<125 175> 0 21G<125 175> 380 20G<0 100 200 300>
VStem: 0 100<250.793 400> 200 100<250.793 400>
AnchorPoint: "bottom" 100 0 basechar 0
AnchorPoint: "top" 100 400 basechar 0
LayerCount: 2
Fore
SplineSet
0 350 m 2xb8
 0 400 l 1
 100 400 l 1
 100 350 l 2
 100 300 100 225 150 175 c 1
 200 225 200 300 200 350 c 2
 200 400 l 1
 300 400 l 1
 300 350 l 2
 300 224.955078125 175 0 175 0 c 1
 125 0 l 1
 125 0 0 225 0 350 c 2xb8
EndSplineSet
EndChar

StartChar: w
Encoding: 119 119 23
Width: 600
VWidth: 960
Flags: HW
HStem: 0 21G<125 175 325 375> 0 21G<125 175 325 375> 380 20G<0 100 400 500>
VStem: 0 100<213.146 400> 200 100<210.72 300> 400 100<213.146 400>
CounterMasks: 1 1c
AnchorPoint: "bottom" 200 0 basechar 0
AnchorPoint: "top" 200 400 basechar 0
LayerCount: 2
Fore
SplineSet
200 300 m 1xbc
 300 300 l 1
 300 250 325 175 350 150 c 1
 380.038085938 178.07421875 400 254.944335938 400 300 c 2
 400 400 l 1
 500 400 l 1
 500 300 l 2
 500 175 375 0 375 0 c 1
 325 0 l 1
 325 0 284.807617188 47.404296875 250 132.86328125 c 1
 215.192382812 47.404296875 175 0 175 0 c 1
 125 0 l 1
 125 0 0 175 0 300 c 2
 0 400 l 1
 100 400 l 1
 100 300 l 2
 100 250 125 175 150 150 c 1
 180.038085938 178.07421875 200 254.944335938 200 300 c 1xbc
EndSplineSet
EndChar

StartChar: x
Encoding: 120 120 24
Width: 400
Flags: HW
HStem: 0 21G<0 100 200 300> 0 21G<0 100 200 300> 380 20G<0 100 200 300>
VStem: 0 100<0 92.9977 306.408 400> 200 100<0.0182673 93.5093 306.408 400>
AnchorPoint: "bottom" 100 0 basechar 0
AnchorPoint: "top" 100 400 basechar 0
LayerCount: 2
Fore
SplineSet
300 50 m 2xb8
 300 0 l 1
 200 0 l 1
 200 0 201.903320312 25.072265625 200 50 c 0
 197.793945312 78.8857421875 200 100 150 150 c 1
 100.379882812 106.327148438 100 75 100 50 c 0
 100 25 100 0 100 0 c 1
 0 0 l 1
 0 50 l 2
 0 91.6669921875 100 200 100 200 c 1
 100 200 0 308.333007812 0 350 c 2
 0 400 l 1
 100 400 l 1
 100 400 100 375 100 350 c 0
 100 325 100 300 150 250 c 1
 200 300 200 325 200 350 c 0
 200 375 200 400 200 400 c 1
 300 400 l 1
 300 350 l 2
 300 308.333007812 200 200 200 200 c 1
 200 200 300 91.6669921875 300 50 c 2xb8
EndSplineSet
EndChar

StartChar: z
Encoding: 122 122 25
Width: 400
VWidth: 960
Flags: HW
HStem: 0 100<75 300> 300 100<0 150>
AnchorPoint: "bottom" 100 0 basechar 0
AnchorPoint: "top" 100 400 basechar 0
LayerCount: 2
Fore
SplineSet
300 400 m 1
 300 325 l 1
 75 100 l 1
 300 100 l 1
 300 0 l 1
 0 0 l 1
 0 150 l 1
 150 300 l 1
 0 300 l 1
 0 400 l 1
 300 400 l 1
EndSplineSet
EndChar

StartChar: grave
Encoding: 96 96 30
Width: 300
VWidth: 960
Flags: W
HStem: 425 175
VStem: 0 200
LayerCount: 2
Fore
SplineSet
0 600 m 1
 75 600 l 1
 200 475 l 1
 200 425.150390625 l 1
 200 425 l 1
 125 425 l 1
 0 550 l 1
 0 600 l 1
EndSplineSet
Validated: 1
EndChar

StartChar: asciicircum
Encoding: 94 94 34
Width: 400
VWidth: 960
Flags: W
HStem: 400 200
LayerCount: 2
Fore
SplineSet
125 600 m 1
 175 600 l 1
 300 475 l 1
 300 400 l 1
 275 400 l 1
 150 525 l 1
 25 400 l 1
 0 400 l 1
 0 475 l 1
 125 600 l 1
EndSplineSet
Validated: 1
EndChar

StartChar: dotlessi
Encoding: 305 305 40
Width: 200
VWidth: 960
Flags: W
HStem: 0 21G<0 100> 0 21G<0 100>
VStem: 0 100<0 300>
LayerCount: 2
Fore
SplineSet
0 0 m 1xa0
 0 300 l 1
 100 300 l 1
 100 0 l 1
 0 0 l 1xa0
EndSplineSet
Validated: 1
EndChar

StartChar: A
Encoding: 65 65 44
Width: 400
VWidth: 960
Flags: HW
HStem: 0 21G<0 100 200 300> 0 21G<0 100 200 300> 100 100<100 200> 480 20G<62.5 237.564>
VStem: 0 100<0 100 200 347.713> 200 100<0 100 200 346.906>
AnchorPoint: "bottom" 200 0 basechar 0
LayerCount: 2
Fore
SplineSet
100 200 m 1x3c
 200 200 l 1
 200 275 200 350 150 400 c 1
 100 350 100 275 100 200 c 1x3c
0 0 m 1xbc
 0 200 l 2
 0 350 25 400 100 500 c 1
 200 500 l 1
 275.12890625 397.38671875 300 350 300 200 c 2
 300 0 l 1
 200 0 l 1
 200 100 l 1
 100 100 l 1
 100 0 l 1
 0 0 l 1xbc
EndSplineSet
Substitution2: "SmallCaps" A.smallcaps
EndChar

StartChar: B
Encoding: 66 66 45
Width: 400
VWidth: 960
Flags: HW
HStem: 0 100<100 184.87> 200 100<100 160.477> 400 100<100 159.87>
VStem: 0 100<100 200 300 400> 175 100<314.108 385.483> 200 100<114.517 185.656>
CounterMasks: 1 e0
AnchorPoint: "bottom" 100 0 basechar 0
LayerCount: 2
Fore
SplineSet
0 500 m 1xf4
 100 500 l 1
 125 500 l 2
 200 500 275 425 275 350 c 0xf8
 275 319.28125 262.405273438 288.571289062 242.39453125 263.005859375 c 1
 276.376953125 234.171875 300 192.087890625 300 150 c 0
 300 75 225 0 150 0 c 2
 100 0 l 1
 0 0 l 1
 0 100 l 1
 0 200 l 1
 0 300 l 1
 0 400 l 1
 0 500 l 1xf4
100 400 m 1
 100 300 l 1
 125 300 l 2
 150 300 175 325 175 350 c 0
 175 375 150 400 125 400 c 2
 100 400 l 1
100 200 m 1
 100 100 l 1
 150 100 l 2
 175 100 200 125 200 150 c 0xf4
 200 175 175 200 150 200 c 2
 125 200 l 1
 100 200 l 1
EndSplineSet
Substitution2: "SmallCaps" B.smallcaps
EndChar

StartChar: P
Encoding: 80 80 46
Width: 400
VWidth: 960
Flags: HW
HStem: 0 21G<0 100> 0 21G<0 100> 200 100<100 184.87> 400 100<100 184.87>
VStem: 0 100<0 200 300 400> 200 100<314.517 385.483>
AnchorPoint: "bottom" 100 0 basechar 0
LayerCount: 2
Fore
SplineSet
0 0 m 1xbc
 0 500 l 1
 100 500 l 1
 150 500 l 2
 225 500 300 425 300 350 c 0
 300 275 225 200 150 200 c 2
 100 200 l 1
 100 0 l 1
 0 0 l 1xbc
100 400 m 1
 100 300 l 1
 150 300 l 2
 175 300 200 325 200 350 c 0
 200 375 175 400 150 400 c 2
 100 400 l 1
EndSplineSet
Substitution2: "SmallCaps" P.smallcaps
EndChar

StartChar: O
Encoding: 79 79 47
Width: 400
VWidth: 960
Flags: HW
HStem: 0 100<114.517 185.483> 400 100<114.517 185.483>
VStem: 0 100<115.13 384.87> 200 100<115.13 384.87>
AnchorPoint: "bottom" 100 0 basechar 0
LayerCount: 2
Fore
SplineSet
0 350 m 2
 0 425 75 500 150 500 c 0
 225 500 300 425 300 350 c 2
 300 150 l 2
 300 75 225 0 150 0 c 0
 75 0 0 75 0 150 c 2
 0 350 l 2
100 350 m 2
 100 150 l 2
 100 125 125 100 150 100 c 0
 175 100 200 125 200 150 c 2
 200 350 l 2
 200 375 175 400 150 400 c 0
 125 400 100 375 100 350 c 2
EndSplineSet
Substitution2: "SmallCaps" O.smallcaps
EndChar

StartChar: T
Encoding: 84 84 48
Width: 400
VWidth: 960
Flags: HW
HStem: 0 21G<100 200> 0 21G<100 200> 400 100<0 100 200 300>
VStem: 100 100<0 400>
AnchorPoint: "bottom" 100 0 basechar 0
LayerCount: 2
Fore
SplineSet
0 500 m 1xb0
 300 500 l 1
 300 400 l 1
 200 400 l 1
 200 0 l 1
 100 0 l 1
 100 400 l 1
 0 400 l 1
 0 500 l 1xb0
EndSplineSet
Substitution2: "SmallCaps" T.smallcaps
EndChar

StartChar: D
Encoding: 68 68 49
Width: 400
VWidth: 960
Flags: HW
HStem: 0 100<100 179.329> 400 100<100 179.329>
VStem: 0 100<100 400> 200 100<120.671 379.329>
AnchorPoint: "bottom" 100 0 basechar 0
LayerCount: 2
Fore
SplineSet
100 0 m 2
 0 0 l 1
 0 500 l 1
 100 500 l 2
 225 500 300 425 300 300 c 2
 300 200 l 2
 300 75 225 0 100 0 c 2
100 400 m 1
 100 100 l 1
 125 100 l 2
 175 100 200 125 200 175 c 2
 200 325 l 2
 200 381.762695312 175 400 125 400 c 2
 100 400 l 1
EndSplineSet
Substitution2: "SmallCaps" D.smallcaps
EndChar

StartChar: C
Encoding: 67 67 50
Width: 400
VWidth: 960
Flags: HW
HStem: 0 100<114.517 198.655> 400 100<114.517 198.655>
VStem: 0 100<115.13 384.87>
AnchorPoint: "bottom" 100 0 basechar 0
LayerCount: 2
Fore
SplineSet
150 500 m 0
 225 500 300 450 300 375 c 1
 200 375 l 1
 200 400 175 400 150 400 c 0
 125 400 100 375 100 350 c 2
 100 150 l 2
 100 125 125 100 150 100 c 0
 175 100 200 100 200 125 c 1
 300 125 l 1
 300 50 225 0 150 0 c 0
 75 0 0 75 0 150 c 2
 0 350 l 2
 0 425 75 500 150 500 c 0
EndSplineSet
Substitution2: "SmallCaps" C.smallcaps
EndChar

StartChar: E
Encoding: 69 69 51
Width: 400
VWidth: 960
Flags: HW
HStem: 0 100<100 300> 200 100<100 225> 400 100<100 300>
VStem: 0 100<100 200 300 400>
CounterMasks: 1 e0
AnchorPoint: "bottom" 200 0 basechar 0
LayerCount: 2
Fore
SplineSet
0 0 m 1
 0 500 l 1
 300 500 l 1
 300 400 l 1
 100 400 l 1
 100 300 l 1
 225 300 l 1
 225 200 l 1
 100 200 l 1
 100 100 l 1
 300 100 l 1
 300 0 l 1
 100 0 l 1
 0 0 l 1
EndSplineSet
Substitution2: "SmallCaps" E.smallcaps
EndChar

StartChar: F
Encoding: 70 70 52
Width: 400
VWidth: 960
Flags: HW
HStem: 0 21G<0 100> 0 21G<0 100> 200 100<100 225> 400 100<100 300>
VStem: 0 100<0 200 300 400>
AnchorPoint: "bottom" 100 0 basechar 0
LayerCount: 2
Fore
SplineSet
100 200 m 1xb8
 100 0 l 1
 0 0 l 1
 0 500 l 1
 300 500 l 1
 300 400 l 1
 100 400 l 1
 100 300 l 1
 225 300 l 1
 225 200 l 1
 100 200 l 1xb8
EndSplineSet
Substitution2: "SmallCaps" F.smallcaps
EndChar

StartChar: G
Encoding: 71 71 53
Width: 400
VWidth: 960
Flags: HW
HStem: 0 100<115.13 200> 400 100<114.517 198.655>
VStem: 0 100<115.13 384.87> 175 125<200 300> 200 100<100 200 375 395.414>
AnchorPoint: "bottom" 100 0 basechar 0
LayerCount: 2
Fore
SplineSet
175 300 m 1xf0
 300 300 l 1xf0
 300 0 l 1
 150 0 l 2
 75 0 0 75 0 150 c 2
 0 350 l 2
 0 425 75 500 150 500 c 0
 225 500 300 450 300 375 c 1
 200 375 l 1
 200 400 175 400 150 400 c 0
 125 400 100 375 100 350 c 2
 100 150 l 2
 100 125 125 100 150 100 c 2
 200 100 l 1
 200 200 l 1xe8
 175 200 l 1
 175 300 l 1xf0
EndSplineSet
Substitution2: "SmallCaps" G.smallcaps
EndChar

StartChar: H
Encoding: 72 72 54
Width: 400
VWidth: 960
Flags: HW
HStem: 0 21G<0 100 200 300> 0 21G<0 100 200 300> 200 100<100 200> 480 20G<0 100 200 300>
VStem: 0 100<0 200 300 500> 200 100<0 200 300 500>
AnchorPoint: "bottom" 100 0 basechar 0
LayerCount: 2
Fore
SplineSet
0 500 m 1xbc
 100 500 l 1
 100 300 l 1
 200 300 l 1
 200 500 l 1
 300 500 l 1
 300 0 l 1
 200 0 l 1
 200 200 l 1
 100 200 l 1
 100 0 l 1
 0 0 l 1
 0 500 l 1xbc
EndSplineSet
Substitution2: "SmallCaps" H.smallcaps
EndChar

StartChar: I
Encoding: 73 73 55
Width: 200
VWidth: 960
Flags: HW
HStem: 0 21G<0 100> 0 21G<0 100> 480 20G<0 100>
VStem: 0 100<0 500>
AnchorPoint: "bottom" 0 0 basechar 0
LayerCount: 2
Fore
SplineSet
100 0 m 1xb0
 0 0 l 1
 0 500 l 1
 100 500 l 1
 100 0 l 1xb0
EndSplineSet
Substitution2: "SmallCaps" I.smallcaps
EndChar

StartChar: J
Encoding: 74 74 56
Width: 300
VWidth: 960
Flags: HW
HStem: 0 100<0 84.8701> 480 20G<100 200>
VStem: 100 100<115.13 500>
AnchorPoint: "bottom" 100 0 basechar 0
LayerCount: 2
Fore
SplineSet
100 500 m 1
 200 500 l 1
 200 150 l 2
 200 75 125 0 50 0 c 2
 0 0 l 1
 0 100 l 1
 50 100 l 2
 75 100 100 125 100 150 c 2
 100 500 l 1
EndSplineSet
Substitution2: "SmallCaps" J.smallcaps
EndChar

StartChar: K
Encoding: 75 75 57
Width: 400
VWidth: 960
Flags: HW
HStem: 0 21G<0 100 200 300> 0 21G<0 100 200 300> 200 100<100 164.677> 480 20G<0 100 200 300>
VStem: 0 100<0 200 300 500> 200 100<0 147.679 352.321 500>
AnchorPoint: "bottom" 100 0 basechar 0
LayerCount: 2
Fore
SplineSet
0 500 m 1xbc
 100 500 l 1
 100 300 l 1
 150 300 l 1
 200 350 200 425 200 500 c 1
 300 500 l 1
 300 376.48046875 283.057617188 322.4921875 235.15234375 250 c 1
 283.057617188 177.5078125 300 123.51953125 300 0 c 1
 200 0 l 1
 200 75 200 150 150 200 c 1
 100 200 l 1
 100 0 l 1
 0 0 l 1
 0 500 l 1xbc
EndSplineSet
Substitution2: "SmallCaps" K.smallcaps
EndChar

StartChar: L
Encoding: 76 76 58
Width: 400
VWidth: 960
Flags: HW
HStem: 0 100<100 300> 480 20G<0 100>
VStem: 0 100<100 500>
AnchorPoint: "bottom" 100 0 basechar 0
LayerCount: 2
Fore
SplineSet
300 0 m 1
 0 0 l 1
 0 500 l 1
 100 500 l 1
 100 100 l 1
 300 100 l 1
 300 0 l 1
EndSplineSet
Substitution2: "SmallCaps" L.smallcaps
EndChar

StartChar: M
Encoding: 77 77 59
Width: 600
VWidth: 960
Flags: HW
HStem: 0 21G<0 100 400 500> 0 21G<0 100 400 500> 480 20G<0 95 405 500>
VStem: 0 100<0 350> 400 100<0 350>
AnchorPoint: "bottom" 200 0 basechar 0
LayerCount: 2
Fore
SplineSet
0 0 m 1xb8
 0 500 l 1
 75 500 l 1
 250 325 l 1
 425 500 l 1
 500 500 l 1
 500 0 l 1
 400 0 l 1
 400 350 l 1
 275 225 l 1
 225 225 l 1
 100 350 l 1
 100 0 l 1
 0 0 l 1xb8
EndSplineSet
Substitution2: "SmallCaps" M.smallcaps
EndChar

StartChar: N
Encoding: 78 78 60
Width: 500
VWidth: 960
Flags: HW
HStem: 0 21G<0 100 300 400> 0 21G<0 100 300 400> 480 20G<0 70 300 400>
VStem: 0 100<0 325> 300 100<0 125 250 500>
AnchorPoint: "bottom" 200 0 basechar 0
LayerCount: 2
Fore
SplineSet
300 125 m 1xb8
 100 325 l 1
 100 0 l 1
 0 0 l 1
 0 500 l 1
 50 500 l 1
 300 250 l 1
 300 500 l 1
 400 500 l 1
 400 0 l 1
 300 0 l 1
 300 125 l 1xb8
EndSplineSet
Substitution2: "SmallCaps" N.smallcaps
EndChar

StartChar: Q
Encoding: 81 81 61
Width: 400
VWidth: 960
Flags: HW
HStem: 0 100<115.13 186.095 289.332 375> 400 100<114.517 185.483>
VStem: 0 100<115.13 384.87> 200 100<113.905 384.87>
AnchorPoint: "bottom" 100 0 basechar 0
LayerCount: 2
Fore
SplineSet
150 500 m 0
 225 500 300 425 300 350 c 2
 300 150 l 2
 300 133.041015625 296.133789062 116.091796875 289.33203125 100 c 1
 375 100 l 1
 375 0 l 1
 150 0 l 2
 75 0 0 75 0 150 c 2
 0 350 l 2
 0 425 75 500 150 500 c 0
150 400 m 0
 125 400 100 375 100 350 c 2
 100 150 l 2
 100 125 125 100 150 100 c 0
 175 100 200 125 200 150 c 2
 200 350 l 2
 200 375 175 400 150 400 c 0
EndSplineSet
Substitution2: "SmallCaps" Q.smallcaps
EndChar

StartChar: R
Encoding: 82 82 62
Width: 400
VWidth: 960
Flags: HW
HStem: 0 21G<0 100 200 300> 0 21G<0 100 200 300> 200 100<100 147.376> 400 100<100 159.87>
VStem: 0 100<0 200 300 400> 175 100<314.029 385.483> 200 100<0 148.998>
AnchorPoint: "bottom" 100 0 basechar 0
LayerCount: 2
Fore
SplineSet
0 500 m 1xba
 100 500 l 1
 125 500 l 2
 200 500 275 425 275 350 c 0xbc
 275 314.9375 258.604492188 279.877929688 233.484375 252.478515625 c 1
 282.635742188 178.73828125 300 124.907226562 300 0 c 1
 200 0 l 1
 200 75 200 150 150 200 c 2
 147.728515625 202.271484375 l 1
 140.203125 200.807617188 132.603515625 200 125 200 c 2
 100 200 l 1
 100 0 l 1
 0 0 l 1
 0 500 l 1xba
100 400 m 1
 100 300 l 1
 125 300 l 2
 150 300 175 325 175 350 c 0
 175 375 150 400 125 400 c 2
 100 400 l 1
EndSplineSet
Substitution2: "SmallCaps" R.smallcaps
EndChar

StartChar: S
Encoding: 83 83 63
Width: 400
VWidth: 960
Flags: HW
HStem: 0 100<101.345 185.483> 200 100<115.13 184.87> 400 100<114.517 198.48>
VStem: 0 100<104.586 125 314.517 385.483> 200 100<114.517 185.483 375 395.414>
CounterMasks: 1 e0
AnchorPoint: "bottom" 100 0 basechar 0
LayerCount: 2
Fore
SplineSet
150 500 m 0
 225 500 300 450 300 375 c 1
 200 375 l 1
 199.806640625 396.626953125 175 400 150 400 c 0
 125 400 100 375 100 350 c 0
 100 325 125 300 150 300 c 0
 225 300 300 225 300 150 c 0
 300 75 225 0 150 0 c 0
 75 0 0 50 0 125 c 1
 100 125 l 1
 100 100 125 100 150 100 c 0
 175 100 200 125 200 150 c 0
 200 175 175 200 150 200 c 0
 75 200 0 275 0 350 c 0
 0 425 75 500 150 500 c 0
EndSplineSet
Substitution2: "SmallCaps" S.smallcaps
EndChar

StartChar: U
Encoding: 85 85 64
Width: 400
VWidth: 960
Flags: HW
HStem: 0 100<114.517 185.483> 480 20G<0 100 200 300>
VStem: 0 100<115.13 500> 200 100<115.13 500>
AnchorPoint: "bottom" 100 0 basechar 0
LayerCount: 2
Fore
SplineSet
0 500 m 1
 100 500 l 1
 100 150 l 2
 100 125 125 100 150 100 c 0
 175 100 200 125 200 150 c 2
 200 500 l 1
 300 500 l 1
 300 150 l 2
 300 75 225 0 150 0 c 0
 75 0 0 75 0 150 c 2
 0 500 l 1
EndSplineSet
Substitution2: "SmallCaps" U.smallcaps
EndChar

StartChar: V
Encoding: 86 86 65
Width: 400
VWidth: 960
Flags: HW
HStem: 0 21G<125 175> 0 21G<125 175> 480 20G<0 100 200 300>
VStem: 0 100<294.442 500> 200 100<293.632 500>
AnchorPoint: "bottom" 100 0 basechar 0
LayerCount: 2
Fore
SplineSet
0 400 m 2xb8
 0 500 l 1
 100 500 l 1
 100 400 l 2
 100 350 125 225 150 200 c 1
 180.038085938 228.07421875 200 354.944335938 200 400 c 2
 200 500 l 1
 300 500 l 1
 300 400 l 2
 300 275 175 0 175 0 c 1
 125 0 l 1
 125 0 0 275 0 400 c 2xb8
EndSplineSet
Substitution2: "SmallCaps" V.smallcaps
EndChar

StartChar: W
Encoding: 87 87 66
Width: 600
VWidth: 960
Flags: HW
HStem: 0 21G<0 95 405 500> 0 21G<0 95 405 500> 480 20G<0 100 400 500>
VStem: 0 100<150 500> 400 100<150 500>
AnchorPoint: "bottom" 200 0 basechar 0
LayerCount: 2
Fore
SplineSet
500 500 m 1xb8
 500 0 l 1
 425 0 l 1
 250 175 l 1
 75 0 l 1
 0 0 l 1
 0 500 l 1
 100 500 l 1
 100 150 l 1
 225 275 l 1
 275 275 l 1
 400 150 l 1
 400 500 l 1
 500 500 l 1xb8
EndSplineSet
Substitution2: "SmallCaps" W.smallcaps
EndChar

StartChar: X
Encoding: 88 88 67
Width: 400
VWidth: 960
Flags: HW
HStem: 0 21G<0 100 200 300> 0 21G<0 100 200 300> 480 20G<0 100 200 300>
VStem: 0 100<0 147.679 352.321 500> 200 100<0 147.679 352.321 500>
AnchorPoint: "bottom" 100 0 basechar 0
LayerCount: 2
Fore
SplineSet
0 500 m 1xb8
 100 500 l 1
 100 425 100 350 150 300 c 1
 200 350 200 425 200 500 c 1
 300 500 l 1
 300 376.48046875 283.057617188 322.4921875 235.15234375 250 c 1
 283.057617188 177.5078125 300 123.51953125 300 0 c 1
 200 0 l 1
 200 75 200 150 150 200 c 1
 100 150 100 75 100 0 c 1
 0 0 l 1
 0 123.51953125 16.9423828125 177.5078125 64.84765625 250 c 1
 16.9423828125 322.4921875 0 376.48046875 0 500 c 1xb8
EndSplineSet
Substitution2: "SmallCaps" X.smallcaps
EndChar

StartChar: Y
Encoding: 89 89 68
Width: 400
VWidth: 960
Flags: HW
HStem: 0 21G<100 200> 0 21G<100 200> 480 20G<0 100 200 300>
VStem: 0 100<353.094 500> 100 100<0 223.114> 200 100<353.094 500>
AnchorPoint: "bottom" 100 0 basechar 0
LayerCount: 2
Fore
SplineSet
0 500 m 1xb0
 100 500 l 1
 100 425 100 350 150 300 c 1
 200 350 200 425 200 500 c 1
 300 500 l 1xb4
 300 350 275.127929688 302.61328125 200 200 c 1
 200 0 l 1
 100 0 l 1
 100 200 l 1xa8
 24.8720703125 302.61328125 0 350 0 500 c 1xb0
EndSplineSet
Substitution2: "SmallCaps" Y.smallcaps
EndChar

StartChar: Z
Encoding: 90 90 69
Width: 400
VWidth: 960
InSpiro: 1
Flags: HW
HStem: 0 100<100 300> 400 100<0 200>
AnchorPoint: "bottom" 100 0 basechar 0
LayerCount: 2
Fore
SplineSet
300 500 m 1
 300 350 l 1
 100 100 l 1
 300 100 l 1
 300 0 l 1
 0 0 l 1
 0 150 l 1
 200 400 l 1
 0 400 l 1
 0 500 l 1
 300 500 l 1
  Spiro
    300 500 v
    300 350 v
    100 100 v
    300 100 v
    300 0 v
    0 0 v
    0 150 v
    200 400 v
    0 400 v
    0 500 v
    0 0 z
  EndSpiro
EndSplineSet
Substitution2: "SmallCaps" Z.smallcaps
EndChar

StartChar: exclam
Encoding: 33 33 70
Width: 200
VWidth: 960
Flags: W
HStem: 0 100<12.1926 87.8074> 200 300<13.9046 86.0954>
VStem: 0 100<12.1926 87.8074 200 486.095>
LayerCount: 2
Fore
SplineSet
100 450 m 2
 100 200 l 1
 0 200 l 1
 0 450 l 2
 0 475 25 500 50 500 c 0
 75 500 100 475 100 450 c 2
EndSplineSet
Refer: 83 46 S 1 0 0 1 0 0 2
Validated: 1
EndChar

StartChar: dollar
Encoding: 36 36 72
Width: 600
VWidth: 960
Flags: W
HStem: 0 100<126.566 200 300 359.87> 200 100<140.13 200 300 359.87> 400 100<140.13 200 300 373.434>
VStem: 25 100<104.586 125 314.517 385.483> 200 100<-75 0 100 200 300 400 500 575> 375 100<114.517 185.483 375 395.414>
CounterMasks: 1 fc
LayerCount: 2
Fore
SplineSet
200 575 m 1
 300 575 l 1
 300 500 l 1
 325 500 l 2
 400 500 475 450 475 375 c 1
 375 375 l 1
 374.806640625 396.626953125 350 400 325 400 c 2
 300 400 l 1
 300 300 l 1
 325 300 l 2
 400 300 475 225 475 150 c 0
 475 75 400 0 325 0 c 2
 300 0 l 1
 300 -75 l 1
 200 -75 l 1
 200 0 l 1
 175 0 l 2
 100 0 25 50 25 125 c 1
 125 125 l 1
 125 100 150 100 175 100 c 2
 200 100 l 1
 200 200 l 1
 175 200 l 2
 100 200 25 275 25 350 c 0
 25 425 100 500 175 500 c 2
 200 500 l 1
 200 575 l 1
175 400 m 2
 150 400 125 375 125 350 c 0
 125 325 150 300 175 300 c 2
 200 300 l 1
 200 400 l 1
 175 400 l 2
300 200 m 1
 300 100 l 1
 325 100 l 2
 350 100 375 125 375 150 c 0
 375 175 350 200 325 200 c 2
 300 200 l 1
EndSplineSet
Validated: 1
EndChar

StartChar: numbersign
Encoding: 35 35 73
Width: 600
VWidth: 960
Flags: W
HStem: 0 21G<0 107.5 250 357.5> 0 21G<0 107.5 250 357.5> 100 100<175 250 425 450> 300 100<50 75 250 325> 480 20G<142.5 250 392.5 500>
LayerCount: 2
Fore
SplineSet
150 500 m 1xb8
 250 500 l 1
 250 400 l 1
 362.5 400 l 1
 400 500 l 1
 500 500 l 1
 500 400 l 1
 500 300 l 1
 462.5 300 l 1
 425 200 l 1
 450 200 l 1
 450 100 l 1
 387.5 100 l 1
 350 0 l 1
 250 0 l 1
 250 100 l 1
 137.5 100 l 1
 100 0 l 1
 0 0 l 1
 0 100 l 1
 0 200 l 1
 37.5 200 l 1
 75 300 l 1
 50 300 l 1
 50 400 l 1
 112.5 400 l 1
 150 500 l 1xb8
212.5 300 m 1
 175 200 l 1
 287.5 200 l 1
 325 300 l 1
 212.5 300 l 1
EndSplineSet
Validated: 1
EndChar

StartChar: percent
Encoding: 37 37 74
Width: 400
VWidth: 960
Flags: W
HStem: 0 50<251.916 298.084> 100 50<251.916 298.084> 350 50<51.9162 98.0838> 450 50<51.9162 98.0838>
VStem: 0 50<401.916 448.084> 100 50<401.916 448.084> 200 50<51.9162 98.0838> 300 50<51.9162 98.0838>
LayerCount: 2
Fore
SplineSet
100 425 m 0
 100 438.797851562 88.7978515625 450 75 450 c 0
 61.2021484375 450 50 438.797851562 50 425 c 0
 50 411.202148438 61.2021484375 400 75 400 c 0
 88.7978515625 400 100 411.202148438 100 425 c 0
150 425 m 0
 150 383.606445312 116.393554688 350 75 350 c 0
 33.6064453125 350 0 383.606445312 0 425 c 0
 0 466.393554688 33.6064453125 500 75 500 c 0
 116.393554688 500 150 466.393554688 150 425 c 0
300 75 m 0
 300 88.7978515625 288.797851562 100 275 100 c 0
 261.202148438 100 250 88.7978515625 250 75 c 0
 250 61.2021484375 261.202148438 50 275 50 c 0
 288.797851562 50 300 61.2021484375 300 75 c 0
350 75 m 0
 350 33.6064453125 316.393554688 0 275 0 c 0
 233.606445312 0 200 33.6064453125 200 75 c 0
 200 116.393554688 233.606445312 150 275 150 c 0
 316.393554688 150 350 116.393554688 350 75 c 0
125 0 m 1
 50 0 l 1
 50 75 l 1
 225 500 l 1
 300 500 l 1
 300 425 l 1
 125 0 l 1
EndSplineSet
Validated: 1
EndChar

StartChar: ampersand
Encoding: 38 38 75
Width: 500
VWidth: 960
Flags: W
HStem: 0 100<114.885 185.619> 200 100<113.905 185.961> 400 100<114.252 185.748>
VStem: 0 100<114.517 185.688 314.312 385.483> 200 100<313.892 386.152>
CounterMasks: 1 e0
LayerCount: 2
Fore
SplineSet
150 500 m 0
 200 500 300 425 300 352.2265625 c 0
 300 316.782226562 264.401367188 279.818359375 227.896484375 251.15625 c 1
 247.825195312 236.100585938 267.4765625 218.607421875 281.216796875 200 c 1
 350 200 l 1
 350 125 l 1
 346.720703125 122.951171875 l 1
 400 75 l 1
 400 0 l 1
 325 0 l 1
 265.943359375 70.869140625 l 1
 233.192382812 30.43359375 183.813476562 0 150 0 c 0
 95.3544921875 0 0 75 0 150 c 0
 0 186.165039062 34.896484375 222.244140625 71.015625 250 c 1
 34.896484375 277.755859375 0 313.834960938 0 350 c 0
 0 425 100 500 150 500 c 0
150 400 m 0
 125 400 100 375 100 350 c 0
 100 325 125 300 150 300 c 0
 175 300 200 325 200 350 c 0
 200 375 175 400 150 400 c 0
150 200 m 0
 125 200 100 175 100 150 c 0
 100 125 125 100 150 100 c 0
 165.979492188 100 181.92578125 110.231445312 191.376953125 124.130859375 c 1
 200 150 l 1
 191.376953125 175.869140625 l 1
 181.92578125 189.768554688 165.979492188 200 150 200 c 0
EndSplineSet
Validated: 1
EndChar

StartChar: quotesingle
Encoding: 39 39 76
Width: 200
VWidth: 960
Flags: W
HStem: 300 200<13.9046 51.5856>
VStem: 0 100<372.205 486.095>
LayerCount: 2
Fore
SplineSet
0 300 m 1
 0 450 l 2
 0 475 25 500 50 500 c 0
 75 500 100 475 100 450 c 2
 100 400 l 2
 100 350 50 300 0 300 c 1
EndSplineSet
Validated: 1
EndChar

StartChar: parenleft
Encoding: 40 40 77
Width: 300
VWidth: 960
Flags: W
HStem: 0 21G<200 200> 0 21G<200 200> 480 20G<200 200>
VStem: 0 100<144.214 355.786>
LayerCount: 2
Fore
SplineSet
200 0 m 1xb0
 200 0 0 25 0 150 c 2
 0 350 l 2
 0 475 200 500 200 500 c 1
 200 400 l 1
 200 400 100 400 100 300 c 2
 100 200 l 2
 100 100 200 100 200 100 c 1
 200 0 l 1xb0
EndSplineSet
Validated: 1
EndChar

StartChar: parenright
Encoding: 41 41 78
Width: 300
VWidth: 960
Flags: W
HStem: 0 21G<0 0> 0 21G<0 0> 480 20G<0 0>
VStem: 100 100<144.214 355.786>
LayerCount: 2
Fore
SplineSet
0 0 m 1xb0
 0 100 l 1
 0 100 100 100 100 200 c 2
 100 300 l 2
 100 400 0 400 0 400 c 1
 0 500 l 1
 0 500 200 475 200 350 c 2
 200 150 l 2
 200 25 0 0 0 0 c 1xb0
EndSplineSet
Validated: 1
EndChar

StartChar: asterisk
Encoding: 42 42 79
Width: 400
VWidth: 960
Flags: W
LayerCount: 2
Fore
SplineSet
79.2890625 491.421875 m 1
 150 420.7109375 l 1
 220.7109375 491.421875 l 1
 291.421875 420.7109375 l 1
 220.7109375 350 l 1
 291.421875 279.2890625 l 1
 220.7109375 208.578125 l 1
 150 279.2890625 l 1
 79.2890625 208.578125 l 1
 8.578125 279.2890625 l 1
 79.2890625 350 l 1
 8.578125 420.7109375 l 1
 79.2890625 491.421875 l 1
EndSplineSet
Validated: 1
EndChar

StartChar: plus
Encoding: 43 43 80
Width: 400
VWidth: 960
Flags: W
HStem: 200 100<0 100 200 300> 380 20G<100 200>
VStem: 100 100<100 200 300 400>
LayerCount: 2
Fore
SplineSet
100 400 m 1
 200 400 l 1
 200 300 l 1
 300 300 l 1
 300 200 l 1
 200 200 l 1
 200 100 l 1
 100 100 l 1
 100 200 l 1
 0 200 l 1
 0 300 l 1
 100 300 l 1
 100 400 l 1
EndSplineSet
Validated: 1
EndChar

StartChar: hyphen
Encoding: 45 45 82
Width: 400
VWidth: 960
Flags: W
HStem: 200 100<0 300>
LayerCount: 2
Fore
SplineSet
0 200 m 1
 0 300 l 1
 300 300 l 1
 300 200 l 1
 0 200 l 1
EndSplineSet
Validated: 1
EndChar

StartChar: period
Encoding: 46 46 83
Width: 200
VWidth: 960
Flags: W
HStem: 0 100<12.1926 87.8074>
VStem: 0 100<12.1926 87.8074>
LayerCount: 2
Fore
SplineSet
0 50 m 0
 0 77.6142578125 22.3857421875 100 50 100 c 0
 77.6142578125 100 100 77.6142578125 100 50 c 0
 100 22.3857421875 77.6142578125 0 50 0 c 0
 22.3857421875 0 0 22.3857421875 0 50 c 0
EndSplineSet
Validated: 1
EndChar

StartChar: slash
Encoding: 47 47 84
Width: 400
VWidth: 960
Flags: W
HStem: 0 21G<0 84.4737> 0 21G<0 84.4737> 480 20G<215.526 300>
LayerCount: 2
Fore
SplineSet
75 0 m 1xa0
 0 0 l 1
 0 25 l 1
 225 500 l 1
 300 500 l 1
 300 475 l 1
 75 0 l 1xa0
EndSplineSet
Validated: 1
EndChar

StartChar: zero
Encoding: 48 48 85
Width: 400
VWidth: 960
Flags: W
HStem: 0 100<114.517 185.483> 400 100<114.517 185.483>
VStem: 0 100<115.13 384.87> 200 100<115.13 384.87>
LayerCount: 2
Fore
SplineSet
0 350 m 2
 0 425 75 500 150 500 c 0
 225 500 300 425 300 350 c 2
 300 150 l 2
 300 75 225 0 150 0 c 0
 75 0 0 75 0 150 c 2
 0 350 l 2
100 350 m 2
 100 150 l 2
 100 125 125 100 150 100 c 0
 175 100 200 125 200 150 c 2
 200 350 l 2
 200 375 175 400 150 400 c 0
 125 400 100 375 100 350 c 2
EndSplineSet
Validated: 1
EndChar

StartChar: one
Encoding: 49 49 86
Width: 400
VWidth: 960
Flags: W
HStem: 0 100<0 100 200 300> 480 20G<105 200>
VStem: 100 100<100 300>
LayerCount: 2
Fore
SplineSet
0 375 m 1
 125 500 l 1
 200 500 l 1
 200 100 l 1
 300 100 l 1
 300 0 l 1
 0 0 l 1
 0 100 l 1
 100 100 l 1
 100 300 l 1
 0 300 l 1
 0 375 l 1
EndSplineSet
Validated: 1
EndChar

StartChar: two
Encoding: 50 50 87
Width: 400
VWidth: 960
Flags: W
HStem: 0 100<100 300> 175 100<115.13 184.87> 400 100<101.345 185.483>
VStem: 0 100<100 159.176 375 395.414> 200 100<290.13 384.87>
LayerCount: 2
Fore
SplineSet
300 0 m 1
 0 0 l 1
 0 125 l 2
 0 208.807617188 75 275 150 275 c 0
 175 275 200 300 200 325 c 2
 200 350 l 2
 200 375 175 400 150 400 c 0
 125 400 100 400 100 375 c 1
 0 375 l 1
 0 450 75 500 150 500 c 0
 225 500 300 425 300 350 c 2
 300 325 l 2
 300 250 225 175 150 175 c 0
 125 175 100 150 100 125 c 2
 100 100 l 1
 300 100 l 1
 300 0 l 1
EndSplineSet
Validated: 1
EndChar

StartChar: three
Encoding: 51 51 88
Width: 400
VWidth: 960
Flags: W
HStem: 0 100<101.345 185.483> 200 100<100 186.095> 400 100<101.52 185.483>
VStem: 200 100<114.517 185.683 314.317 385.483>
CounterMasks: 1 e0
LayerCount: 2
Fore
SplineSet
150 500 m 0
 225 500 300 425 300 350 c 0
 300 313.861328125 282.559570312 277.748046875 256.123046875 250 c 1
 282.559570312 222.251953125 300 186.138671875 300 150 c 0
 300 75 225 0 150 0 c 0
 75 0 0 50 0 125 c 1
 100 125 l 1
 100 100 125 100 150 100 c 0
 175 100 200 125 200 150 c 0
 200 175 175 200 150 200 c 2
 100 200 l 1
 100 300 l 1
 150 300 l 2
 175 300 200 325 200 350 c 0
 200 375 175 400 150 400 c 0
 125 400 100.193359375 396.626953125 100 375 c 1
 0 375 l 1
 0 450 75 500 150 500 c 0
EndSplineSet
Validated: 1
EndChar

StartChar: four
Encoding: 52 52 89
Width: 400
VWidth: 960
Flags: W
HStem: 0 21G<200 300> 0 21G<200 300> 200 100<100 200> 480 20G<0 100 200 300>
VStem: 0 100<300 500> 200 100<0 200 300 500>
LayerCount: 2
Fore
SplineSet
0 500 m 1xbc
 100 500 l 1
 100 300 l 1
 200 300 l 1
 200 500 l 1
 300 500 l 1
 300 0 l 1
 200 0 l 1
 200 200 l 1
 0 200 l 1
 0 500 l 1xbc
EndSplineSet
Validated: 1
EndChar

StartChar: five
Encoding: 53 53 90
Width: 400
VWidth: 960
Flags: W
HStem: 0 100<101.345 185.483> 225 100<100 184.87> 400 100<100 300>
VStem: 0 100<104.586 125 325 400> 200 100<115.13 209.87>
LayerCount: 2
Fore
SplineSet
100 325 m 1
 150 325 l 2
 225 325 300 250 300 175 c 2
 300 150 l 2
 300 75 225 0 150 0 c 0
 75 0 0 50 0 125 c 1
 100 125 l 1
 100 100 125 100 150 100 c 0
 175 100 200 125 200 150 c 2
 200 175 l 2
 200 200 175 225 150 225 c 2
 0 225 l 1
 0 500 l 1
 300 500 l 1
 300 400 l 1
 100 400 l 1
 100 325 l 1
EndSplineSet
Validated: 1
EndChar

StartChar: six
Encoding: 54 54 91
Width: 400
VWidth: 960
Flags: W
HStem: 0 100<114.517 185.483> 200 100<100 184.87> 400 100<114.517 198.48>
VStem: 0 100<115.13 200 300 384.87> 200 100<114.517 185.483 375 395.414>
CounterMasks: 1 e0
LayerCount: 2
Fore
SplineSet
150 500 m 0
 225 500 300 450 300 375 c 1
 200 375 l 1
 199.806640625 396.626953125 175 400 150 400 c 0
 125 400 100 375 100 350 c 2
 100 300 l 1
 150 300 l 2
 225 300 300 225 300 150 c 0
 300 75 225 0 150 0 c 0
 75 0 0 75 0 150 c 2
 0 350 l 2
 0 425 75 500 150 500 c 0
100 200 m 1
 100 150 l 2
 100 125 125 100 150 100 c 0
 175 100 200 125 200 150 c 0
 200 175 175 200 150 200 c 2
 100 200 l 1
EndSplineSet
Validated: 1
EndChar

StartChar: seven
Encoding: 55 55 92
Width: 400
VWidth: 960
Flags: W
HStem: 0 21G<200 300> 0 21G<200 300> 400 100<0 200>
VStem: 200 100<0 400>
LayerCount: 2
Fore
SplineSet
300 500 m 1xb0
 300 0 l 1
 200 0 l 1
 200 400 l 1
 0 400 l 1
 0 500 l 1
 300 500 l 1xb0
EndSplineSet
Validated: 1
EndChar

StartChar: eight
Encoding: 56 56 93
Width: 400
VWidth: 960
Flags: W
HStem: 0 100<114.517 185.483> 200 100<114.564 186.095> 400 100<111.927 185.483>
VStem: 0 100<114.517 187.439 314.317 388.124> 200 100<114.517 185.683 314.317 385.483>
CounterMasks: 1 e0
LayerCount: 2
Fore
SplineSet
150 500 m 0
 225 500 300 425 300 350 c 0
 300 313.861328125 282.559570312 277.748046875 256.123046875 250 c 1
 282.559570312 222.251953125 300 186.138671875 300 150 c 0
 300 75 225 0 150 0 c 0
 75 0 0 75 0 150 c 0
 0 186.138671875 17.4404296875 222.251953125 43.876953125 250 c 1
 17.4404296875 277.748046875 0 313.861328125 0 350 c 0
 0 425 75 500 150 500 c 0
150 400 m 0
 117.806640625 398.650390625 100 375 100 350 c 0
 100 325 125 300 150 300 c 0
 175 300 200 325 200 350 c 0
 200 375 175 400 150 400 c 0
150 200 m 0
 117.806640625 198.650390625 100 175 100 150 c 0
 100 125 125 100 150 100 c 0
 175 100 200 125 200 150 c 0
 200 175 175 200 150 200 c 0
EndSplineSet
Validated: 1
EndChar

StartChar: nine
Encoding: 57 57 94
Width: 400
VWidth: 960
Flags: W
HStem: 0 100<101.52 185.483> 200 100<115.13 200> 400 100<114.517 185.483>
VStem: 0 100<104.586 125 314.517 385.483> 200 100<115.13 200 300 384.87>
CounterMasks: 1 e0
LayerCount: 2
Fore
SplineSet
150 0 m 0
 75 0 0 50 0 125 c 1
 100 125 l 1
 100.193359375 103.373046875 125 100 150 100 c 0
 175 100 200 125 200 150 c 2
 200 200 l 1
 150 200 l 2
 75 200 0 275 0 350 c 0
 0 425 75 500 150 500 c 0
 225 500 300 425 300 350 c 2
 300 150 l 2
 300 75 225 0 150 0 c 0
200 300 m 1
 200 350 l 2
 200 375 175 400 150 400 c 0
 125 400 100 375 100 350 c 0
 100 325 125 300 150 300 c 2
 200 300 l 1
EndSplineSet
Validated: 1
EndChar

StartChar: less
Encoding: 60 60 97
Width: 300
VWidth: 960
Flags: W
HStem: 380 20G<105 200>
VStem: 0 200
LayerCount: 2
Fore
SplineSet
0 275 m 1
 125 400 l 1
 200 400 l 1
 200 375 l 1
 75 250 l 1
 200 125 l 1
 200 100 l 1
 125 100 l 1
 0 225 l 1
 0 275 l 1
EndSplineSet
Validated: 1
EndChar

StartChar: equal
Encoding: 61 61 98
Width: 400
VWidth: 960
Flags: W
HStem: 100 100<0 300> 300 100<0 300>
LayerCount: 2
Fore
SplineSet
0 300 m 1
 0 400 l 1
 300 400 l 1
 300 300 l 1
 0 300 l 1
0 100 m 1
 0 200 l 1
 300 200 l 1
 300 100 l 1
 0 100 l 1
EndSplineSet
Validated: 1
EndChar

StartChar: greater
Encoding: 62 62 99
Width: 300
VWidth: 960
Flags: W
HStem: 380 20G<0 95>
VStem: 0 200
LayerCount: 2
Fore
SplineSet
200 275 m 1
 200 225 l 1
 75 100 l 1
 0 100 l 1
 0 125 l 1
 125 250 l 1
 0 375 l 1
 0 400 l 1
 75 400 l 1
 200 275 l 1
EndSplineSet
Validated: 1
EndChar

StartChar: question
Encoding: 63 63 100
Width: 400
VWidth: 960
Flags: W
HStem: 0 100<112.193 187.807> 175 125<100 186.095> 400 100<101.345 185.483>
VStem: 100 100<12.1926 87.8074 175 218.103> 200 100<314.415 385.483>
LayerCount: 2
Fore
SplineSet
150 500 m 0xf0
 225 500 300 425 300 350 c 0xe8
 300 291.958984375 255.073242188 233.948242188 200 210.66796875 c 1
 200 175 l 1
 100 175 l 1
 100 300 l 1xf0
 150 300 l 2
 175 300 200 325 200 350 c 0xe8
 200 375 175 400 150 400 c 0
 125 400 100 400 100 375 c 1
 0 375 l 1
 0 450 75 500 150 500 c 0xf0
EndSplineSet
Refer: 83 46 N 1 0 0 1 100 0 2
Validated: 1
EndChar

StartChar: at
Encoding: 64 64 101
Width: 800
VWidth: 960
Flags: W
HStem: -100 100<253.415 425> 15.292 84.708<511.719 588.488> 100 100<338.029 400> 300 100<317.85 400> 500 100<252.614 447.386>
VStem: 0 100<152.614 347.386> 200 100<217.54 282.46> 400 100<200 300> 600 100<150 346.585>
LayerCount: 2
Fore
SplineSet
350 600 m 0xdf80
 550 600 700 450 700 250 c 0
 700 50 625 15.2919921875 550 15.2919921875 c 0xdf80
 450 15.2919921875 425 100 425 100 c 1xbf80
 325 100 200 175 200 250 c 0
 200 325 300 400 400 400 c 2
 500 400 l 1
 500 150 l 1
 500 150 500 100 550 100 c 0
 600 100 600 150 600 150 c 1
 600 250 l 2
 600 400 500 500 350 500 c 0
 200 500 100 400 100 250 c 0
 100 100 200 0 350 0 c 2
 425 0 l 1
 425 -100 l 1
 350 -100 l 2
 150 -100 0 50 0 250 c 0
 0 450 150 600 350 600 c 0xdf80
375 300 m 2
 325 300 300 275 300 250 c 0
 300 225 325 200 375 200 c 2
 400 200 l 1xbf80
 400 300 l 1
 375 300 l 2
EndSplineSet
Validated: 1
EndChar

StartChar: bracketleft
Encoding: 91 91 102
Width: 300
VWidth: 960
Flags: W
HStem: 0 100<100 200> 400 100<100 200>
VStem: 0 200<0 100 400 500> 0 100<100 400>
LayerCount: 2
Fore
SplineSet
0 0 m 1xe0
 0 500 l 1
 200 500 l 1
 200 400 l 1xe0
 100 400 l 1
 100 100 l 1xd0
 200 100 l 1
 200 0 l 1
 0 0 l 1xe0
EndSplineSet
Validated: 1
EndChar

StartChar: backslash
Encoding: 92 92 103
Width: 400
VWidth: 960
Flags: W
HStem: 0 21G<215.526 300> 0 21G<215.526 300> 480 20G<0 84.4737>
LayerCount: 2
Fore
SplineSet
225 0 m 1xa0
 0 475 l 1
 0 500 l 1
 75 500 l 1
 300 25 l 1
 300 0 l 1
 225 0 l 1xa0
EndSplineSet
Validated: 1
EndChar

StartChar: bracketright
Encoding: 93 93 104
Width: 300
VWidth: 960
Flags: W
HStem: 0 100<0 100> 400 100<0 100>
VStem: 0 200<0 100 400 500> 100 100<100 400>
LayerCount: 2
Fore
SplineSet
200 0 m 1xe0
 0 0 l 1
 0 100 l 1xe0
 100 100 l 1
 100 400 l 1xd0
 0 400 l 1
 0 500 l 1
 200 500 l 1
 200 0 l 1xe0
EndSplineSet
Validated: 1
EndChar

StartChar: underscore
Encoding: 95 95 105
Width: 400
VWidth: 960
Flags: W
HStem: -100 100<0 300>
LayerCount: 2
Fore
SplineSet
0 -100 m 1
 0 0 l 1
 300 0 l 1
 300 -100 l 1
 0 -100 l 1
EndSplineSet
Validated: 1
EndChar

StartChar: braceleft
Encoding: 123 123 106
Width: 400
VWidth: 960
Flags: W
HStem: 0 21G<300 300> 0 21G<300 300> 480 20G<300 300>
VStem: 100 100<144.214 200 300 355.786>
LayerCount: 2
Fore
SplineSet
300 500 m 1xb0
 300 400 l 1
 300 400 200 400 200 300 c 2
 200 200 l 2
 200 100 300 100 300 100 c 1
 300 0 l 1
 300 0 100 25 100 150 c 2
 100 200 l 1
 0 225 l 1
 0 275 l 1
 100 300 l 1
 100 350 l 2
 100 475 300 500 300 500 c 1xb0
EndSplineSet
Validated: 1
EndChar

StartChar: bar
Encoding: 124 124 107
Width: 200
VWidth: 960
Flags: W
HStem: 480 20G<0 100>
VStem: 0 100<-100 500>
LayerCount: 2
Fore
SplineSet
0 -100 m 1
 0 500 l 1
 100 500 l 1
 100 -100 l 1
 0 -100 l 1
EndSplineSet
Validated: 1
EndChar

StartChar: braceright
Encoding: 125 125 108
Width: 400
VWidth: 960
Flags: W
HStem: 0 21G<0 0> 0 21G<0 0> 480 20G<0 0>
VStem: 100 100<144.214 200 300 355.786>
LayerCount: 2
Fore
SplineSet
0 500 m 1xb0
 0 500 200 475 200 350 c 2
 200 300 l 1
 300 275 l 1
 300 225 l 1
 200 200 l 1
 200 150 l 2
 200 25 0 0 0 0 c 1
 0 100 l 1
 0 100 100 100 100 200 c 2
 100 300 l 2
 100 400 0 400 0 400 c 1
 0 500 l 1xb0
EndSplineSet
Validated: 1
EndChar

StartChar: asciitilde
Encoding: 126 126 109
Width: 500
VWidth: 960
Flags: HW
HStem: 100 100<249.029 297.674> 200 100<102.325 152.131>
LayerCount: 2
Fore
SplineSet
175 300 m 2x40
 225 300 233.810546875 200.546875 275 200 c 4
 299.998046875 199.66796875 325 275 325 275 c 1
 400 275 l 1
 400 275 400 100 300 100 c 2
 225 100 l 2x80
 175.596679688 102.310546875 165.46875 200 125 200 c 0
 100 200 75 125 75 125 c 1
 0 125 l 1
 0 125 0 300 100 300 c 2
 175 300 l 2x40
EndSplineSet
EndChar

StartChar: exclamdown
Encoding: 161 161 110
Width: 240
VWidth: 960
Flags: W
HStem: 0 300<13.9046 86.0954> 400 100<12.1926 87.8074>
VStem: 0 100<13.9046 300 412.193 487.807>
LayerCount: 2
Fore
SplineSet
0 50 m 2
 0 300 l 1
 100 300 l 1
 100 50 l 2
 100 25 75 0 50 0 c 0
 25 0 0 25 0 50 c 2
EndSplineSet
Refer: 83 46 S 1 0 0 1 0 400 2
Validated: 1
EndChar

StartChar: cent
Encoding: 162 162 111
Width: 600
VWidth: 960
Flags: W
HStem: 0 100<140.13 200 300 373.434> 300 100<140.13 200 300 373.434> 480 20G<200 300>
VStem: 25 100<116.016 284.443> 200 100<-100 0 100 300 400 500>
LayerCount: 2
Fore
SplineSet
200 500 m 1
 300 500 l 1
 300 400 l 1
 325 400 l 2
 400 400 475 350 475 275 c 1
 375 275 l 1
 375 300 350 300 325 300 c 2
 300 300 l 1
 300 100 l 1
 325 100 l 2
 350 100 375 100 375 125 c 1
 475 125 l 1
 475 50 400 0 325 0 c 2
 300 0 l 1
 300 -100 l 1
 200 -100 l 1
 200 0 l 1
 175 0 l 2
 100 0 25 100 25 175 c 2
 25 225 l 2
 25 301.086914062 100 400 175 400 c 2
 200 400 l 1
 200 500 l 1
175 300 m 2
 150 300 125 275 125 250 c 2
 125 150 l 2
 125 125 150 100 175 100 c 2
 200 100 l 1
 200 300 l 1
 175 300 l 2
EndSplineSet
Validated: 1
EndChar

StartChar: sterling
Encoding: 163 163 112
Width: 400
VWidth: 960
Flags: HW
HStem: 0.636719 100.043<100 300> 200.637 100<100 275> 500 100<114.517 185.483>
VStem: 0 100<100.68 200.637 300.637 484.522> 200 100<425 483.984>
LayerCount: 2
Fore
SplineSet
100 450.63671875 m 2
 100 300.63671875 l 1
 275 300 l 1
 275 200 l 1
 100 200.63671875 l 1
 100 100.6796875 l 1
 300 100.04296875 l 5
 300 0 l 1
 0 0.63671875 l 1
 0 425.63671875 l 2
 0 500.63671875 75 600 150 600 c 0
 225 600 300 500 300 425 c 1
 200 425 l 1
 200 450 l 2
 200 475 175 500 150 500 c 0
 125 500 100 475.63671875 100 450.63671875 c 2
300 0 m 1
 300 25 l 1
 300 0 l 1
EndSplineSet
EndChar

StartChar: currency
Encoding: 164 164 113
Width: 600
VWidth: 960
Flags: W
HStem: 100 100<212.287 287.713> 300 100<212.287 287.744>
VStem: 100 100<212.287 287.713> 300 100<212.287 287.744>
LayerCount: 2
Fore
SplineSet
73.22265625 497.48828125 m 1
 73.22265625 497.48828125 185.619140625 385.3203125 185.474609375 385.236328125 c 1
 204.9765625 394.594726562 226.953125 399.943359375 250 400 c 0
 273.083984375 399.995117188 295.09375 394.681640625 314.634765625 385.345703125 c 1
 426.77734375 497.48828125 l 1
 497.48828125 426.77734375 l 1
 497.48828125 426.77734375 385.428710938 314.497070312 385.345703125 314.634765625 c 1
 394.681640625 295.09375 399.995117188 273.083984375 400 250 c 0
 399.943359375 226.953125 394.594726562 204.9765625 385.236328125 185.474609375 c 1
 497.48828125 73.22265625 l 1
 426.77734375 2.51171875 l 1
 426.77734375 2.51171875 314.380859375 114.6796875 314.525390625 114.763671875 c 1
 295.0234375 105.405273438 273.046875 100.056640625 250 100 c 0
 226.953125 100.056640625 204.9765625 105.405273438 185.474609375 114.763671875 c 1
 73.22265625 2.51171875 l 1
 2.51171875 73.22265625 l 1
 2.51171875 73.22265625 114.6796875 185.619140625 114.763671875 185.474609375 c 1
 105.405273438 204.9765625 100.056640625 226.953125 100 250 c 0
 100.056640625 273.046875 105.405273438 295.0234375 114.763671875 314.525390625 c 1
 2.51171875 426.77734375 l 1
 73.22265625 497.48828125 l 1
250 300 m 0
 222.404296875 300 200 277.595703125 200 250 c 0
 200 222.404296875 222.404296875 200 250 200 c 0
 277.595703125 200 300 222.404296875 300 250 c 0
 300 277.595703125 277.595703125 300 250 300 c 0
EndSplineSet
Validated: 33
EndChar

StartChar: yen
Encoding: 165 165 114
Width: 400
VWidth: 960
Flags: W
HStem: 0 21G<100 200> 0 21G<100 200> 75 77.1055<0 100 200 300> 225 75<0 35.5996 264.414 300> 480 20G<0 100 200 300>
VStem: 0 100<350.98 500> 100 100<0 75 152.105 224.246> 200 100<351.114 500>
LayerCount: 2
Fore
SplineSet
300 500 m 1xbd
 300 400.778116383 288.898413296 349.910407392 264.4140625 300 c 1
 300 300 l 1
 300 225 l 1xbd
 217.986328125 225 l 1
 212.301757812 216.96484375 206.397460938 208.73828125 200 200 c 1
 200 152.10546875 l 1xba
 300 152.10546875 l 1
 300 75 l 1xb9
 200 75 l 1
 200 0 l 1
 100 0 l 1
 100 75 l 1xba
 0 75 l 1
 0 152.10546875 l 1xbc
 100 152.10546875 l 1
 100 200 l 1xba
 93.6025390625 208.73828125 87.6982421875 216.96484375 82.013671875 225 c 1
 0 225 l 1
 0 300 l 1
 35.599609375 300 l 1
 9.56297111892 352.744306962 0 406.767649673 0 500 c 1
 100 500 l 1
 100 425 100 350 150 300 c 1
 200 350 200 424.999735584 200 500 c 1
 300 500 l 1xbd
EndSplineSet
Validated: 1
EndChar

StartChar: brokenbar
Encoding: 166 166 115
Width: 200
VWidth: 960
Flags: W
HStem: 480 20G<0 100>
VStem: 0 100<-100 150 250 500>
LayerCount: 2
Fore
SplineSet
100 250 m 1
 0 250 l 1
 0 500 l 1
 100 500 l 1
 100 250 l 1
100 -100 m 1
 0 -100 l 1
 0 150 l 1
 100 150 l 1
 100 -100 l 1
EndSplineSet
Validated: 1
EndChar

StartChar: section
Encoding: 167 167 116
Width: 500
VWidth: 960
Flags: W
HStem: -100 100<25 178.891> 100 100<112.513 187.807> 300 100<112.193 187.487> 500 100<121.109 275>
VStem: 0 100<212.353 287.571 412.429 487.647> 200 100<12.3526 87.5843 212.452 287.647>
LayerCount: 2
Fore
SplineSet
200 600 m 2
 275 600 l 1
 275 500 l 1
 150 500 l 2
 122.385742188 500 100 477.614257812 100 450 c 0
 100 422.385742188 122.385742188 400 150 400 c 0
 232.842773438 400 300 332.842773438 300 250 c 0
 299.944335938 213.123046875 286.306640625 177.55859375 261.69140625 150.099609375 c 1
 286.352539062 122.58984375 299.994140625 86.9453125 300 50 c 0
 300 -32.8427734375 182.842773438 -100 100 -100 c 2
 25 -100 l 1
 25 0 l 1
 150 0 l 2
 177.614257812 0 200 22.3857421875 200 50 c 0
 200 77.6142578125 177.614257812 100 150 100 c 0
 67.1572265625 100 0 167.157226562 0 250 c 0
 0.05859375 286.924804688 13.7333984375 322.530273438 38.408203125 350 c 1
 13.7333984375 377.469726562 0.05859375 413.075195312 0 450 c 0
 0 532.842773438 117.157226562 600 200 600 c 2
150 300 m 0
 122.385742188 300 100 277.614257812 100 250 c 0
 100 222.385742188 122.385742188 200 150 200 c 0
 177.614257812 200 200 222.385742188 200 250 c 0
 200 277.614257812 177.614257812 300 150 300 c 0
EndSplineSet
Validated: 1
EndChar

StartChar: dieresis
Encoding: 168 168 117
Width: 300
VWidth: 960
Flags: W
HStem: 500 100<12.1926 87.8074 212.193 287.807>
VStem: 0 100<512.193 587.807> 200 100<512.193 587.807>
LayerCount: 2
Fore
SplineSet
0 550 m 0
 0 577.614257812 22.3857421875 600 50 600 c 0
 77.6142578125 600 100 577.614257812 100 550 c 0
 100 522.385742188 77.6142578125 500 50 500 c 0
 22.3857421875 500 0 522.385742188 0 550 c 0
200 550 m 0
 200 577.614257812 222.385742188 600 250 600 c 0
 277.614257812 600 300 577.614257812 300 550 c 0
 300 522.385742188 277.614257812 500 250 500 c 0
 222.385742188 500 200 522.385742188 200 550 c 0
EndSplineSet
Validated: 1
EndChar

StartChar: copyright
Encoding: 169 169 118
Width: 800
VWidth: 960
Flags: W
HStem: -100 100<252.614 447.386> 100 100<314.599 382.41> 300 100<314.599 382.41> 500 100<252.614 447.386>
VStem: 0 100<152.614 347.386> 200 100<214.517 285.483> 600 100<152.614 347.386>
LayerCount: 2
Fore
SplineSet
350 600 m 0
 550 600 700 450 700 250 c 0
 700 50 550 -100 350 -100 c 0
 150 -100 0 50 0 250 c 0
 0 450 150 600 350 600 c 0
350 500 m 0
 200 500 100 400 100 250 c 0
 100 100 200 0 350 0 c 0
 500 0 600 100 600 250 c 0
 600 400 500 500 350 500 c 0
500 300 m 1
 350 300 l 2
 325 300 300 275 300 250 c 0
 300 225 325 200 350 200 c 2
 500 200 l 1
 500 150 400 100 350 100 c 0
 300 100 200 175 200 250 c 0
 200 325 300 400 350 400 c 0
 400 400 500 350 500 300 c 1
EndSplineSet
Validated: 1
EndChar

StartChar: ordfeminine
Encoding: 170 170 119
Width: 400
VWidth: 960
Flags: W
HStem: 200 100<117.85 200> 400 100<117.85 200>
VStem: 0 100<317.54 382.46> 200 100<300 400>
LayerCount: 2
Fore
SplineSet
200 500 m 2
 300 500 l 1
 300 200 l 1
 200 200 l 2
 100 200 0 275 0 350 c 0
 0 425 100 500 200 500 c 2
175 300 m 2
 200 300 l 1
 200 400 l 1
 175 400 l 2
 125 400 100 375 100 350 c 0
 100 325 125 300 175 300 c 2
EndSplineSet
Validated: 1
EndChar

StartChar: logicalnot
Encoding: 172 172 121
Width: 400
VWidth: 960
Flags: W
HStem: 200 100<0 200>
VStem: 200 100<100 200>
LayerCount: 2
Fore
SplineSet
300 300 m 1
 300 100 l 1
 200 100 l 1
 200 200 l 1
 0 200 l 1
 0 300 l 1
 300 300 l 1
EndSplineSet
Validated: 1
EndChar

StartChar: registered
Encoding: 174 174 123
Width: 800
VWidth: 960
Flags: W
HStem: -100 100<252.614 447.386> 200 75<300 350> 325 75<300 398.877> 500 100<252.614 447.386>
VStem: 0 100<152.614 347.386> 200 100<100 200 275 325> 400 100<285.498 348.713> 600 100<152.614 347.386>
LayerCount: 2
Fore
SplineSet
300 325 m 1
 300 275 l 1
 350 275 l 2
 375 275 400 275 400 300 c 0
 400 325 375 325 350 325 c 2
 300 325 l 1
200 400 m 1
 200 400 350 400 400 400 c 0
 450 400 500 375 500 325 c 0
 500 275 425 250 425 250 c 1
 500 175 l 1
 500 100 l 1
 425 100 l 1
 350 200 l 1
 300 200 l 1
 300 100 l 1
 200 100 l 1
 200 400 l 1
350 600 m 0
 550 600 700 450 700 250 c 0
 700 50 550 -100 350 -100 c 0
 150 -100 0 50 0 250 c 0
 0 450 150 600 350 600 c 0
350 500 m 0
 200 500 100 400 100 250 c 0
 100 100 200 0 350 0 c 0
 500 0 600 100 600 250 c 0
 600 400 500 500 350 500 c 0
EndSplineSet
Validated: 1
EndChar

StartChar: macron
Encoding: 175 175 124
Width: 320
VWidth: 960
Flags: W
HStem: 525 75<0 300>
LayerCount: 2
Fore
SplineSet
0 525 m 1
 0 600 l 1
 300 600 l 1
 300 525 l 1
 0 525 l 1
EndSplineSet
Validated: 1
EndChar

StartChar: degree
Encoding: 176 176 125
Width: 400
VWidth: 960
Flags: W
HStem: 200 100<114.252 185.748> 400 100<114.252 185.748>
VStem: 0 100<314.517 385.483> 200 100<314.517 385.483>
LayerCount: 2
Fore
SplineSet
150 500 m 0
 200 500 300 425 300 350 c 0
 300 275 200 200 150 200 c 0
 100 200 0 275 0 350 c 0
 0 425 100 500 150 500 c 0
150 400 m 0
 125 400 100 375 100 350 c 0
 100 325 125 300 150 300 c 0
 175 300 200 325 200 350 c 0
 200 375 175 400 150 400 c 0
EndSplineSet
Validated: 1
EndChar

StartChar: plusminus
Encoding: 177 177 126
Width: 400
VWidth: 960
Flags: W
HStem: 0 100<0 300> 300 100<0 100 200 300> 480 20G<100 200>
VStem: 100 100<200 300 400 500>
LayerCount: 2
Fore
SplineSet
100 500 m 1
 200 500 l 1
 200 400 l 1
 300 400 l 1
 300 300 l 1
 200 300 l 1
 200 200 l 1
 100 200 l 1
 100 300 l 1
 0 300 l 1
 0 400 l 1
 100 400 l 1
 100 500 l 1
0 100 m 1
 300 100 l 1
 300 0 l 1
 0 0 l 1
 0 100 l 1
EndSplineSet
Validated: 1
EndChar

StartChar: uni00B2
Encoding: 178 178 127
Width: 400
VWidth: 960
Flags: W
HStem: 300 75<125 300> 500 21G<0 100> 525 75<102.753 198.304>
VStem: 200 100<492.21 548.372>
LayerCount: 2
Fore
SplineSet
0 500 m 1
 0 525 50 600 150 600 c 0
 250 600 300 575 300 525 c 0
 300 475 125 375 125 375 c 1
 300 375 l 1
 300 300 l 1
 0 300 l 1
 0 375 l 1
 150 450 l 1
 150 450 200 475 200 500 c 0
 200 511.005859375 200 525 150 525 c 0
 100 525 100 500 100 500 c 1
 0 500 l 1
EndSplineSet
Validated: 1
EndChar

StartChar: uni00B3
Encoding: 179 179 128
Width: 400
VWidth: 960
Flags: W
HStem: 300 75<102.753 197.247> 380 20G<0 100> 500 21G<0 100> 525 75<102.753 197.247>
LayerCount: 2
Fore
SplineSet
150 600 m 0
 250 600 300 575 300 525 c 0
 300 475 275 450 275 450 c 1
 275 450 300 425 300 375 c 0
 300 325 250 300 150 300 c 0
 50 300 0 375 0 400 c 1
 100 400 l 1
 100 400 100 375 150 375 c 0
 200 375 200 400 200 400 c 1
 200 425 150 425 150 425 c 1
 150 475 l 1
 150 475 200 475 200 500 c 1
 200 500 200 525 150 525 c 0
 100 525 100 500 100 500 c 1
 0 500 l 1
 0 525 50 600 150 600 c 0
EndSplineSet
Validated: 1
EndChar

StartChar: acute
Encoding: 180 180 129
Width: 200
VWidth: 960
Flags: W
HStem: 425 175
VStem: 0 200
LayerCount: 2
Fore
SplineSet
200 600 m 1
 200 550 l 1
 75 425 l 1
 0 425 l 1
 0 475 l 1
 125 600 l 1
 200 600 l 1
EndSplineSet
Validated: 1
EndChar

StartChar: mu
Encoding: 181 181 130
Width: 400
VWidth: 960
Flags: W
HStem: 0 100<113.833 185.483> 380 20G<0 100 200 300>
VStem: 0 100<-100 10.668 113.905 400> 200 100<115.13 400>
LayerCount: 2
Fore
SplineSet
0 400 m 1
 100 400 l 1
 100 150 l 2
 100 125 125 100 150 100 c 0
 175 100 200 125 200 150 c 2
 200 400 l 1
 300 400 l 1
 300 150 l 2
 300 75 225 0 150 0 c 0
 133.041015625 0 116.091796875 3.865234375 100 10.66796875 c 1
 100 -100 l 1
 0 -100 l 1
 0 150 l 1
 0 400 l 1
EndSplineSet
Validated: 1
EndChar

StartChar: paragraph
Encoding: 182 182 131
Width: 600
VWidth: 960
Flags: W
HStem: 400 100<300 400>
VStem: 0 300<275.904 399.512> 200 100<-100 200> 400 100<-100 400>
LayerCount: 2
Fore
SplineSet
150 500 m 1xd0
 500 500 l 1
 500 -100 l 1
 400 -100 l 1
 400 400 l 1
 300 400 l 1
 300 -100 l 1
 200 -100 l 1
 200 200 l 1xb0
 150 200 l 1
 150 200 0 200 0 350 c 0
 0 500 150 500 150 500 c 1xd0
EndSplineSet
Validated: 1
EndChar

StartChar: cedilla
Encoding: 184 184 133
Width: 100
VWidth: 960
Flags: W
HStem: -100 100<50 136.095> -25 25<0 50>
VStem: 50 100<-63.6858 -25.2342>
LayerCount: 2
Fore
SplineSet
50 -25 m 1x60
 0 -25 l 1
 0 0 l 1x60
 0 0 75 0 100 0 c 0
 125 0 150 -25 150 -50 c 0
 150 -75 125 -100 100 -100 c 0
 75 -100 0 -100 0 -100 c 1xa0
 0 -75 l 1
 0 -75 50 -75 50 -25 c 1x60
EndSplineSet
Validated: 1
EndChar

StartChar: uni00B9
Encoding: 185 185 134
Width: 300
VWidth: 960
Flags: W
VStem: 100 100<300 600>
LayerCount: 2
Fore
SplineSet
100 300 m 1
 100 600 l 1
 200 600 l 1
 200 300 l 1
 100 300 l 1
EndSplineSet
Validated: 1
EndChar

StartChar: questiondown
Encoding: 191 191 140
Width: 400
VWidth: 960
Flags: W
HStem: 0 100<114.517 198.655> 200 125<113.905 200> 400 100<112.193 187.807>
VStem: 0 100<114.517 185.585> 100 100<281.897 325 412.193 487.807>
LayerCount: 2
Fore
SplineSet
150 0 m 0xe8
 75 0 0 75 0 150 c 0xf0
 0 208.041015625 44.9267578125 266.051757812 100 289.33203125 c 1
 100 325 l 1
 200 325 l 1
 200 200 l 1xe8
 150 200 l 2
 125 200 100 175 100 150 c 0xf0
 100 125 125 100 150 100 c 0
 175 100 200 100 200 125 c 1
 300 125 l 1
 300 50 225 0 150 0 c 0xe8
EndSplineSet
Refer: 83 46 N 1 0 0 1 100 400 2
Validated: 1
EndChar

StartChar: AE
Encoding: 198 198 147
Width: 600
VWidth: 960
Flags: W
HStem: 0 100<300 500> 100 100<100 200> 200 100<300 425> 400 100<300 500>
VStem: 0 100<0 100 200 318.958> 200 100<300 400>
LayerCount: 2
Fore
SplineSet
150 500 m 1xbc
 200 500 l 1
 300 500 l 1
 500 500 l 1
 500 400 l 1
 300 400 l 1
 300 300 l 1
 425 300 l 1
 425 200 l 1
 300 200 l 1
 300 100 l 1
 500 100 l 1
 500 0 l 1
 300 0 l 1
 200 0 l 1xbc
 200 100 l 1
 100 100 l 1x5c
 100 0 l 1
 0 0 l 1
 0 200 l 2
 0 350 25 400 150 500 c 1xbc
200 400 m 1
 100 350 100 275 100 200 c 1
 200 200 l 1x5c
 200 400 l 1
EndSplineSet
Validated: 1
EndChar

StartChar: Eth
Encoding: 208 208 157
Width: 500
VWidth: 960
Flags: W
HStem: 0 100<200 279.329> 200 100<0 100 200 250> 400 100<200 279.329>
VStem: 100 100<100 200 300 400> 300 100<120.671 379.329>
CounterMasks: 1 e0
LayerCount: 2
Fore
SplineSet
100 500 m 1
 200 500 l 2
 325 500 400 425 400 300 c 2
 400 200 l 2
 400 75 325 0 200 0 c 2
 100 0 l 1
 100 200 l 1
 0 200 l 1
 0 300 l 1
 100 300 l 1
 100 500 l 1
200 400 m 1
 200 300 l 1
 250 300 l 1
 250 200 l 1
 200 200 l 1
 200 100 l 1
 225 100 l 2
 275 100 300 125 300 175 c 2
 300 325 l 2
 300 381.762695312 275 400 225 400 c 2
 200 400 l 1
EndSplineSet
Validated: 1
EndChar

StartChar: multiply
Encoding: 215 215 164
Width: 400
VWidth: 960
Flags: W
LayerCount: 2
Fore
SplineSet
237.861328125 407.827148438 m 1
 308.572265625 337.116210938 l 1
 220.18359375 248.727539062 l 1
 308.572265625 160.33984375 l 1
 237.861328125 89.62890625 l 1
 149.47265625 178.017578125 l 1
 61.0849609375 89.62890625 l 1
 -9.6259765625 160.33984375 l 1
 78.7626953125 248.727539062 l 1
 -9.6259765625 337.116210938 l 1
 61.0849609375 407.827148438 l 1
 149.47265625 319.438476562 l 1
 237.861328125 407.827148438 l 1
EndSplineSet
Validated: 1
EndChar

StartChar: Oslash
Encoding: 216 216 165
Width: 500
VWidth: 960
Flags: W
HStem: 0 100<148.135 274.511> 400 100<125.489 251.865>
VStem: 0 100<189.668 371.253> 300 100<128.747 310.332>
LayerCount: 2
Fore
SplineSet
150 500 m 2
 250 500 l 2
 269.892578125 500 289.770507812 491.1484375 308.263671875 476.826171875 c 1
 325 500 l 1
 400 500 l 1
 400 450 l 1
 367.44921875 404.9296875 l 1
 387.360351562 369.540039062 400 330.630859375 400 300 c 2
 400 200 l 2
 400 125 325 0 250 0 c 2
 150 0 l 2
 130.107421875 0 110.229492188 8.8515625 91.736328125 23.173828125 c 1
 75 0 l 1
 0 0 l 1
 0 50 l 1
 32.55078125 95.0703125 l 1
 12.6396484375 130.459960938 0 169.369140625 0 200 c 2
 0 300 l 2
 0 375 75 500 150 500 c 2
150 400 m 2
 125 400 100 350 100 300 c 2
 100 200 l 2
 100 196.409179688 100.197265625 192.7734375 100.482421875 189.12890625 c 1
 252.55078125 399.6875 l 1
 251.700195312 399.801757812 250.8515625 400 250 400 c 2
 150 400 l 2
299.5703125 310.943359375 m 1
 147.4609375 100.33203125 l 1
 148.307617188 100.211914062 149.15234375 100 150 100 c 2
 250 100 l 2
 275 100 300 150 300 200 c 2
 300 300 l 2
 300 303.65625 299.828125 307.306640625 299.5703125 310.943359375 c 1
EndSplineSet
Validated: 1
EndChar

StartChar: Thorn
Encoding: 222 222 171
Width: 400
VWidth: 960
Flags: W
HStem: 0 21G<0 100> 0 21G<0 100> 100 100<100 188.557> 300 100<100 188.557> 480 20G<0 100>
VStem: 0 100<0 100 200 300 400 500> 200 100<210.242 289.758>
LayerCount: 2
Fore
SplineSet
0 0 m 1xbe
 0 500 l 1
 100 500 l 1
 100 400 l 1
 225 400 300 375 300 250 c 0
 300 125 225 100 100 100 c 1
 100 0 l 1
 0 0 l 1xbe
100 300 m 1
 100 200 l 1
 125 200 l 2
 175 200 200 202.987304688 200 250 c 0
 200 297.012695312 175 300 125 300 c 2
 100 300 l 1
EndSplineSet
Validated: 1
EndChar

StartChar: germandbls
Encoding: 223 223 172
Width: 400
VWidth: 960
Flags: W
HStem: 0 21G<0 100 150 175> 0 21G<0 100 150 175> 400 100<116.644 185.748>
VStem: 0 100<0 382.41> 200 100<115.056 185.478 314.544 385.748>
LayerCount: 2
Fore
SplineSet
150 500 m 0xb8
 200 500 300 400 300 350 c 0
 300 323.302734375 271.431640625 282.4375 237.24609375 250.064453125 c 1
 271.455078125 217.68359375 300 176.7109375 300 150 c 0
 300 87.7216796875 200 0 150 0 c 1
 150 100 l 1
 175 100 200 125 200 150 c 0
 200 175 175 200 150 200 c 1
 150 300 l 1
 175 300 200 325 200 350 c 0
 200 375 175 400 150 400 c 0
 125 400 100.193359375 371.626953125 100 350 c 2
 100 0 l 1
 0 0 l 1
 0 350 l 2
 0 400 100 500 150 500 c 0xb8
EndSplineSet
Validated: 1
EndChar

StartChar: ae
Encoding: 230 230 176
Width: 600
VWidth: 960
Flags: W
HStem: 0 100<120.671 200 313.905 404.747> 175 75<300 400> 300 100<120.671 200> 325 75<313.905 384.89>
VStem: 0 100<120.671 279.329> 200 100<113.905 175 250 299.766> 400 100<250 300.166>
CounterMasks: 1 0e
LayerCount: 2
Fore
SplineSet
200 400 m 2xee
 350 400 l 2xde
 425 400 500.318359375 320.036132812 500 225 c 2
 500 175 l 1
 300 175 l 1
 300 150 l 2
 300 125 325 100 350 100 c 2
 400 100 l 1
 500 100 l 1
 500 50 449.99609375 -0.8427734375 350 0 c 2
 200 0 l 2
 75 0 0 75 0 200 c 0
 0 325 75 400 200 400 c 2xee
350 325 m 0
 325 325 300 300 300 275 c 2
 300 250 l 1
 400 250 l 1
 400 275 l 2
 400 300 375 325 350 325 c 0
175 300 m 2xee
 125 300 100 281.762695312 100 225 c 2
 100 175 l 2
 100 125 125 100 175 100 c 2
 200 100 l 1
 200 175 l 1
 200 225 l 1
 200 300 l 1
 175 300 l 2xee
EndSplineSet
Validated: 33
EndChar

StartChar: eth
Encoding: 240 240 183
Width: 400
VWidth: 960
Flags: W
HStem: 0 100<114.252 185.748> 200 100<114.252 168.47> 480 20G<50 100 216.666 300>
VStem: 0 100<114.517 185.483>
LayerCount: 2
Fore
SplineSet
50 500 m 1
 100 500 l 1
 100 500 120.755859375 473.966796875 148.322265625 438.994140625 c 1
 250 500 l 1
 300 500 l 1
 300 450 l 1
 190.912109375 384.546875 l 1
 218.610351562 349.002929688 247.939453125 311.080078125 275 275 c 0
 300.495117188 241.006835938 300 150 300 150 c 1
 300 75 200 0 150 0 c 0
 100 0 0 75 0 150 c 0
 0 225 100 300 150 300 c 0
 155.713867188 300 162.102539062 298.975585938 168.8984375 297.12890625 c 1
 129.544921875 347.7265625 l 1
 50 300 l 1
 0 300 l 1
 0 350 l 1
 87.12109375 402.2734375 l 1
 50 450 l 1
 50 500 l 1
150 200 m 0
 125 200 100 175 100 150 c 0
 100 125 125 100 150 100 c 0
 175 100 200 125 200 150 c 0
 200 175 175 200 150 200 c 0
EndSplineSet
Validated: 33
EndChar

StartChar: divide
Encoding: 247 247 187
Width: 400
VWidth: 960
Flags: W
HStem: 0 100<112.193 187.807> 200 100<0 300> 400 100<112.193 187.807>
VStem: 100 100<12.1926 87.8074 412.193 487.807>
CounterMasks: 1 e0
LayerCount: 2
Fore
SplineSet
0 200 m 1
 0 300 l 1
 300 300 l 1
 300 200 l 1
 0 200 l 1
100 50 m 0
 100 77.6142578125 122.385742188 100 150 100 c 0
 177.614257812 100 200 77.6142578125 200 50 c 0
 200 22.3857421875 177.614257812 0 150 0 c 0
 122.385742188 0 100 22.3857421875 100 50 c 0
100 450 m 0
 100 477.614257812 122.385742188 500 150 500 c 0
 177.614257812 500 200 477.614257812 200 450 c 0
 200 422.385742188 177.614257812 400 150 400 c 0
 122.385742188 400 100 422.385742188 100 450 c 0
EndSplineSet
Validated: 1
EndChar

StartChar: oslash
Encoding: 248 248 188
Width: 500
VWidth: 960
Flags: W
HStem: 0 100<150 274.511> 300 100<125.489 250>
VStem: 0 100<157.498 271.722> 300 100<128.278 242.665>
LayerCount: 2
Fore
SplineSet
150 400 m 2
 250 400 l 2
 273.571289062 400 297.137695312 387.641601562 318.380859375 368.380859375 c 1
 350 400 l 1
 400 400 l 1
 400 350 l 1
 362.9375 312.9375 l 1
 385.522460938 275.530273438 400 232.944335938 400 200 c 0
 400 125 325 0 250 0 c 2
 150 0 l 2
 126.428710938 0 102.862304688 12.3583984375 81.619140625 31.619140625 c 1
 50 0 l 1
 0 0 l 1
 0 50 l 1
 37.0625 87.0625 l 1
 14.4775390625 124.469726562 0 167.055664062 0 200 c 0
 0 275 75 400 150 400 c 2
150 300 m 2
 125 300 100 250 100 200 c 0
 100 185.547851562 102.411132812 170.443359375 106.4765625 156.4765625 c 1
 250 300 l 1
 150 300 l 2
293.8359375 243.8359375 m 1
 150 100 l 1
 250 100 l 2
 275 100 300 150 300 200 c 0
 300 215.077148438 297.697265625 230.129882812 293.8359375 243.8359375 c 1
EndSplineSet
Validated: 1
EndChar

StartChar: thorn
Encoding: 254 254 190
Width: 400
VWidth: 960
Flags: W
HStem: 0 100<100 179.329> 300 100<100 179.329> 480 20G<0 100>
VStem: 0 100<-100 0 100 300 400 500> 200 100<120.671 279.329>
LayerCount: 2
Fore
SplineSet
0 -100 m 1
 0 500 l 1
 100 500 l 1
 100 400 l 1
 225 400 300 325 300 200 c 0
 300 75 225 0 100 0 c 1
 100 -100 l 1
 0 -100 l 1
100 300 m 1
 100 100 l 1
 125 100 l 2
 175 100 200 125 200 175 c 2
 200 225 l 2
 200 281.762695312 175 300 125 300 c 2
 100 300 l 1
EndSplineSet
Validated: 1
EndChar

StartChar: uni1D00
Encoding: 7424 7424 192
Width: 400
VWidth: 960
Flags: W
HStem: 0 21G<0 100 200 300> 0 21G<0 100 200 300> 100 100<100 200> 380 20G<75 225>
VStem: 0 100<0 100 200 261.681> 200 100<0 100 200 258.971>
LayerCount: 2
Fore
SplineSet
100 200 m 1x3c
 200 200 l 1
 200 250 175 275 150 300 c 1
 125 275 100 250 100 200 c 1x3c
0 0 m 1xbc
 0 200 l 2
 0 306.767578125 50 350 100 400 c 1
 200 400 l 1
 250 350 300 300 300 200 c 2
 300 0 l 1
 200 0 l 1
 200 100 l 1
 100 100 l 1
 100 0 l 1
 0 0 l 1xbc
EndSplineSet
Validated: 1
EndChar

StartChar: uni0000
Encoding: 0 0 193
Width: 500
VWidth: 960
Flags: W
HStem: -100 100<212.199 287.801> 100 75<212.199 287.801> 300 100<201.123 286.095> 500 100<175.703 311.613>
VStem: 0 200<12.1989 87.8011 175 300> 0 100<375 431.792> 400 100<286.547 411.613>
LayerCount: 2
Fore
SplineSet
250 500 m 0xfa
 175 500 100 450 100 375 c 1xf6
 200 375 l 1
 200 400 225 400 250 400 c 0
 275 400 300 375 300 350 c 0
 300 325 275 300 250 300 c 2
 200 300 l 1
 200 175 l 1
 300 175 l 1
 300 210.66796875 l 1
 355.073242188 233.948242188 400 291.958984375 400 350 c 0
 400 425 325 500 250 500 c 0xfa
250 100 m 0
 222.404296875 100 200 77.595703125 200 50 c 0xfa
 200 22.404296875 222.404296875 0 250 0 c 0
 277.595703125 0 300 22.404296875 300 50 c 0
 300 77.595703125 277.595703125 100 250 100 c 0
0 600 m 1xf6
 500 600 l 1
 500 -100 l 1
 0 -100 l 1
 0 600 l 1xf6
EndSplineSet
Validated: 1
EndChar

StartChar: uni1D04
Encoding: 7428 7428 196
Width: 400
VWidth: 960
Flags: W
HStem: 0 100<114.517 198.655> 300 100<114.517 198.655>
VStem: 0 100<115.13 284.87>
LayerCount: 2
Fore
SplineSet
150 400 m 0
 225 400 300 350 300 275 c 1
 200 275 l 1
 200 300 175 300 150 300 c 0
 125 300 100 275 100 250 c 2
 100 150 l 2
 100 125 125 100 150 100 c 0
 175 100 200 100 200 125 c 1
 300 125 l 1
 300 50 225 0 150 0 c 0
 75 0 0 75 0 150 c 2
 0 250 l 2
 0 325 75 400 150 400 c 0
EndSplineSet
Validated: 1
EndChar

StartChar: uni1D05
Encoding: 7429 7429 197
Width: 400
VWidth: 960
Flags: W
HStem: 0 100<100 179.329> 300 100<100 179.329>
VStem: 0 100<100 300> 200 100<120.671 279.329>
LayerCount: 2
Fore
SplineSet
100 400 m 2
 225 400 300 325 300 200 c 0
 300 75 225 0 100 0 c 2
 0 0 l 1
 0 400 l 1
 100 400 l 2
100 300 m 1
 100 100 l 1
 125 100 l 2
 175 100 200 125 200 175 c 2
 200 225 l 2
 200 281.762695312 175 300 125 300 c 2
 100 300 l 1
EndSplineSet
Validated: 1
EndChar

StartChar: uni1D07
Encoding: 7431 7431 198
Width: 400
VWidth: 960
Flags: W
HStem: 0 100<100 300> 175 75<100 225> 325 75<100 300>
VStem: 0 100<100 175 250 325>
LayerCount: 2
Fore
SplineSet
0 0 m 1
 0 400 l 1
 300 400 l 1
 300 325 l 1
 100 325 l 1
 100 250 l 1
 225 250 l 1
 225 175 l 1
 100 175 l 1
 100 100 l 1
 300 100 l 1
 300 0 l 1
 100 0 l 1
 0 0 l 1
EndSplineSet
Validated: 1
EndChar

StartChar: uni026A
Encoding: 618 618 234
Width: 200
VWidth: 960
Flags: W
HStem: 0 21G<0 100> 0 21G<0 100> 380 20G<0 100>
VStem: 0 100<0 400>
LayerCount: 2
Fore
SplineSet
0 0 m 1xb0
 0 400 l 1
 100 400 l 1
 100 0 l 1
 0 0 l 1xb0
EndSplineSet
Validated: 1
EndChar

StartChar: uni1D1C
Encoding: 7452 7452 239
Width: 400
VWidth: 960
Flags: W
HStem: 0 100<114.517 185.483> 380 20G<0 100 200 300>
VStem: 0 100<115.13 400> 200 100<115.13 400>
LayerCount: 2
Fore
SplineSet
0 400 m 1
 100 400 l 1
 100 150 l 2
 100 125 125 100 150 100 c 0
 175 100 200 125 200 150 c 2
 200 400 l 1
 300 400 l 1
 300 150 l 2
 300 75 225 0 150 0 c 0
 75 0 0 75 0 150 c 2
 0 400 l 1
EndSplineSet
Validated: 1
EndChar

StartChar: uni0274
Encoding: 628 628 245
Width: 500
VWidth: 960
Flags: W
HStem: 0 21G<0 100 300 400> 0 21G<0 100 300 400> 380 20G<0 70 300 400>
VStem: 0 100<0 225> 300 100<0 25 150 400>
LayerCount: 2
Fore
SplineSet
300 25 m 1xb8
 100 225 l 1
 100 0 l 1
 0 0 l 1
 0 400 l 1
 50 400 l 1
 300 150 l 1
 300 400 l 1
 400 400 l 1
 400 0 l 1
 300 0 l 1
 300 25 l 1xb8
EndSplineSet
Validated: 1
EndChar

StartChar: uni028F
Encoding: 655 655 246
Width: 400
VWidth: 960
Flags: W
HStem: 0 21G<100 200> 0 21G<100 200> 380 20G<0 100 200 300>
VStem: 0 100<253.094 400> 100 100<0 123.114> 200 100<253.094 400>
LayerCount: 2
Fore
SplineSet
0 400 m 1xb0
 100 400 l 1
 100 325 100 250 150 200 c 1
 200 250 200 325 200 400 c 1
 300 400 l 1xb4
 300 250 275.127929688 202.61328125 200 100 c 1
 200 0 l 1
 100 0 l 1
 100 100 l 1xa8
 24.8720703125 202.61328125 0 250 0 400 c 1xb0
EndSplineSet
Validated: 1
EndChar

StartChar: uni1D0F
Encoding: 7439 7439 252
Width: 400
VWidth: 960
Flags: W
HStem: 0 100<114.517 185.483> 300 100<114.517 185.483>
VStem: 0 100<115.13 284.87> 200 100<115.13 284.87>
LayerCount: 2
Fore
SplineSet
0 250 m 2
 0 325 75 400 150 400 c 0
 225 400 300 325 300 250 c 2
 300 150 l 2
 300 75 225 0 150 0 c 0
 75 0 0 75 0 150 c 2
 0 250 l 2
100 250 m 2
 100 150 l 2
 100 125 125 100 150 100 c 0
 175 100 200 125 200 150 c 2
 200 250 l 2
 200 275 175 300 150 300 c 0
 125 300 100 275 100 250 c 2
EndSplineSet
Validated: 1
EndChar

StartChar: dcroat
Encoding: 273 273 263
Width: 400
VWidth: 960
Flags: W
HStem: 0 100<118.154 200> 200 100<117.428 200> 400 75<0 200> 480 20G<200 300>
VStem: 0 100<121.145 178.855> 200 100<100 200 300 400 475 500>
LayerCount: 2
Fore
SplineSet
300 500 m 1
 300 0 l 1
 200 0 l 2
 178.430664062 0 -1.2724609375 18.2041015625 0 150 c 0
 1.2724609375 281.795898438 175 300 200 300 c 1
 200 400 l 1
 0 400 l 1
 0 475 l 1
 200 475 l 1
 200 500 l 1
 300 500 l 1
175 200 m 2
 125 200 100 175 100 150 c 0
 100 125 125 100 175 100 c 2
 200 100 l 1
 200 200 l 1
 175 200 l 2
EndSplineSet
Validated: 33
EndChar

StartChar: fraction
Encoding: 8260 8260 264
Width: 800
VWidth: 960
Flags: W
HStem: 0 21G<0 108> 0 21G<0 108> 480 20G<192 300>
LayerCount: 2
Fore
SplineSet
100 0 m 1xa0
 0 0 l 1
 200 500 l 1
 300 500 l 1
 100 0 l 1xa0
EndSplineSet
Validated: 1
EndChar

StartChar: uni2074
Encoding: 8308 8308 270
Width: 400
VWidth: 960
Flags: W
HStem: 400 100<100 200>
VStem: 0 100<500 600> 200 100<300 400 500 600>
LayerCount: 2
Fore
SplineSet
100 600 m 1
 100 500 l 1
 200 500 l 1
 200 600 l 1
 300 600 l 1
 300 300 l 1
 200 300 l 1
 200 400 l 1
 0 400 l 1
 0 600 l 1
 100 600 l 1
EndSplineSet
Validated: 1
EndChar

StartChar: OE
Encoding: 338 338 279
Width: 600
VWidth: 960
Flags: W
HStem: 0 100<120.671 200 300 500> 200 100<300 425> 400 100<120.671 200 300 500>
VStem: 0 100<119.281 380.719> 200 100<100 200 300 400>
CounterMasks: 1 e0
LayerCount: 2
Fore
SplineSet
200 500 m 2
 500 500 l 1
 500 400 l 1
 300 400 l 1
 300 350 l 1
 300 300 l 1
 425 300 l 1
 425 200 l 1
 300 200 l 1
 300 150 l 1
 300 100 l 1
 500 100 l 1
 500 0 l 1
 300 0 l 1
 200 0 l 2
 75 0 -0 75 0 150 c 2
 0 350 l 2
 0 425 75 500 200 500 c 2
200 400 m 1
 125 400 100 375 100 350 c 2
 100 150 l 2
 100 125 125 100 200 100 c 1
 200 150 l 1
 200 350 l 1
 200 400 l 1
EndSplineSet
Validated: 1
EndChar

StartChar: oe
Encoding: 339 339 280
Width: 600
VWidth: 960
Flags: W
HStem: 0 100<111.985 185.232 315.632 391.693> 175 75<300 400> 300 100<114.517 188.189> 325 75<314.768 385.493>
VStem: 0 100<115.316 283.984> 200 100<113.905 175 250 288.898> 400 100<250 300.166>
CounterMasks: 1 0e
LayerCount: 2
Fore
SplineSet
150 400 m 0xee
 225 400 250 325 250 325 c 1
 250 325 275 400 350 400 c 0xde
 425 400 500.318359375 320.036132812 500 225 c 2
 500 175 l 1
 300 175 l 1
 300 150 l 2
 300 125 325 100 350 100 c 2
 400 100 l 1
 500 100 l 1
 500 50 425 0 350 0 c 0
 275 0 250 75 250 75 c 1
 250 75 225 0 150 0 c 0
 75 0 0 98.341796875 0 175 c 2
 0 225 l 2
 0 300 75 400 150 400 c 0xee
350 325 m 0
 325 325 300 300 300 275 c 2
 300 250 l 1
 400 250 l 1
 400 275 l 2
 400 300 375 325 350 325 c 0
200 150 m 2
 200 250 l 2
 200 284.577148438 175 300 150 300 c 0xee
 125 300 100 275 100 250 c 2
 100 150 l 2
 100 119.08203125 125 100 150 100 c 0
 175 100 200 125 200 150 c 2
EndSplineSet
Validated: 33
EndChar

StartChar: Eng
Encoding: 330 330 281
Width: 400
VWidth: 960
Flags: W
HStem: -100 100<100 179.329> 400 100<100 179.329>
VStem: 0 100<100 400> 200 100<20.6714 379.329>
LayerCount: 2
Fore
SplineSet
200 75 m 2
 200 325 l 2
 200 381.76171875 175 400 125 400 c 2
 100 400 l 1
 100 100 l 1
 0 100 l 1
 0 500 l 1
 100 500 l 2
 225 500 300 424.999023438 300 300 c 2
 300 100 l 2
 300 -24.9990234375 225 -100 100 -100 c 1
 100 0 l 1
 125 0 l 2
 175 0 200 18.23828125 200 75 c 2
EndSplineSet
Validated: 1
EndChar

StartChar: eng
Encoding: 331 331 282
Width: 400
VWidth: 960
Flags: W
HStem: -100 100<100 179.329> 300 100<100 179.329>
VStem: 0 100<100 300> 200 100<20.6714 279.329>
LayerCount: 2
Fore
SplineSet
200 75 m 2
 200 225 l 2
 200 281.76171875 175 300 125 300 c 2
 100 300 l 1
 100 100 l 1
 0 100 l 1
 0 400 l 1
 100 400 l 2
 225 400 300 324.999023438 300 200 c 2
 300 100 l 2
 300 -24.9990234375 225 -100 100 -100 c 1
 100 0 l 1
 125 0 l 2
 175 0 200 18.23828125 200 75 c 2
EndSplineSet
Validated: 1
EndChar

StartChar: kgreenlandic
Encoding: 312 312 283
Width: 400
VWidth: 960
Flags: W
HStem: 0 21G<0 100 200 300> 0 21G<0 100 200 300> 380 20G<0 100 200 300>
VStem: 0 100<0 150 250 400> 200 100<0.0182194 88.0303 311.97 400>
LayerCount: 2
Fore
SplineSet
0 0 m 1xb8
 0 400 l 1
 100 400 l 1
 100 250 l 1
 125 250 l 1
 175 300 200 325 200 350 c 2
 200 400 l 1
 300 400 l 1
 300 350 l 2
 300 308.333007812 200 200 200 200 c 1
 200 200 300 91.6669921875 300 50 c 2
 300 0 l 1
 200 0 l 1
 200 0 200.534179688 25.005859375 200 50 c 0
 199.375976562 79.189453125 175 100 125 150 c 1
 100 150 l 1
 100 0 l 1
 0 0 l 1xb8
EndSplineSet
Validated: 33
EndChar

StartChar: Lslash
Encoding: 321 321 284
Width: 500
VWidth: 960
Flags: W
HStem: 0 100<200 400> 380 20G<200 300> 480 20G<100 200>
VStem: 100 100<100 213.889 386.111 500>
LayerCount: 2
Fore
SplineSet
100 500 m 1
 200 500 l 1
 200 386.111328125 l 1
 225 400 l 1
 300 400 l 1
 300 325 l 1
 200 269.4453125 l 1
 200 100 l 1
 400 100 l 1
 400 0 l 1
 100 0 l 1
 100 213.888671875 l 1
 75 200 l 1
 0 200 l 1
 0 275 l 1
 100 330.5546875 l 1
 100 500 l 1
EndSplineSet
Validated: 1
EndChar

StartChar: lslash
Encoding: 322 322 285
Width: 400
VWidth: 960
Flags: W
HStem: 0 21G<100 200> 0 21G<100 200> 380 20G<200 300> 480 20G<100 200>
VStem: 100 100<0 213.889 386.111 500>
LayerCount: 2
Fore
SplineSet
100 500 m 1xb8
 200 500 l 1
 200 386.111328125 l 1
 225 400 l 1
 300 400 l 1
 300 325 l 1
 200 269.4453125 l 1
 200 0 l 1
 100 0 l 1
 100 213.888671875 l 1
 75 200 l 1
 0 200 l 1
 0 275 l 1
 100 330.5546875 l 1
 100 500 l 1xb8
EndSplineSet
Validated: 1
EndChar

StartChar: longs
Encoding: 383 383 289
Width: 300
VWidth: 960
Flags: W
HStem: 0 21G<0 100> 0 21G<0 100> 400 100<115.13 200>
VStem: 0 100<0 382.15>
LayerCount: 2
Fore
SplineSet
100 0 m 1xb0
 0 0 l 1
 0 300 l 2
 0 400 75 500 150 500 c 2
 200 500 l 1
 200 400 l 1
 150 400 l 2
 125 400 100 375 100 350 c 2
 100 0 l 1xb0
EndSplineSet
Validated: 1
EndChar

StartChar: lacute
Encoding: 314 314 290
Width: 300
VWidth: 960
Flags: W
HStem: 0 21G<0 100> 0 21G<0 100> 380 20G<0 100> 425 175
VStem: 0 100<0 400> 0 200
LayerCount: 2
Fore
SplineSet
0 0 m 1xb8
 0 400 l 1
 100 400 l 1
 100 0 l 1
 0 0 l 1xb8
EndSplineSet
Refer: 129 180 N 1 0 0 1 0 0 2
Validated: 1
EndChar

StartChar: jcircumflex
Encoding: 309 309 291
Width: 300
VWidth: 960
Flags: HW
HStem: -100 100<0 84.8701> 325 175
VStem: 100 100<17.8497 300>
LayerCount: 2
Fore
SplineSet
100 300 m 1
 200 300 l 1
 200 100 l 2
 200 0 125 -100 50 -100 c 2
 0 -100 l 1
 0 0 l 1
 50 0 l 2
 75 0 100 25 100 50 c 2
 100 300 l 1
EndSplineSet
Refer: 228 770 S 1 0 0 1 0 -100 2
EndChar

StartChar: Hbar
Encoding: 294 294 292
Width: 400
VWidth: 960
Flags: W
HStem: 0 21G<0 100 200 300> 0 21G<0 100 200 300> 200 100<100 200> 375 100<100 200> 480 20G<0 100 200 300>
VStem: 0 100<0 200 300 375 475 500> 200 100<0 200 300 375 475 500>
LayerCount: 2
Fore
SplineSet
0 500 m 1xbe
 100 500 l 1
 100 475 l 1
 200 475 l 1
 200 500 l 1
 300 500 l 1
 300 0 l 1
 200 0 l 1
 200 200 l 1
 100 200 l 1
 100 0 l 1
 0 0 l 1
 0 500 l 1xbe
100 375 m 1
 100 300 l 1
 200 300 l 1
 200 375 l 1
 100 375 l 1
EndSplineSet
Validated: 1
EndChar

StartChar: hbar
Encoding: 295 295 293
Width: 400
VWidth: 960
Flags: W
HStem: 0 21G<0 100 200 300> 0 21G<0 100 200 300> 200 100<100 179.329> 400 75<100 300> 480 20G<0 100>
VStem: 0 100<0 200 300 400 475 500> 200 100<0 179.329>
LayerCount: 2
Fore
SplineSet
0 0 m 1xbe
 0 500 l 1
 100 500 l 1
 100 475 l 1
 300 475 l 1
 300 400 l 1
 100 400 l 1
 100 300 l 1
 225 300 300 224.999023438 300 100 c 2
 300 0 l 1
 200 0 l 1
 200 125 l 2
 200 181.76171875 175 200 125 200 c 2
 100 200 l 1
 100 0 l 1
 0 0 l 1xbe
EndSplineSet
Validated: 1
EndChar

StartChar: Tbar
Encoding: 358 358 294
Width: 400
VWidth: 960
Flags: W
HStem: 0 21G<100 200> 0 21G<100 200> 200 75<0 100 200 300> 400 100<0 100 200 300>
VStem: 100 100<0 200 275 400>
LayerCount: 2
Fore
SplineSet
0 500 m 1xb8
 300 500 l 1
 300 400 l 1
 200 400 l 1
 200 275 l 1
 300 275 l 1
 300 200 l 1
 200 200 l 1
 200 0 l 1
 100 0 l 1
 100 200 l 1
 0 200 l 1
 0 275 l 1
 100 275 l 1
 100 400 l 1
 0 400 l 1
 0 500 l 1xb8
EndSplineSet
Validated: 1
EndChar

StartChar: tbar
Encoding: 359 359 295
Width: 300
VWidth: 960
Flags: W
HStem: 0 100<115.13 200> 200 100<100 200> 400 75<100 200> 480 20G<0 100>
VStem: 0 200<88.3873 100 200 300 400 475> 0 100<115.13 200 300 400 475 500>
LayerCount: 2
Fore
SplineSet
0 500 m 1xf4
 100 500 l 1
 100 475 l 1xf4
 200 475 l 1
 200 400 l 1xf8
 100 400 l 1
 100 300 l 1xf4
 200 300 l 1
 200 200 l 1xf8
 100 200 l 1
 100 150 l 2xf4
 100 125 125 100 150 100 c 2
 200 100 l 1
 200 0 l 1xf8
 150 0 l 2
 75 0 0 75 0 150 c 2
 0 500 l 1xf4
EndSplineSet
Validated: 1
EndChar

StartChar: uni0312
Encoding: 786 786 299
Width: 0
VWidth: 960
Flags: HW
HStem: 525 75<25 75>
AnchorPoint: "top" 0 400 mark 0
LayerCount: 2
Fore
SplineSet
25 525 m 1
 25 525 0 525 0 550 c 0
 0 575 25 600 25 600 c 1
 75 600 l 1
 75 575 l 1
 75 575 100 575 100 550 c 0
 100 525 75 525 75 525 c 1
 25 525 l 1
EndSplineSet
EndChar

StartChar: uni0326
Encoding: 806 806 300
Width: 0
VWidth: 960
Flags: HW
HStem: -100 75<25 75>
AnchorPoint: "bottom" 0 0 mark 0
LayerCount: 2
Fore
SplineSet
75 -25 m 1
 75 -25 100 -25 100 -50 c 0
 100 -75 75 -100 75 -100 c 1
 25 -100 l 1
 25 -75 l 1
 25 -75 0 -75 0 -50 c 0
 0 -25 25 -25 25 -25 c 1
 75 -25 l 1
EndSplineSet
EndChar

StartChar: uni1D21
Encoding: 7457 7457 333
Width: 600
VWidth: 960
Flags: W
HStem: 0 21G<0 95 405 500> 0 21G<0 95 405 500> 380 20G<0 100 400 500>
VStem: 0 100<150 400> 400 100<150 400>
LayerCount: 2
Fore
SplineSet
500 400 m 1xb8
 500 0 l 1
 425 0 l 1
 250 175 l 1
 75 0 l 1
 0 0 l 1
 0 400 l 1
 100 400 l 1
 100 150 l 1
 225 275 l 1
 275 275 l 1
 400 150 l 1
 400 400 l 1
 500 400 l 1xb8
EndSplineSet
Validated: 1
EndChar

StartChar: uni1D22
Encoding: 7458 7458 334
Width: 400
VWidth: 960
Flags: W
HStem: 0 100<75 300> 300 100<0 150>
LayerCount: 2
Fore
SplineSet
300 400 m 1
 300 325 l 1
 75 100 l 1
 300 100 l 1
 300 0 l 1
 0 0 l 1
 0 150 l 1
 150 300 l 1
 0 300 l 1
 0 400 l 1
 300 400 l 1
EndSplineSet
Validated: 1
EndChar

StartChar: uni1D1B
Encoding: 7451 7451 339
Width: 400
VWidth: 960
Flags: W
HStem: 0 21G<100 200> 0 21G<100 200> 300 100<0 100 200 300>
VStem: 100 100<0 300>
LayerCount: 2
Fore
SplineSet
0 400 m 1xb0
 300 400 l 1
 300 300 l 1
 200 300 l 1
 200 0 l 1
 100 0 l 1
 100 300 l 1
 0 300 l 1
 0 400 l 1xb0
EndSplineSet
Validated: 1
EndChar

StartChar: uniA731
Encoding: 42801 42801 343
Width: 400
VWidth: 1200
Flags: W
HStem: 0 75<85.9888 184.866> 175 75<101.123 186.095> 325 75<115.13 219.104>
VStem: 0 100<253.31 309.663> 200 100<90.2949 160.725>
LayerCount: 2
Fore
SplineSet
200 325 m 1
 150 325 l 2
 125 325 100 300 100 275 c 0
 100 250 125 250 150 250 c 2
 225 250 l 2
 275 250 300 175 300 125 c 0
 300 50 224.987304688 -1.3759765625 150 0 c 0
 53.8251953125 1.7646484375 0 25 0 75 c 1
 100 75 l 1
 150 75 l 2
 175 75 200 100 200 125 c 0
 200 150 175 175 150 175 c 2
 75 175 l 2
 25 175 0 225 0 275 c 0
 0 350 75 400 150 400 c 0
 250 400 300 375 300 325 c 1
 200 325 l 1
EndSplineSet
Validated: 33
EndChar

StartChar: uni0280
Encoding: 640 640 347
Width: 400
VWidth: 960
Flags: W
HStem: 0 21G<0 100 205 300> 0 21G<0 100 205 300> 300 100<100 159.87>
VStem: 0 100<0 100 200 300> 175 100<213.943 285.483>
LayerCount: 2
Fore
SplineSet
0 400 m 1xb8
 100 400 l 1
 125 400 l 2
 200 400 275 325 275 250 c 0
 275 206.9296875 250.243164062 163.887695312 214.978515625 135.021484375 c 1
 300 50 l 1
 300 0 l 1
 225 0 l 1
 125 100 l 1
 100 100 l 1
 100 0 l 1
 0 0 l 1
 0 400 l 1xb8
100 300 m 1
 100 200 l 1
 125 200 l 2
 150 200 175 225 175 250 c 0
 175 275 150 300 125 300 c 2
 100 300 l 1
EndSplineSet
Validated: 1
EndChar

StartChar: uni0262
Encoding: 610 610 351
Width: 400
VWidth: 960
Flags: W
HStem: 0 75<115.13 200> 300 100<114.517 198.655>
VStem: 0 100<91.7702 284.87> 175 125<125 200> 200 100<75 125 275 295.414>
LayerCount: 2
Fore
SplineSet
175 200 m 1xf0
 300 200 l 1xf0
 300 0 l 1
 150 0 l 2
 75 0 0 50 0 125 c 2
 0 250 l 2
 0 325 75 400 150 400 c 0
 225 400 300 350 300 275 c 1
 200 275 l 1
 200 300 175 300 150 300 c 0
 125 300 100 275 100 250 c 2
 100 125 l 2
 100 100 125 75 150 75 c 2
 200 75 l 1
 200 125 l 1xe8
 175 125 l 1
 175 200 l 1xf0
EndSplineSet
Validated: 1
EndChar

StartChar: uni029C
Encoding: 668 668 356
Width: 400
VWidth: 960
Flags: W
HStem: 0 21G<0 100 200 300> 0 21G<0 100 200 300> 175 100<100 200> 380 20G<0 100 200 300>
VStem: 0 100<0 175 275 400> 200 100<0 175 275 400>
LayerCount: 2
Fore
SplineSet
0 400 m 1xbc
 100 400 l 1
 100 275 l 1
 200 275 l 1
 200 400 l 1
 300 400 l 1
 300 0 l 1
 200 0 l 1
 200 175 l 1
 100 175 l 1
 100 0 l 1
 0 0 l 1
 0 400 l 1xbc
EndSplineSet
Validated: 1
EndChar

StartChar: uni1D0A
Encoding: 7434 7434 358
Width: 300
VWidth: 960
Flags: W
HStem: 0 100<0 84.8701> 380 20G<100 200>
VStem: 100 100<115.13 400>
LayerCount: 2
Fore
SplineSet
100 400 m 1
 200 400 l 1
 200 150 l 2
 200 75 125 0 50 0 c 2
 0 0 l 1
 0 100 l 1
 50 100 l 2
 75 100 100 125 100 150 c 2
 100 400 l 1
EndSplineSet
Validated: 1
EndChar

StartChar: uni029F
Encoding: 671 671 359
Width: 400
VWidth: 960
Flags: W
HStem: 0 100<100 300> 380 20G<0 100>
VStem: 0 100<100 400>
LayerCount: 2
Fore
SplineSet
100 400 m 1
 100 100 l 1
 300 100 l 1
 300 0 l 1
 0 0 l 1
 0 400 l 1
 100 400 l 1
EndSplineSet
Validated: 1
EndChar

StartChar: uni1D18
Encoding: 7448 7448 361
Width: 400
VWidth: 960
Flags: W
HStem: 0 21G<0 100> 0 21G<0 100> 100 100<100 184.87> 300 100<100 184.87>
VStem: 0 100<0 100 200 300> 200 100<214.517 285.483>
LayerCount: 2
Fore
SplineSet
0 0 m 1xbc
 0 400 l 1
 100 400 l 1
 150 400 l 2
 225 400 300 325 300 250 c 0
 300 175 225 100 150 100 c 2
 100 100 l 1
 100 0 l 1
 0 0 l 1xbc
100 300 m 1
 100 200 l 1
 150 200 l 2
 175 200 200 225 200 250 c 0
 200 275 175 300 150 300 c 2
 100 300 l 1
EndSplineSet
Validated: 1
EndChar

StartChar: colonmonetary
Encoding: 8353 8353 362
Width: 600
VWidth: 960
Flags: W
HStem: 0 100<115.13 150 225 300> 400 100<115.13 150 225 300>
VStem: 0 100<115.13 384.87> 150 75<-100 0 100 400 500 600> 300 75<-100 0 101.119 398.881 500 600>
LayerCount: 2
Fore
SplineSet
150 600 m 1
 225 600 l 1
 225 500 l 1
 300 500 l 1
 300 600 l 1
 375 600 l 1
 375 498.1328125 l 1
 440.799804688 488.495117188 500 441.629882812 500 375 c 1
 400 375 l 1
 400 391.29296875 389.317382812 396.904296875 375 398.880859375 c 1
 375 101.119140625 l 1
 389.317382812 103.095703125 400 108.70703125 400 125 c 1
 500 125 l 1
 500 58.3701171875 440.799804688 11.5048828125 375 1.8671875 c 1
 375 -100 l 1
 300 -100 l 1
 300 0 l 1
 225 0 l 1
 225 -100 l 1
 150 -100 l 1
 150 0 l 1
 75 0 0 75 0 150 c 2
 0 350 l 2
 0 425 75 500 150 500 c 1
 150 600 l 1
150 400 m 1
 125 400 100 375 100 350 c 2
 100 150 l 2
 100 125 125 100 150 100 c 1
 150 400 l 1
225 400 m 1
 225 100 l 1
 300 100 l 1
 300 400 l 1
 225 400 l 1
EndSplineSet
Validated: 1
EndChar

StartChar: uni20A2
Encoding: 8354 8354 363
Width: 500
VWidth: 960
Flags: W
HStem: 0 100<115.13 150 250 298.434> 200 100<265.13 400> 400 100<115.13 298.434>
VStem: 0 100<115.13 384.87> 150 100<100 184.87>
CounterMasks: 1 e0
LayerCount: 2
Fore
SplineSet
150 500 m 2
 250 500 l 2
 325 500 400 450 400 375 c 1
 300 375 l 1
 300 400 275 400 250 400 c 2
 150 400 l 2
 125 400 100 375 100 350 c 2
 100 150 l 2
 100 125 125 100 150 100 c 1
 150 150 l 2
 150 225 225.000976562 300 300 300 c 2
 400 300 l 1
 400 200 l 1
 300 200 l 2
 275 200 250 175 250 150 c 2
 250 100 l 1
 275 100 300 100 300 125 c 1
 400 125 l 1
 400 50 325 0 250 0 c 2
 150 0 l 2
 75 0 0 75 0 150 c 2
 0 350 l 2
 0 425 75 500 150 500 c 2
EndSplineSet
Validated: 1
EndChar

StartChar: franc
Encoding: 8355 8355 364
Width: 500
VWidth: 960
Flags: W
HStem: 0 21G<100 200> 0 21G<100 200> 100 100<0 100 200 300> 275 75<200 325> 425 75<200 400>
VStem: 100 100<0 100 200 275 350 425>
LayerCount: 2
Fore
SplineSet
100 500 m 1xbc
 400 500 l 1
 400 425 l 1
 200 425 l 1
 200 350 l 1
 325 350 l 1
 325 275 l 1
 200 275 l 1
 200 200 l 1
 300 200 l 1
 300 100 l 1
 200 100 l 1
 200 0 l 1
 100 0 l 1
 100 100 l 1
 0 100 l 1
 0 200 l 1
 100 200 l 1
 100 500 l 1xbc
EndSplineSet
Validated: 1
EndChar

StartChar: lira
Encoding: 8356 8356 365
Width: 400
VWidth: 960
Flags: W
HStem: 0.636719 100.043<100 300> 175 75<100 275> 325 75<100 275> 500 100<115.13 198.434>
VStem: 0 100<100.68 175 250 325 400 484.522>
LayerCount: 2
Fore
SplineSet
150 600 m 0
 225 600 300 550 300 475 c 1
 200 475 l 1
 199.375976562 494.024414062 198.208007812 501.12890625 150 500 c 0
 125 500 100 475.63671875 100 450.63671875 c 2
 100 400 l 1
 275 400 l 1
 275 325 l 1
 100 325 l 1
 100 250 l 1
 275 250 l 1
 275 175 l 1
 100 175 l 1
 100 100.6796875 l 1
 300 100.04296875 l 1
 300 0 l 1
 0 0.63671875 l 1
 0 100 l 1
 0 400 l 1
 0 425.63671875 l 2
 0 500.63671875 75 600 150 600 c 0
300 0 m 1
 300 25 l 1
 300 0 l 1
EndSplineSet
Validated: 37
EndChar

StartChar: uni20A6
Encoding: 8358 8358 366
Width: 500
VWidth: 960
Flags: W
HStem: 0 21G<0 100 300 400> 0 21G<0 100 300 400> 75 75<100 300> 225 75<100 225>
VStem: 0 100<0 75 150 225 300 425> 300 100<25 75 150 225 350 600>
LayerCount: 2
Fore
SplineSet
300 0 m 1xbc
 300 25 l 1
 300 0 l 1xbc
300 0 m 1
 300 25 l 1
 300 0 l 1
300 0 m 1
 300 25 l 1
 300 0 l 1
300 0 m 1
 300 25 l 1
 300 0 l 1
300 0 m 1
 300 25 l 1
 300 0 l 1
300 0 m 1
 300 25 l 1
 300 0 l 1
300 0 m 1
 300 25 l 1
 300 0 l 1
300 0 m 1
 300 25 l 1
 300 0 l 1
300 0 m 1
 300 25 l 1
 300 0 l 1
300 0 m 1
 300 25 l 1
 300 0 l 1
300 0 m 1
 300 25 l 1
 300 0 l 1
300 0 m 1
 300 25 l 1
 300 0 l 1
300 0 m 1
 300 25 l 1
 300 0 l 1
300 0 m 1
 300 25 l 1
 300 0 l 1
300 0 m 1
 300 25 l 1
 300 0 l 1
300 0 m 1
 300 25 l 1
 300 0 l 1
0 600 m 1
 50 600 l 1
 300 350 l 1
 300 600 l 1
 400 600 l 1
 400 150 l 1
 400 75 l 1
 400 0 l 1
 300 0 l 1
 300 75 l 1
 100 75 l 1
 100 0 l 1
 0 0 l 1
 0 75 l 1
 0 150 l 1
 0 225 l 1
 0 300 l 1
 0 600 l 1
100 425 m 1
 100 300 l 1
 225 300 l 1
 100 425 l 1
100 225 m 1
 100 150 l 1
 300 150 l 1
 300 225 l 1
 100 225 l 1
EndSplineSet
Validated: 5
EndChar

StartChar: uni20A5
Encoding: 8357 8357 367
Width: 600
VWidth: 960
Flags: W
HStem: 0 21G<0 100 200 300 400 500> 0 21G<0 100 200 300 400 500> 100 100<0 500> 300 100<100 175 268.144 400>
VStem: 0 100<0 100 200 300> 200 100<0 293.047> 400 100<0 281.762>
CounterMasks: 1 0e
LayerCount: 2
Fore
SplineSet
0 400 m 1xbe
 100 400 l 2
 225 400 300 325 300 200 c 2
 300 0 l 1
 200 0 l 1
 200 225 l 2
 200 281.76171875 175 300 125 300 c 2
 100 300 l 1
 100 0 l 1
 0 0 l 1
 0 400 l 1xbe
200 300 m 1
 200 300 197.575195312 398.596679688 300 400 c 0
 425 400 500 325 500 200 c 2
 500 0 l 1
 400 0 l 1
 400 225 l 2
 400 281.76171875 375 300 350 300 c 0
 325 300 300 275 300 225 c 2
 300 0 l 1
 200 0 l 1
 200 300 l 1
0 100 m 1
 0 200 l 1
 500 200 l 1
 500 100 l 1
 0 100 l 1
0 400 m 1
 100 400 l 2
 149.09375 400 190.431640625 388.384765625 222.5859375 366.76171875 c 1
 237.092773438 384.7421875 260.884765625 399.463867188 300 400 c 0
 425 400 500 324.999023438 500 200 c 2
 500 0 l 1
 400 0 l 1
 400 100 l 1
 300 100 l 1
 300 0 l 1
 200 0 l 1
 200 100 l 1
 100 100 l 1
 100 0 l 1
 0 0 l 1
 0 100 l 1
 0 200 l 1
 0 400 l 1
100 300 m 1
 100 200 l 1
 200 200 l 1
 200 225 l 2
 200 281.76171875 175 300 125 300 c 2
 100 300 l 1
350 300 m 0
 325 300 300 275 300 225 c 2
 300 200 l 1
 400 200 l 1
 400 225 l 2
 400 281.76171875 375 300 350 300 c 0
EndSplineSet
Validated: 37
EndChar

StartChar: peseta
Encoding: 8359 8359 368
Width: 500
VWidth: 960
Flags: W
HStem: 0 21G<100 200> 0 21G<100 200> 100 100<200 284.87> 300 100<0 100 200 300> 500 100<200 284.87>
VStem: 100 100<0 100 200 300 400 500> 300 100<215.13 300 400 484.87>
LayerCount: 2
Fore
SplineSet
100 600 m 1xbe
 200 600 l 1
 250 600 l 2
 325 600 400 525 400 450 c 2
 400 400 l 1
 400 300 l 1
 400 250 l 2
 400 175 325 100 250 100 c 2
 200 100 l 1
 200 0 l 1
 100 0 l 1
 100 250 l 1
 100 300 l 1
 0 300 l 1
 0 400 l 1
 100 400 l 1
 100 450 l 1
 100 600 l 1xbe
200 500 m 1
 200 450 l 1
 200 400 l 1
 300 400 l 1
 300 450 l 2
 300 475 275 500 250 500 c 2
 200 500 l 1
200 300 m 1
 200 250 l 1
 200 200 l 1
 250 200 l 2
 275 200 300 225 300 250 c 2
 300 300 l 1
 200 300 l 1
EndSplineSet
Validated: 1
EndChar

StartChar: uni20A8
Encoding: 8360 8360 369
Width: 800
VWidth: 960
Flags: W
HStem: 0 75<485.989 584.866> 175 75<501.123 586.095> 200 100<100 163.898> 325 75<515.13 619.104> 500 100<100 184.87>
VStem: 0 100<0 200 300 500> 200 100<0 147.622 315.034 484.87> 400 100<253.31 309.663> 600 100<90.2949 160.725>
LayerCount: 2
Fore
SplineSet
600 325 m 1xdf80
 550 325 l 2
 525 325 500 300 500 275 c 0
 500 250 525 250 550 250 c 2
 625 250 l 2
 675 250 700 175 700 125 c 0
 700 50 624.987304688 -1.3759765625 550 0 c 0
 453.825195312 1.7646484375 400 25 400 75 c 1
 500 75 l 1
 550 75 l 2
 575 75 600 100 600 125 c 0
 600 150 575 175 550 175 c 2
 475 175 l 2
 425 175 400 225 400 275 c 0
 400 350 475 400 550 400 c 0
 650 400 700 375 700 325 c 1
 600 325 l 1xdf80
0 600 m 1
 100 600 l 1
 150 600 l 2
 225 600 300 525 300 450 c 2
 300 350 l 2
 300 308.208007812 276.680664062 266.452148438 243.08203125 237.63671875 c 1
 284.896484375 171.064453125 300 116.397460938 300 0 c 1
 200 0 l 1
 200 75 200 150 150 200 c 1
 100 200 l 1xbf80
 100 0 l 1
 0 0 l 1
 0 350 l 1
 0 450 l 1
 0 600 l 1
100 500 m 1
 100 450 l 1
 100 350 l 1
 100 300 l 1
 150 300 l 2
 175 300 200 325 200 350 c 2
 200 450 l 2
 200 475 175 500 150 500 c 2
 100 500 l 1
EndSplineSet
Validated: 33
EndChar

StartChar: uni20A9
Encoding: 8361 8361 370
Width: 600
VWidth: 960
Flags: W
HStem: 0 21G<0 95 405 500> 0 21G<0 95 405 500> 300 75<100 400> 450 75<100 400>
VStem: 0 100<150 300 375 450 525 600> 400 100<150 300 375 450 525 600>
LayerCount: 2
Fore
SplineSet
0 600 m 1xbc
 100 600 l 1
 100 525 l 1
 400 525 l 1
 400 600 l 1
 500 600 l 1
 500 525 l 1
 500 450 l 1
 500 0 l 1
 425 0 l 1
 250 175 l 1
 75 0 l 1
 0 0 l 1
 0 300 l 1
 0 375 l 1
 0 450 l 1
 0 525 l 1
 0 600 l 1xbc
100 450 m 1
 100 375 l 1
 400 375 l 1
 400 450 l 1
 100 450 l 1
100 300 m 1
 100 150 l 1
 225 275 l 1
 275 275 l 1
 400 150 l 1
 400 300 l 1
 100 300 l 1
EndSplineSet
Validated: 1
EndChar

StartChar: uni20AA
Encoding: 8362 8362 371
Width: 800
VWidth: 960
Flags: W
HStem: 0 100<300 532.288> 380 20G<200 300> 500 100<100 332.288>
VStem: 0 100<0 500> 200 100<100 400> 400 100<200 432.288> 600 100<167.712 600>
LayerCount: 2
Fore
SplineSet
0 0 m 1
 0 600 l 1
 250 600 l 2
 400 600 500 496.76171875 500 350 c 2
 500 200 l 1
 400 200 l 1
 400 350 l 2
 400 450 350 500 250 500 c 2
 100 500 l 1
 100 0 l 1
 0 0 l 1
200 400 m 1
 300 400 l 1
 300 100 l 1
 450 100 l 2
 550 100 600 150 600 250 c 2
 600 600 l 1
 700 600 l 1
 700 250 l 2
 700 103.23828125 600 0 450 0 c 2
 200 0 l 1
 200 400 l 1
EndSplineSet
Validated: 1
EndChar

StartChar: dong
Encoding: 8363 8363 372
Width: 500
VWidth: 960
Flags: W
HStem: 0 100<106.953 200> 200 100<106.953 200> 400 100<0 200 300 400>
VStem: 0 100<107.26 192.74> 200 100<100 200 300 400 500 600>
CounterMasks: 1 e0
LayerCount: 2
Fore
SplineSet
200 600 m 1
 300 600 l 1
 300 500 l 1
 400 500 l 1
 400 400 l 1
 300 400 l 1
 300 300 l 1
 300 0 l 1
 200 0 l 2
 75 0 0 25 0 150 c 0
 0 275 75 300 200 300 c 1
 200 400 l 1
 0 400 l 1
 0 500 l 1
 200 500 l 1
 200 600 l 1
175 200 m 2
 125 200 100 200 100 150 c 0
 100 100 125 100 175 100 c 2
 200 100 l 1
 200 200 l 1
 175 200 l 2
EndSplineSet
Validated: 1
EndChar

StartChar: Euro
Encoding: 8364 8364 373
Width: 500
VWidth: 960
Flags: W
HStem: 0 100<214.517 298.655> 175 75<0 100 200 300> 325 75<0 100 200 350> 500 100<214.517 298.655>
VStem: 100 100<115.13 175 250 325 400 484.87>
LayerCount: 2
Fore
SplineSet
250 600 m 0
 325 600 400 550 400 475 c 1
 300 475 l 1
 300 500 275 500 250 500 c 0
 225 500 200 475 200 450 c 2
 200 400 l 1
 350 400 l 1
 350 325 l 1
 200 325 l 1
 200 250 l 1
 300 250 l 1
 300 175 l 1
 200 175 l 1
 200 150 l 2
 200 125 225 100 250 100 c 0
 275 100 300 100 300 125 c 1
 400 125 l 1
 400 50 325 0 250 0 c 0
 175 0 100 75 100 150 c 2
 100 175 l 1
 0 175 l 1
 0 250 l 1
 100 250 l 1
 100 325 l 1
 0 325 l 1
 0 400 l 1
 100 400 l 1
 100 450 l 2
 100 525 175 600 250 600 c 0
EndSplineSet
Validated: 1
EndChar

StartChar: uni20A0
Encoding: 8352 8352 374
Width: 600
VWidth: 960
Flags: W
HStem: 0 100<300 500> 175 100<115.13 200> 175 75<300 425> 325 75<300 500> 500 100<114.517 198.655>
VStem: 0 100<290.13 484.87> 200 100<100 175 275 325 475 495.414>
LayerCount: 2
Fore
SplineSet
150 600 m 0xde
 225 600 300 550 300 475 c 1
 200 475 l 1
 200 500 175 500 150 500 c 0
 125 500 100 475 100 450 c 2
 100 325 l 2
 100 300 125 275 150 275 c 2
 200 275 l 1xde
 200 400 l 1
 500 400 l 1
 500 325 l 1
 300 325 l 1
 300 250 l 1
 425 250 l 1
 425 175 l 1
 300 175 l 1xbe
 300 100 l 1
 500 100 l 1
 500 0 l 1
 300 0 l 1
 200 0 l 1
 200 175 l 1
 150 175 l 2
 75 175 0 250 0 325 c 2
 0 450 l 2
 0 525 75 600 150 600 c 0xde
EndSplineSet
Validated: 1
EndChar

StartChar: uni20AD
Encoding: 8365 8365 375
Width: 500
VWidth: 960
Flags: W
HStem: 0 21G<100 200 300 400> 0 21G<100 200 300 400> 300 100<0 100 310.775 400>
VStem: 100 100<0 300 400 600> 300 100<0 174.94 525.06 600>
LayerCount: 2
Fore
SplineSet
100 600 m 1xb8
 200 600 l 1
 200 400 l 1
 250 450 300 525 300 600 c 1
 400 600 l 1
 398.446289062 540.21875 365.034179688 478.069335938 310.775390625 400 c 1
 400 400 l 1
 400 300 l 1
 310.775390625 300 l 1
 365.034179688 221.930664062 398.446289062 159.78125 400 100 c 2
 400 0 l 1
 300 0 l 1
 300 100 l 2
 300 175 250 250 200 300 c 1
 200 0 l 1
 100 0 l 1
 100 300 l 1
 0 300 l 1
 0 400 l 1
 100 400 l 1
 100 600 l 1xb8
EndSplineSet
Validated: 1
EndChar

StartChar: uni20AE
Encoding: 8366 8366 376
Width: 400
VWidth: 960
Flags: W
HStem: 0 21G<100 200> 0 21G<100 200> 500 100<0 100 200 300>
VStem: 100 100<0 125 250 275 400 500>
LayerCount: 2
Fore
SplineSet
0 600 m 1xb0
 300 600 l 1
 300 500 l 1
 200 500 l 1
 200 400 l 1
 300 450 l 1
 300 375 l 1
 200 325 l 1
 200 250 l 1
 300 300 l 1
 300 225 l 1
 200 175 l 1
 200 0 l 1
 100 0 l 1
 100 125 l 1
 0 75 l 1
 0 150 l 1
 100 200 l 1
 100 275 l 1
 0 225 l 1
 0 300 l 1
 100 350 l 1
 100 500 l 1
 0 500 l 1
 0 600 l 1xb0
EndSplineSet
Validated: 1
EndChar

StartChar: uni20AF
Encoding: 8367 8367 377
Width: 800
VWidth: 960
Flags: W
HStem: 0 100<100 200 513.833 585.483> 300 100<514.517 585.483> 480 20G<125 175>
VStem: 0 100<100 206.368> 200 100<100 205.558> 400 100<-100 13.9316 113.905 283.984> 600 100<114.199 283.984>
LayerCount: 2
Fore
SplineSet
125 500 m 1
 175 500 l 1
 175 500 300 225 300 100 c 2
 300 0 l 1
 200 0 l 1
 100 0 l 1
 0 0 l 1
 0 100 l 2
 0 225 125 500 125 500 c 1
150 300 m 1
 119.961914062 271.92578125 100 145.055664062 100 100 c 1
 200 100 l 1
 200 150 175 275 150 300 c 1
550 400 m 0
 625 400 700 300 700 225 c 2
 700 175 l 2
 700 104.453125 625 0 550 0 c 0
 533.041015625 0 516.091796875 5.1513671875 500 13.931640625 c 1
 500 -100 l 1
 400 -100 l 1
 400 175 l 1
 400 200 l 1
 400 225 l 2
 400 300 475 400 550 400 c 0
550 300 m 0
 525 300 500 275 500 250 c 2
 500 200 l 1
 500 150 l 2
 500 125 525 100 550 100 c 0
 575 100 600 125 600 150 c 2
 600 250 l 2
 600 275 575 300 550 300 c 0
EndSplineSet
Validated: 1
EndChar

StartChar: uni20B0
Encoding: 8368 8368 378
Width: 500
VWidth: 960
Flags: W
HStem: -100 100<201.345 285.483> 100 100<0 50> 500 100<214.517 298.48>
VStem: 100 100<4.58603 25 390.325 484.87> 300 100<15.1299 207.929 450 495.414>
LayerCount: 2
Fore
SplineSet
250 600 m 0
 325 600 400 550 400 475 c 2
 400 400 l 1
 308.322265625 308.322265625 l 1
 356.174804688 273.376953125 401.485351562 233.264648438 400 150 c 2
 400 50 l 2
 400 -25 325 -100 250 -100 c 0
 175 -100 100 -50 100 25 c 1
 200 25 l 1
 200 0 225 0 250 0 c 0
 275 0 300 25 300 50 c 2
 300 150 l 2
 298.452148438 194.88671875 276.98046875 224.044921875 248.673828125 248.673828125 c 1
 100 100 l 1
 0 100 l 1
 0 200 l 1
 50 200 l 1
 163.5859375 313.5859375 l 1
 127.561523438 344.420898438 98.8115234375 383.413085938 100 450 c 0
 100 525 175 600 250 600 c 0
250 500 m 0
 225 500 200 475 200 450 c 0
 201.052734375 419.459960938 211.31640625 396.194335938 226.681640625 376.681640625 c 1
 300 450 l 1
 300 475 l 2
 299.806640625 496.626953125 275 500 250 500 c 0
EndSplineSet
Validated: 33
EndChar

StartChar: uni20B1
Encoding: 8369 8369 379
Width: 500
VWidth: 960
Flags: W
HStem: 0 21G<100 200> 0 21G<100 200> 75 100<200 284.87> 225 75<0 100 200 300 400 500> 375 75<0 100 200 300 400 500> 500 100<200 284.87>
VStem: 100 100<0 75 175 225 300 375 450 500> 300 100<190.13 225 300 375 450 484.87>
LayerCount: 2
Fore
SplineSet
100 600 m 1xbf
 200 600 l 1
 250 600 l 2
 325 600 400 525 400 450 c 1
 500 450 l 1
 500 375 l 1
 400 375 l 1
 400 300 l 1
 500 300 l 1
 500 225 l 1
 400 225 l 1
 400 150 325 75 250 75 c 2
 200 75 l 1
 200 0 l 1
 100 0 l 1
 100 225 l 1
 0 225 l 1
 0 300 l 1
 100 300 l 1
 100 375 l 1
 0 375 l 1
 0 450 l 1
 100 450 l 1
 100 600 l 1xbf
200 500 m 1
 200 450 l 1
 300 450 l 1
 300 475 275 500 250 500 c 2
 200 500 l 1
200 375 m 1
 200 300 l 1
 300 300 l 1
 300 375 l 1
 200 375 l 1
200 225 m 1
 200 175 l 1
 250 175 l 2
 275 175 300 200 300 225 c 1
 200 225 l 1
EndSplineSet
Validated: 1
EndChar

StartChar: uni20B2
Encoding: 8370 8370 380
Width: 600
VWidth: 960
Flags: W
HStem: 0 100<115.13 200 300 400> 400 100<115.13 200 300 398.434>
VStem: 0 100<115.13 384.87> 200 100<-100 0 100 400 500 600> 375 125<200 300> 400 100<100 200 375 395.414>
LayerCount: 2
Fore
SplineSet
200 600 m 1xf4
 300 600 l 1
 300 500 l 1
 350 500 l 2
 425 500 500 450 500 375 c 1
 400 375 l 1
 400 400 375 400 350 400 c 2
 300 400 l 1
 300 100 l 1
 350 100 l 1
 400 100 l 1
 400 200 l 1xf4
 375 200 l 1
 375 300 l 1
 500 300 l 1xf8
 500 0 l 1
 350 0 l 1
 300 0 l 1
 300 -100 l 1
 200 -100 l 1
 200 0 l 1
 150 0 l 2
 75 0 0 75 0 150 c 2
 0 350 l 2
 0 425 75 500 150 500 c 2
 200 500 l 1
 200 600 l 1xf4
150 400 m 2
 125 400 100 375 100 350 c 2
 100 150 l 2
 100 125 125 100 150 100 c 2
 200 100 l 1
 200 400 l 1
 150 400 l 2
EndSplineSet
Validated: 1
EndChar

StartChar: uni20B3
Encoding: 8371 8371 381
Width: 600
VWidth: 960
Flags: W
HStem: 0 21G<100 200 300 400> 0 21G<100 200 300 400> 100 100<0 100 200 300 400 500> 300 100<0 100 200 300 400 500>
VStem: 100 100<0 100 200 300 400 461.681> 300 100<0 100 200 300 400 458.971>
LayerCount: 2
Fore
SplineSet
200 600 m 1xbc
 300 600 l 1
 350 550 400 500 400 400 c 1
 500 400 l 1
 500 300 l 1
 400 300 l 1
 400 200 l 1
 500 200 l 1
 500 100 l 1
 400 100 l 1
 400 0 l 1
 300 0 l 1
 300 100 l 1
 200 100 l 1
 200 0 l 1
 100 0 l 1
 100 100 l 1
 0 100 l 1
 0 200 l 1
 100 200 l 1
 100 300 l 1
 0 300 l 1
 0 400 l 1
 100 400 l 1
 100 506.767578125 150 550 200 600 c 1xbc
250 500 m 1
 225 475 200 450 200 400 c 1
 300 400 l 1
 300 450 275 475 250 500 c 1
200 300 m 1
 200 200 l 1
 300 200 l 1
 300 300 l 1
 200 300 l 1
EndSplineSet
Validated: 1
EndChar

StartChar: uni20B4
Encoding: 8372 8372 382
Width: 600
VWidth: 960
Flags: W
HStem: 0 100<214.517 298.655> 175 75<0 101.18 252.877 500> 325 75<0 214.75 394.283 500> 500 100<201.52 285.483>
VStem: 100 100<115.13 175 475 495.414> 300 100<104.586 125 400.695 484.87>
LayerCount: 2
Fore
SplineSet
250 600 m 0
 325 600 400 525 400 450 c 0
 400.333984375 431.2578125 398.18359375 414.807617188 394.283203125 400 c 1
 500 400 l 1
 500 325 l 1
 348.970703125 325 l 1
 319.52734375 296.329101562 282.631835938 275.5 252.876953125 250 c 1
 500 250 l 1
 500 175 l 1
 203.203125 175 l 1
 201.422851562 167.224609375 200.307617188 158.930664062 200 150 c 0
 200 125 225 100 250 100 c 0
 275 100 300 100 300 125 c 1
 400 125 l 1
 400 50 325 0 250 0 c 0
 175 0 100 75 100 150 c 0
 99.841796875 158.842773438 100.3359375 167.083984375 101.1796875 175 c 1
 0 175 l 1
 0 250 l 1
 129.220703125 250 l 1
 151.788085938 281.341796875 184.200195312 302.993164062 214.75 325 c 1
 0 325 l 1
 0 400 l 1
 287.912109375 400 l 1
 294.895507812 414.37890625 299.334960938 430.701171875 300 450 c 0
 300 475 275 500 250 500 c 0
 225 500 200.193359375 496.626953125 200 475 c 1
 100 475 l 1
 100 550 175 600 250 600 c 0
EndSplineSet
Validated: 33
EndChar

StartChar: uni20B5
Encoding: 8373 8373 383
Width: 600
VWidth: 960
Flags: W
HStem: 0 100<115.13 200 300 398.434> 400 100<115.13 200 300 398.434>
VStem: 0 100<115.13 384.87> 200 100<-100 0 100 400 500 600>
LayerCount: 2
Fore
SplineSet
200 600 m 1
 300 600 l 1
 300 500 l 1
 350 500 l 2
 425 500 500 450 500 375 c 1
 400 375 l 1
 400 400 375 400 350 400 c 2
 300 400 l 1
 300 100 l 1
 350 100 l 2
 375 100 400 100 400 125 c 1
 500 125 l 1
 500 50 425 0 350 0 c 2
 300 0 l 1
 300 -100 l 1
 200 -100 l 1
 200 0 l 1
 150 0 l 2
 75 0 0 75 0 150 c 2
 0 350 l 2
 0 425 75 500 150 500 c 2
 200 500 l 1
 200 600 l 1
150 400 m 2
 125 400 100 375 100 350 c 2
 100 150 l 2
 100 125 125 100 150 100 c 2
 200 100 l 1
 200 400 l 1
 150 400 l 2
EndSplineSet
Validated: 1
EndChar

StartChar: uni20B6
Encoding: 8374 8374 384
Width: 600
VWidth: 960
Flags: W
HStem: 0 100<415.13 500> 300 100<0 100 200 300 400 500> 480 20G<100 200 300 400>
VStem: 100 100<0 300 400 500> 300 100<115.13 300 400 500>
LayerCount: 2
Fore
SplineSet
200 0 m 1
 100 0 l 1
 100 300 l 1
 0 300 l 1
 0 400 l 1
 100 400 l 1
 100 500 l 1
 200 500 l 1
 200 400 l 1
 300 400 l 1
 300 500 l 1
 400 500 l 1
 400 400 l 1
 500 400 l 1
 500 300 l 1
 400 300 l 1
 400 150 l 2
 400 125 425 100 450 100 c 2
 500 100 l 1
 500 0 l 1
 450 0 l 2
 375 0 300 75 300 150 c 2
 300 300 l 1
 200 300 l 1
 200 0 l 1
EndSplineSet
Validated: 1
EndChar

StartChar: uni20B7
Encoding: 8375 8375 385
Width: 600
VWidth: 960
Flags: W
HStem: 0 50<75 100 150 198.967 250 298.996> 100 50<75 100 150 183.879 225 283.52> 200 100<315.13 384.87> 400 100<314.517 398.48>
VStem: 0 50<52.1513 97.8487> 100 50<-50 0 50 100> 200 100<314.517 385.483> 200 50<-50 0 50 83.8707> 300 50<-50 0> 400 100<114.517 185.483 375 395.414>
LayerCount: 2
Fore
SplineSet
350 500 m 0xfcc0
 425 500 500 450 500 375 c 1
 400 375 l 1
 399.806640625 396.626953125 375 400 350 400 c 0xfcc0
 325 400 300 375 300 350 c 0xfe40
 300 325 325 300 350 300 c 0
 425 300 500 225 500 150 c 0
 500 75 425 0 350 0 c 1
 350 -50 l 1
 300 -50.013671875 l 1
 300 0 l 1
 250 0 l 1
 250 -50 l 1
 200 -50 l 1
 200 0 l 1
 150 0 l 1
 150 -50 l 1
 100 -50 l 1
 100 0 l 1
 75 0 l 1
 75 0 0 0 0 75 c 0
 0 150 75 150 75 150 c 1
 100 150 l 1
 177 150 l 0
 237.5 150 l 2
 287.969726562 150 321.432617188 121.689453125 337.939453125 87.939453125 c 1
 350 100 l 1
 375 100 400 125 400 150 c 0
 400 175 375 200 350 200 c 0xfdc0
 275 200 200 275 200 350 c 0xfe40
 200 425 275 500 350 500 c 0xfcc0
75 100 m 1
 75 100 50 100 50 75 c 0
 50 50 75 50 75 50 c 1
 100 50 l 1
 100 100 l 1
 75 100 l 1
150 100 m 1
 150 50 l 1
 198.966796875 50 l 1
 193.994140625 80.44140625 171.34375 100 150 100 c 1
225 100 m 1
 244.456054688 80.5439453125 248.73046875 64.8037109375 249.6875 50 c 1
 298.99609375 50 l 1
 294.1640625 80.431640625 272.098632812 99.974609375 250 99.986328125 c 2xfd40
 225 100 l 1
EndSplineSet
Validated: 1
EndChar

StartChar: uni20B8
Encoding: 8376 8376 386
Width: 400
VWidth: 960
Flags: W
HStem: 0 21G<100 200> 0 21G<100 200> 300 100<0 100 200 300> 500 100<0 300>
VStem: 100 100<0 300>
LayerCount: 2
Fore
SplineSet
0 400 m 1xb8
 300 400 l 1
 300 300 l 1
 200 300 l 1
 200 0 l 1
 100 0 l 1
 100 300 l 1
 0 300 l 1
 0 400 l 1xb8
0 500 m 1
 0 600 l 1
 300 600 l 1
 300 500 l 1
 0 500 l 1
EndSplineSet
Validated: 1
EndChar

StartChar: uni20B9
Encoding: 8377 8377 387
Width: 400
VWidth: 960
Flags: W
HStem: 0 21G<100 200> 0 21G<100 200> 100 100<0 66.5039> 300 100<0 100 200 300> 500 100<0 86.0954 189.332 300>
VStem: 100 100<0 64.1657 225.4 300 400 486.095>
LayerCount: 2
Fore
SplineSet
0 600 m 1xbc
 300 600 l 1
 300 500 l 1
 189.33203125 500 l 1
 196.134765625 483.908203125 200 466.958984375 200 450 c 2
 200 400 l 1
 300 400 l 1
 300 300 l 1
 200 300 l 1
 200 255.931640625 174.090820312 194.624023438 137.517578125 151.53125 c 1
 183.659179688 94.7060546875 200 81.0107421875 200 0 c 1
 100 0 l 1
 100 50 100 50 50 100 c 1
 0 100 l 1
 0 200 l 1
 50 200 l 2
 75 200 100 225 100 250 c 2
 100 300 l 1
 0 300 l 1
 0 400 l 1
 100 400 l 1
 100 450 l 2
 100 475 75 500 50 500 c 2
 0 500 l 1
 0 600 l 1xbc
EndSplineSet
Validated: 1
EndChar

StartChar: uni20BA
Encoding: 8378 8378 388
Width: 500
VWidth: 960
Flags: W
HStem: 0 100<200 284.87> 380 20G<260 300>
VStem: 100 100<100 225 350 375 500 600> 300 100<115.13 200>
LayerCount: 2
Fore
SplineSet
100 600 m 1
 200 600 l 1
 200 500 l 1
 300 550 l 1
 300 475 l 1
 200 425 l 1
 200 350 l 1
 300 400 l 1
 300 325 l 1
 200 275 l 1
 200 100 l 1
 250 100 l 2
 275 100 300 125 300 150 c 2
 300 200 l 1
 400 200 l 1
 400 150 l 2
 400 75 325 0 250 0 c 2
 200 0 l 1
 100 0 l 1
 100 225 l 1
 0 175 l 1
 0 250 l 1
 100 300 l 1
 100 375 l 1
 0 325 l 1
 0 400 l 1
 100 450 l 1
 100 600 l 1
EndSplineSet
Validated: 1
EndChar

StartChar: uni20BF
Encoding: 8383 8383 389
Width: 600
VWidth: 960
Flags: W
HStem: -100 200<100 200 300 386.095> 0 100<200 300> 200 100<100 360.477> 400 200<100 200 300 361.095> 400 100<200 300>
VStem: 0 100<100 200 300 400> 100 100<-100 0 500 600> 300 100<-100 0 500 600> 375 100<314.108 385.121> 400 100<114.415 185.656>
LayerCount: 2
Fore
SplineSet
100 600 m 1x32
 200 600 l 1x32
 200 500 l 1
 300 500 l 1x2b
 300 600 l 1
 400 600 l 1x33
 400 475.982421875 l 1x3040
 443.043945312 447.883789062 475 398.94921875 475 350 c 0x3080
 475 319.28125 462.405273438 288.571289062 442.39453125 263.005859375 c 1
 476.376953125 234.171875 500 192.087890625 500 150 c 0
 500 91.958984375 455.073242188 33.9482421875 400 10.66796875 c 1x3040
 400 -100 l 1
 300 -100 l 1xb1
 300 0 l 1
 200 0 l 1x63
 200 -100 l 1
 100 -100 l 1xa3
 100 0 l 1x63
 0 0 l 1
 0 500 l 1x6c
 100 500 l 1x6a
 100 600 l 1x32
100 400 m 1x3480
 100 300 l 1
 325 300 l 2
 350 300 375 325 375 350 c 0
 375 375 350 400 325 400 c 2
 100 400 l 1x3480
100 200 m 1
 100 100 l 1
 350 100 l 2
 375 100 400 125 400 150 c 0xa440
 400 175 375 200 350 200 c 2
 325 200 l 1
 100 200 l 1
EndSplineSet
Validated: 1
EndChar

StartChar: uni20BD
Encoding: 8381 8381 390
Width: 500
VWidth: 960
Flags: W
HStem: 0 21G<100 200> 0 21G<100 200> 100 100<0 100 200 300> 300 100<0 100 200 293.047> 500 100<200 293.047>
VStem: 100 100<0 100 200 300 400 500> 300 100<407.26 492.74>
LayerCount: 2
Fore
SplineSet
100 600 m 1xbe
 200 600 l 2
 325 600 400 575 400 450 c 0
 400 325 325 300 200 300 c 1
 200 200 l 1
 300 200 l 1
 300 100 l 1
 200 100 l 1
 200 0 l 1
 100 0 l 1
 100 100 l 1
 0 100 l 1
 0 200 l 1
 100 200 l 1
 100 300 l 1
 0 300 l 1
 0 400 l 1
 100 400 l 1
 100 600 l 1xbe
200 500 m 1
 200 400 l 1
 225 400 l 2
 275 400 300 400 300 450 c 0
 300 500 275 500 225 500 c 2
 200 500 l 1
EndSplineSet
Validated: 1
EndChar

StartChar: uni20BE
Encoding: 8382 8382 391
Width: 600
VWidth: 960
Flags: W
HStem: 0 100<0 87.7559 226.562 400> 400 100<115.13 175 250 300>
VStem: 0 100<226.562 384.87> 175 75<300 400 500 600> 300 75<300 398.881 500 600>
LayerCount: 2
Fore
SplineSet
175 600 m 1
 250 600 l 1
 250 500 l 1
 300 500 l 1
 300 600 l 1
 375 600 l 1
 375 498.072265625 l 1
 440.796875 488.431640625 500 441.626953125 500 375 c 1
 400 375 l 1
 400 391.29296875 389.317382812 396.904296875 375 398.880859375 c 1
 375 300 l 1
 300 300 l 1
 300 400 l 1
 250 400 l 1
 250 300 l 1
 175 300 l 1
 175 400 l 1
 150 400 l 2
 125 400 100 375 100 350 c 2
 100 300 l 2
 100 200 200 100 300 100 c 2
 400 100 l 1
 400 0 l 1
 0 0 l 1
 0 100 l 1
 87.755859375 100 l 1
 34.8828125 155.49609375 0 227.72265625 0 300 c 2
 0 350 l 2
 0 425 75 500 150 500 c 2
 175 500 l 1
 175 600 l 1
EndSplineSet
Validated: 1
EndChar

StartChar: uni20BC
Encoding: 8380 8380 392
Width: 600
VWidth: 960
Flags: W
HStem: 0 21G<0 100 200 300 400 500> 0 21G<0 100 200 300 400 500> 200 100<115.13 200 300 384.87> 480 20G<200 300>
VStem: 0 100<0 171.253> 200 100<0 200 300 500> 400 100<0 171.253>
CounterMasks: 1 0e
LayerCount: 2
Fore
SplineSet
200 500 m 1xbe
 300 500 l 1
 300 300 l 1
 350 300 l 2
 425 300 500 175 500 100 c 2
 500 0 l 1
 400 0 l 1
 400 150 l 2
 400 175 375 200 350 200 c 2
 300 200 l 1
 300 0 l 1
 200 0 l 1
 200 200 l 1
 150 200 l 2
 125 200 100 175 100 150 c 2
 100 0 l 1
 0 0 l 1
 0 100 l 2
 0 175 75 300 150 300 c 2
 200 300 l 1
 200 500 l 1xbe
EndSplineSet
Validated: 1
EndChar

StartChar: uni20BB
Encoding: 8379 8379 393
Width: 550
VWidth: 960
Flags: W
HStem: 0 100<231.265 375> 200 100<25 100 200 384.87> 400 100<52.5476 100 200 384.87> 550 50<52.8542 98.5575>
VStem: 0 50<475 547.782> 100 100<131.265 200 300 400 500 547.7> 400 100<314.517 385.626>
LayerCount: 2
Fore
SplineSet
100 500 m 1
 100 500 100 512.5 100 525 c 0
 100 537.5 87.5 550 75 550 c 0
 62.5 550 50 537.5 50 525 c 0
 50 512.5 62.5 500 75 500 c 0
 87.5 500 100 500 100 500 c 1
100 600 m 0
 149.987304688 601.139648438 200 550 200 500 c 1
 350 500 l 2
 425 500 500 450 500 350 c 0
 500 275 425 200 350 200 c 2
 200 200 l 1
 200 125 225 100 300 100 c 2
 375 100 l 1
 375 0 l 1
 300 0 l 2
 150 0 100 50 100 200 c 1
 25 200 l 1
 25 300 l 1
 100 300 l 1
 100 400 l 1
 50 400 0 450 0 500 c 0
 0 575 19.3486328125 598.161132812 100 600 c 0
200 400 m 1
 200 300 l 1
 350 300 l 2
 375 300 400 325 400 350 c 0
 400 375 375 400 350 400 c 2
 200 400 l 1
EndSplineSet
Validated: 33
EndChar

StartChar: uni2116
Encoding: 8470 8470 394
Width: 900
VWidth: 960
Flags: W
HStem: 0 100<500 800> 200 100<614.252 685.748> 400 100<614.252 685.748>
VStem: 0 100<0 325> 300 100<0 125 250 500> 500 100<314.517 385.483> 700 100<314.517 385.483>
CounterMasks: 1 e0
LayerCount: 2
Fore
SplineSet
300 125 m 1
 100 325 l 1
 100 0 l 1
 0 0 l 1
 0 500 l 1
 50 500 l 1
 300 250 l 1
 300 500 l 1
 400 500 l 1
 400 0 l 1
 300 0 l 1
 300 125 l 1
650 500 m 0
 700 500 800 425 800 350 c 0
 800 275 700 200 650 200 c 0
 600 200 500 275 500 350 c 0
 500 425 600 500 650 500 c 0
650 400 m 0
 625 400 600 375 600 350 c 0
 600 325 625 300 650 300 c 0
 675 300 700 325 700 350 c 0
 700 375 675 400 650 400 c 0
500 0 m 1
 500 100 l 1
 800 100 l 1
 800 0 l 1
 500 0 l 1
EndSplineSet
Validated: 1
EndChar

StartChar: uni2117
Encoding: 8471 8471 395
Width: 800
VWidth: 960
Flags: W
HStem: -100 100<252.614 447.386> 200 75<300 398.877> 325 75<300 398.877> 500 100<252.614 447.386>
VStem: 0 100<152.614 347.386> 200 100<100 200 275 325> 400 100<278.165 321.69> 600 100<152.614 347.386>
LayerCount: 2
Fore
SplineSet
300 325 m 1
 300 275 l 1
 350 275 l 2
 375 275 400 275 400 300 c 0
 400 325 375 325 350 325 c 2
 300 325 l 1
200 400 m 1
 400 400 l 2
 475 400 500 350 500 300 c 0
 500 250 479.196289062 194.327148438 400 200 c 1
 300 200 l 1
 300 100 l 1
 200 100 l 1
 200 400 l 1
350 600 m 0
 550 600 700 450 700 250 c 0
 700 50 550 -100 350 -100 c 0
 150 -100 0 50 0 250 c 0
 0 450 150 600 350 600 c 0
350 500 m 0
 200 500 100 400 100 250 c 0
 100 100 200 0 350 0 c 0
 500 0 600 100 600 250 c 0
 600 400 500 500 350 500 c 0
EndSplineSet
Validated: 33
EndChar

StartChar: trademark
Encoding: 8482 8482 396
Width: 1000
VWidth: 960
Flags: W
HStem: 300 300<100 200 400 500 800 900> 400 21G<605 695> 500 100<0 100 200 300>
VStem: 100 100<300 500> 400 100<300 525> 800 100<300 525>
LayerCount: 2
Fore
SplineSet
0 600 m 1x3c
 300 600 l 1
 300 500 l 1
 200 500 l 1x3c
 200 300 l 1
 100 300 l 1x9c
 100 500 l 1
 0 500 l 1
 0 600 l 1x3c
400 600 m 1x9c
 525 600 l 1
 650 475 l 1
 775 600 l 1x3c
 900 600 l 1
 900 300 l 1
 800 300 l 1x9c
 800 525 l 1
 675 400 l 1
 625 400 l 1x5c
 500 525 l 1
 500 300 l 1
 400 300 l 1
 400 600 l 1x9c
EndSplineSet
Validated: 1
EndChar

StartChar: endash
Encoding: 8211 8211 397
Width: 500
VWidth: 960
Flags: W
HStem: 200 100<0 400>
LayerCount: 2
Fore
SplineSet
0 300 m 1
 400 300 l 1
 400 200 l 1
 0 200 l 1
 0 300 l 1
EndSplineSet
Validated: 1
EndChar

StartChar: emdash
Encoding: 8212 8212 398
Width: 700
VWidth: 960
Flags: W
HStem: 200 100<0 600>
LayerCount: 2
Fore
SplineSet
0 300 m 1
 600 300 l 1
 600 200 l 1
 0 200 l 1
 0 300 l 1
EndSplineSet
Validated: 1
EndChar

StartChar: quoteleft
Encoding: 8216 8216 404
Width: 200
VWidth: 960
Flags: W
HStem: 300 200<48.4144 86.0954>
VStem: 0 100<313.905 427.795>
LayerCount: 2
Fore
SplineSet
100 500 m 1
 100 350 l 2
 100 325 75 300 50 300 c 0
 25 300 0 325 0 350 c 2
 0 400 l 2
 0 450 50 500 100 500 c 1
EndSplineSet
Validated: 1
EndChar

StartChar: quotereversed
Encoding: 8219 8219 406
Width: 200
VWidth: 960
Flags: W
HStem: 300 200<48.4144 86.0954>
VStem: 0 100<372.205 486.095>
LayerCount: 2
Fore
SplineSet
100 300 m 1
 50 300 0 350 0 400 c 2
 0 450 l 2
 0 475 25 500 50 500 c 0
 75 500 100 475 100 450 c 2
 100 300 l 1
EndSplineSet
Validated: 1
EndChar

StartChar: uni27E8
Encoding: 10216 10216 415
Width: 400
VWidth: 960
Flags: W
HStem: 0 21G<180 300> 0 21G<180 300> 480 20G<180 300>
LayerCount: 2
Fore
SplineSet
200 500 m 1xa0
 300 500 l 1
 300 450 l 1
 100 250 l 1
 300 50 l 1
 300 0 l 1
 200 0 l 1
 0 200 l 1
 0 300 l 1
 200 500 l 1xa0
EndSplineSet
Validated: 1
EndChar

StartChar: uni27E9
Encoding: 10217 10217 416
Width: 400
VWidth: 960
Flags: W
HStem: 0 21G<0 120> 0 21G<0 120> 480 20G<0 120>
LayerCount: 2
Fore
SplineSet
100 500 m 1xa0
 300 300 l 1
 300 200 l 1
 100 0 l 1
 0 0 l 1
 0 50 l 1
 200 250 l 1
 0 450 l 1
 0 500 l 1
 100 500 l 1xa0
EndSplineSet
Validated: 1
EndChar

StartChar: uni0E3F
Encoding: 3647 3647 417
Width: 600
VWidth: 960
Flags: W
HStem: 0 100<100 200 300 384.87> 200 100<100 200 300 360.477> 400 100<100 200 300 359.87>
VStem: 0 100<100 200 300 400> 200 100<-100 0 100 200 300 400 500 600> 375 100<314.108 385.483> 400 100<114.517 185.656>
CounterMasks: 1 e0
LayerCount: 2
Fore
SplineSet
200 600 m 1xfa
 300 600 l 1
 300 500 l 1
 325 500 l 2
 400 500 475 425 475 350 c 0xfc
 475 319.28125 462.405273438 288.571289062 442.39453125 263.005859375 c 1
 476.376953125 234.171875 500 192.087890625 500 150 c 0
 500 75 425 0 350 0 c 2
 300 0 l 1
 300 -100 l 1
 200 -100 l 1
 200 0 l 1
 100 0 l 1
 0 0 l 1
 0 500 l 1
 100 500 l 1
 200 500 l 1
 200 600 l 1xfa
100 400 m 1
 100 300 l 1
 200 300 l 1
 200 400 l 1
 100 400 l 1
300 400 m 1
 300 300 l 1
 325 300 l 2
 350 300 375 325 375 350 c 0
 375 375 350 400 325 400 c 2
 300 400 l 1
100 200 m 1
 100 100 l 1
 200 100 l 1
 200 200 l 1
 100 200 l 1
300 200 m 1
 300 100 l 1
 350 100 l 2
 375 100 400 125 400 150 c 0xfa
 400 175 375 200 350 200 c 2
 325 200 l 1
 300 200 l 1
EndSplineSet
Validated: 1
EndChar

StartChar: uni058F
Encoding: 1423 1423 418
Width: 500
VWidth: 960
Flags: W
HStem: 0 21G<200 300> 0 21G<200 300> 100 100<100 200 300 400> 300 100<100 200 300 400> 500 100<101.345 185.483>
VStem: 200 100<0 100 200 300 400 484.87>
LayerCount: 2
Fore
SplineSet
150 600 m 0xbc
 225 600 300 525 300 450 c 2
 300 400 l 1
 400 400 l 1
 400 300 l 1
 300 300 l 1
 300 200 l 1
 400 200 l 1
 400 100 l 1
 300 100 l 1
 300 0 l 1
 200 0 l 1
 200 100 l 1
 100 100 l 1
 100 200 l 1
 200 200 l 1
 200 300 l 1
 100 300 l 1
 100 400 l 1
 200 400 l 1
 200 450 l 2
 200 475 175 500 150 500 c 0
 125 500 100 500 100 475 c 1
 0 475 l 1
 0 550 75 600 150 600 c 0xbc
EndSplineSet
Validated: 1
EndChar

StartChar: circumflex
Encoding: 710 710 419
Width: 300
VWidth: 960
Flags: HW
HStem: 425 175
LayerCount: 2
Fore
SplineSet
125 600 m 1
 175 600 l 1
 300 475 l 1
 300 425 l 1
 225 425 l 1
 150 500 l 1
 75 425 l 1
 0 425 l 1
 0 475 l 1
 125 600 l 1
EndSplineSet
EndChar

StartChar: caron
Encoding: 711 711 420
Width: 300
VWidth: 960
Flags: HW
HStem: 425 175
LayerCount: 2
Fore
SplineSet
125 425 m 1
 0 550 l 1
 0 600 l 1
 75 600 l 1
 150 525 l 1
 225 600 l 1
 300 600 l 1
 300 550 l 1
 175 425 l 1
 125 425 l 1
EndSplineSet
EndChar

StartChar: ring
Encoding: 730 730 424
Width: 275
VWidth: 960
Flags: HW
HStem: 350.004 74.9961<113.95 185.757> 525 74.9961<113.95 184.249>
VStem: 25.0078 74.9922<439.581 510.419> 200 75<441.145 509.736>
LayerCount: 2
Fore
SplineSet
150.00390625 350.00390625 m 0
 66.673828125 350.00390625 25.0078125 412.501953125 25.0078125 475 c 0
 25.0078125 537.498046875 66.673828125 599.99609375 150.00390625 599.99609375 c 0
 233.334960938 599.99609375 276.55859375 537.478515625 275 475 c 0
 273.500976562 414.89453125 233.334960938 350.00390625 150.00390625 350.00390625 c 0
100 475 m 0
 100 450 125 425 150 425 c 0
 175 425 200.899414062 450.567382812 200 475 c 0
 199.080078125 499.983398438 175 525 150 525 c 0
 125 525 100 500 100 475 c 0
EndSplineSet
EndChar

StartChar: breve
Encoding: 728 728 425
Width: 300
VWidth: 960
Flags: HW
HStem: 425 74.9941<106.066 194.081>
VStem: 0 75<530.351 600> 225 75<531.036 600>
LayerCount: 2
Fore
SplineSet
0 600 m 1
 75 600 l 1
 75 575 l 1
 74.98828125 575 l 1
 74.98828125 537.497070312 112.491210938 499.994140625 149.994140625 499.994140625 c 0
 187.497070312 499.994140625 226.349609375 538.348632812 225 575 c 2
 225 600 l 1
 300 600 l 1
 300 575 l 2
 298.201171875 502.87109375 250 425 150 425 c 0
 50 425 0 500 0 575 c 2
 0 600 l 1
EndSplineSet
EndChar

StartChar: uni0259
Encoding: 601 601 428
Width: 400
VWidth: 960
Flags: W
HStem: 0 75<114.507 185.483> 150 75<100 200> 300 100<95.253 185.018>
VStem: 0 100<99.8336 150> 200 100<108.567 150 225 283.895>
LayerCount: 2
Fore
SplineSet
0 175 m 2
 0 225 l 1
 200 225 l 1
 200 250 l 2
 200 275 175 300 150 300 c 2
 100 300 l 1
 0 300 l 1
 0 350 50.00390625 400.842773438 150 400 c 0
 225.443359375 399.364257812 300 300 300 225 c 2
 300 175 l 2
 300 100 225 0 150 0 c 0
 75 0 -0.318359375 79.9638671875 0 175 c 2
150 75 m 0
 175 75 200 100 200 125 c 2
 200 150 l 1
 100 150 l 1
 100 125 l 2
 100 100 125 75 150 75 c 0
EndSplineSet
Validated: 33
EndChar

StartChar: uni018F
Encoding: 399 399 433
Width: 400
VWidth: 960
Flags: W
HStem: 0 75<114.507 185.483> 200 100<100 200> 400 100<95.253 185.018>
VStem: 0 100<107.597 200> 200 100<108.567 200 300 383.895>
LayerCount: 2
Fore
SplineSet
0 175 m 2
 0 300 l 1
 200 300 l 1
 200 350 l 2
 200 375 175 400 150 400 c 2
 100 400 l 1
 0 400 l 1
 0 450 50.00390625 500.842773438 150 500 c 0
 225.443359375 499.364257812 300 400 300 325 c 2
 300 175 l 2
 300 100 225 0 150 0 c 0
 75 0 -0.318359375 97.7734375 0 175 c 2
150 75 m 0
 175 75 200 100 200 125 c 2
 200 200 l 1
 100 200 l 1
 100 125 l 2
 100 100 125 75 150 75 c 0
EndSplineSet
Validated: 33
EndChar

StartChar: uni01B5
Encoding: 437 437 434
Width: 400
VWidth: 960
Flags: W
HStem: 0 100<100 300> 225 75<0 60 260 300> 400 100<0 200>
VStem: 0 300<0 100 225 300 400 500>
LayerCount: 2
Fore
SplineSet
0 500 m 1
 300 500 l 1
 300 350 l 1
 260 300 l 1
 300 300 l 1
 300 225 l 1
 200 225 l 1
 100 100 l 1
 300 100 l 1
 300 0 l 1
 0 0 l 1
 0 150 l 1
 60 225 l 1
 0 225 l 1
 0 300 l 1
 120 300 l 1
 200 400 l 1
 0 400 l 1
 0 500 l 1
EndSplineSet
Validated: 1
EndChar

StartChar: uni01B6
Encoding: 438 438 435
Width: 400
VWidth: 960
Flags: W
HStem: 0 100<75 300> 175 75<0 25 225 300> 325 75<0 175>
VStem: 0 300<0 100 175 250 325 400>
LayerCount: 2
Fore
SplineSet
0 400 m 1
 300 400 l 1
 300 325 l 1
 225 250 l 1
 300 250 l 1
 300 175 l 1
 150 175 l 1
 75 100 l 1
 300 100 l 1
 300 0 l 1
 0 0 l 1
 0 150 l 1
 25 175 l 1
 0 175 l 1
 0 250 l 1
 100 250 l 1
 175 325 l 1
 0 325 l 1
 0 400 l 1
EndSplineSet
Validated: 1
EndChar

StartChar: uni0191
Encoding: 401 401 436
Width: 500
VWidth: 960
Flags: W
HStem: -100 100<0 84.8701> 200 100<200 350> 400 100<200 400>
VStem: 100 100<17.8497 200 300 400>
LayerCount: 2
Fore
SplineSet
100 500 m 1
 200 500 l 1
 400 500 l 1
 400 400 l 1
 200 400 l 1
 200 300 l 1
 350 300 l 1
 350 200 l 1
 200 200 l 1
 200 100 l 2
 200 0 125 -100 50 -100 c 2
 0 -100 l 1
 0 0 l 1
 50 0 l 2
 75 0 100 25 100 50 c 2
 100 100 l 1
 100 500 l 1
EndSplineSet
Validated: 1
EndChar

StartChar: florin
Encoding: 402 402 437
Width: 400
VWidth: 960
Flags: W
HStem: -100 100<0 84.8701> 200 100<200 300> 400 100<215.13 300>
VStem: 100 100<17.8497 200 300 382.15>
LayerCount: 2
Fore
SplineSet
250 500 m 2
 300 500 l 1
 300 400 l 1
 250 400 l 2
 225 400 200 375 200 350 c 2
 200 300 l 1
 300 300 l 1
 300 200 l 1
 200 200 l 1
 200 100 l 2
 200 0 125 -100 50 -100 c 2
 0 -100 l 1
 0 0 l 1
 50 0 l 2
 75 0 100 25 100 50 c 2
 100 100 l 1
 100 300 l 2
 100 400 175 500 250 500 c 2
EndSplineSet
Validated: 1
EndChar

StartChar: Alpha
Encoding: 913 913 439
Width: 400
Flags: W
HStem: 0 21G<0 100 200 300> 0 21G<0 100 200 300> 100 100<112.451 186.432> 480 20G<125 175>
VStem: 0 100<0 100> 200 100<0 100>
LayerCount: 2
Fore
SplineSet
125 500 m 1xbc
 175 500 l 1
 175 500 300 225 300 100 c 2
 300 0 l 1
 200 0 l 1
 200 100 l 1
 100 100 l 1
 100 0 l 1
 0 0 l 1
 0 100 l 2
 0 225 125 500 125 500 c 1xbc
150 300 m 1
 134.203125 285.236328125 121.236328125 243.140625 112.451171875 200 c 1
 186.431640625 200 l 1
 176.874023438 244.10546875 163.455078125 286.544921875 150 300 c 1
EndSplineSet
Validated: 1
EndChar

StartChar: Beta
Encoding: 914 914 440
Width: 400
Flags: W
HStem: 0 100<100 184.87> 200 100<100 160.477> 400 100<100 159.87>
VStem: 0 100<100 200 300 400> 175 100<314.108 385.483> 200 100<114.517 185.656>
CounterMasks: 1 e0
LayerCount: 2
Fore
SplineSet
0 500 m 1xf4
 100 500 l 1
 125 500 l 2
 200 500 275 425 275 350 c 0xf8
 275 319.28125 262.405273438 288.571289062 242.39453125 263.005859375 c 1
 276.376953125 234.171875 300 192.087890625 300 150 c 0
 300 75 225 0 150 0 c 2
 100 0 l 1
 0 0 l 1
 0 100 l 1
 0 200 l 1
 0 300 l 1
 0 400 l 1
 0 500 l 1xf4
100 400 m 1
 100 300 l 1
 125 300 l 2
 150 300 175 325 175 350 c 0
 175 375 150 400 125 400 c 2
 100 400 l 1
100 200 m 1
 100 100 l 1
 150 100 l 2
 175 100 200 125 200 150 c 0xf4
 200 175 175 200 150 200 c 2
 125 200 l 1
 100 200 l 1
EndSplineSet
Validated: 1
EndChar

StartChar: Gamma
Encoding: 915 915 441
Width: 400
Flags: W
HStem: 0 21G<0 100> 0 21G<0 100> 400 100<100 300>
VStem: 0 100<0 400>
LayerCount: 2
Fore
SplineSet
0 0 m 1xb0
 0 500 l 1
 300 500 l 1
 300 400 l 1
 100 400 l 1
 100 0 l 1
 0 0 l 1xb0
EndSplineSet
Validated: 1
EndChar

StartChar: uni0394
Encoding: 916 916 442
Width: 400
Flags: W
HStem: 0 100<100 200> 480 20G<125 175>
VStem: 0 100<100 206.368> 200 100<100 205.558>
LayerCount: 2
Fore
SplineSet
125 500 m 1
 175 500 l 1
 175 500 300 225 300 100 c 2
 300 0 l 1
 200 0 l 1
 100 0 l 1
 0 0 l 1
 0 100 l 2
 0 225 125 500 125 500 c 1
150 300 m 1
 119.961914062 271.92578125 100 145.055664062 100 100 c 1
 200 100 l 1
 200 150 175 275 150 300 c 1
EndSplineSet
Validated: 1
EndChar

StartChar: Lambda
Encoding: 923 923 443
Width: 400
Flags: W
HStem: 0 21G<0 100 200 300> 0 21G<0 100 200 300> 480 20G<125 175>
VStem: 0 100<0 206.368> 200 100<0 205.558>
LayerCount: 2
Fore
SplineSet
300 100 m 2xb8
 300 0 l 1
 200 0 l 1
 200 100 l 2
 200 150 175 275 150 300 c 1
 119.961914062 271.92578125 100 145.055664062 100 100 c 2
 100 0 l 1
 0 0 l 1
 0 100 l 2
 0 225 125 500 125 500 c 1
 175 500 l 1
 175 500 300 225 300 100 c 2xb8
EndSplineSet
Validated: 1
EndChar

StartChar: beta
Encoding: 946 946 444
Width: 400
Flags: HW
HStem: 0 100<100 185.401> 400 100<116.644 185.748>
VStem: 0 100<-100 0 100 382.41> 200 100<115.056 185.478 314.544 385.748>
AnchorPoint: "bottom" 100 0 basechar 0
AnchorPoint: "top" 100 400 basechar 0
LayerCount: 2
Fore
SplineSet
150 500 m 0
 200 500 300 400 300 350 c 0
 300 323.302734375 271.431640625 282.4375 237.24609375 250.064453125 c 1
 271.455078125 217.68359375 300 176.7109375 300 150 c 0
 300 87.7216796875 200 0 150 0 c 2
 100 0 l 1
 100 -100 l 1
 0 -100 l 1
 0 350 l 2
 0 400 100 500 150 500 c 0
150 400 m 0
 125 400 100.193359375 371.626953125 100 350 c 2
 100 100 l 1
 150 100 l 2
 175 100 200 125 200 150 c 0
 200 175 175 200 150 200 c 1
 150 300 l 1
 175 300 200 325 200 350 c 0
 200 375 175 400 150 400 c 0
EndSplineSet
EndChar

StartChar: Epsilon
Encoding: 917 917 445
Width: 400
Flags: W
HStem: 0 100<100 300> 200 100<100 225> 400 100<100 300>
VStem: 0 100<100 200 300 400>
CounterMasks: 1 e0
LayerCount: 2
Fore
SplineSet
0 0 m 1
 0 500 l 1
 300 500 l 1
 300 400 l 1
 100 400 l 1
 100 300 l 1
 225 300 l 1
 225 200 l 1
 100 200 l 1
 100 100 l 1
 300 100 l 1
 300 0 l 1
 100 0 l 1
 0 0 l 1
EndSplineSet
Validated: 1
EndChar

StartChar: Zeta
Encoding: 918 918 446
Width: 400
Flags: W
HStem: 0 100<100 300> 400 100<0 200>
LayerCount: 2
Fore
SplineSet
300 500 m 1
 300 350 l 1
 100 100 l 1
 300 100 l 1
 300 0 l 1
 0 0 l 1
 0 150 l 1
 200 400 l 1
 0 400 l 1
 0 500 l 1
 300 500 l 1
300 500 m 1
 300 350 l 1
 100 100 l 1
 300 100 l 1
 300 0 l 1
 0 0 l 1
 0 150 l 1
 200 400 l 1
 0 400 l 1
 0 500 l 1
 300 500 l 1
EndSplineSet
Validated: 5
EndChar

StartChar: Eta
Encoding: 919 919 447
Width: 400
Flags: W
HStem: 0 21G<0 100 200 300> 0 21G<0 100 200 300> 200 100<100 200> 480 20G<0 100 200 300>
VStem: 0 100<0 200 300 500> 200 100<0 200 300 500>
LayerCount: 2
Fore
SplineSet
0 500 m 1xbc
 100 500 l 1
 100 300 l 1
 200 300 l 1
 200 500 l 1
 300 500 l 1
 300 0 l 1
 200 0 l 1
 200 200 l 1
 100 200 l 1
 100 0 l 1
 0 0 l 1
 0 500 l 1xbc
EndSplineSet
Validated: 1
EndChar

StartChar: Theta
Encoding: 920 920 448
Width: 400
Flags: W
HStem: 0 100<114.517 185.483> 200 100<125 175> 400 100<114.517 185.483>
VStem: 0 100<115.13 384.87> 125 50<200 300> 200 100<115.13 384.87>
CounterMasks: 1 fc
LayerCount: 2
Fore
SplineSet
150 500 m 0
 225 500 300 425 300 350 c 2
 300 150 l 2
 300 75 225 0 150 0 c 0
 75 0 0 75 0 150 c 2
 0 350 l 2
 0 425 75 500 150 500 c 0
150 400 m 0
 125 400 100 375 100 350 c 2
 100 150 l 2
 100 125 125 100 150 100 c 0
 175 100 200 125 200 150 c 2
 200 350 l 2
 200 375 175 400 150 400 c 0
125 300 m 1
 175 300 l 1
 175 200 l 1
 125 200 l 1
 125 300 l 1
EndSplineSet
Validated: 1
EndChar

StartChar: Iota
Encoding: 921 921 449
Width: 200
Flags: W
HStem: 0 21G<0 100> 0 21G<0 100> 480 20G<0 100>
VStem: 0 100<0 500>
LayerCount: 2
Fore
SplineSet
100 0 m 1xb0
 0 0 l 1
 0 500 l 1
 100 500 l 1
 100 0 l 1xb0
EndSplineSet
Validated: 1
EndChar

StartChar: Kappa
Encoding: 922 922 450
Width: 400
Flags: W
HStem: 0 21G<0 100 200 300> 0 21G<0 100 200 300> 200 100<100 164.677> 480 20G<0 100 200 300>
VStem: 0 100<0 200 300 500> 200 100<0 147.679 352.321 500>
LayerCount: 2
Fore
SplineSet
0 500 m 1xbc
 100 500 l 1
 100 300 l 1
 150 300 l 1
 200 350 200 425 200 500 c 1
 300 500 l 1
 300 376.48046875 283.057617188 322.4921875 235.15234375 250 c 1
 283.057617188 177.5078125 300 123.51953125 300 0 c 1
 200 0 l 1
 200 75 200 150 150 200 c 1
 100 200 l 1
 100 0 l 1
 0 0 l 1
 0 500 l 1xbc
EndSplineSet
Validated: 1
EndChar

StartChar: Mu
Encoding: 924 924 451
Width: 600
Flags: W
HStem: 0 21G<0 100 400 500> 0 21G<0 100 400 500> 480 20G<0 95 405 500>
VStem: 0 100<0 350> 400 100<0 350>
LayerCount: 2
Fore
SplineSet
0 0 m 1xb8
 0 500 l 1
 75 500 l 1
 250 325 l 1
 425 500 l 1
 500 500 l 1
 500 0 l 1
 400 0 l 1
 400 350 l 1
 275 225 l 1
 225 225 l 1
 100 350 l 1
 100 0 l 1
 0 0 l 1xb8
EndSplineSet
Validated: 1
EndChar

StartChar: Nu
Encoding: 925 925 452
Width: 500
Flags: W
HStem: 0 21G<0 100 300 400> 0 21G<0 100 300 400> 480 20G<0 70 300 400>
VStem: 0 100<0 325> 300 100<0 125 250 500>
LayerCount: 2
Fore
SplineSet
300 125 m 1xb8
 100 325 l 1
 100 0 l 1
 0 0 l 1
 0 500 l 1
 50 500 l 1
 300 250 l 1
 300 500 l 1
 400 500 l 1
 400 0 l 1
 300 0 l 1
 300 125 l 1xb8
EndSplineSet
Validated: 1
EndChar

StartChar: Xi
Encoding: 926 926 453
Width: 400
Flags: W
HStem: 0 100<0 300> 200 100<50 250> 400 100<0 300>
CounterMasks: 1 e0
LayerCount: 2
Fore
SplineSet
0 400 m 1
 0 500 l 1
 300 500 l 1
 300 400 l 1
 0 400 l 1
50 200 m 1
 50 300 l 1
 250 300 l 1
 250 200 l 1
 50 200 l 1
0 0 m 1
 0 100 l 1
 300 100 l 1
 300 0 l 1
 0 0 l 1
EndSplineSet
Validated: 1
EndChar

StartChar: Omicron
Encoding: 927 927 454
Width: 400
Flags: W
HStem: 0 100<114.517 185.483> 400 100<114.517 185.483>
VStem: 0 100<115.13 384.87> 200 100<115.13 384.87>
LayerCount: 2
Fore
SplineSet
0 350 m 2
 0 425 75 500 150 500 c 0
 225 500 300 425 300 350 c 2
 300 150 l 2
 300 75 225 0 150 0 c 0
 75 0 0 75 0 150 c 2
 0 350 l 2
100 350 m 2
 100 150 l 2
 100 125 125 100 150 100 c 0
 175 100 200 125 200 150 c 2
 200 350 l 2
 200 375 175 400 150 400 c 0
 125 400 100 375 100 350 c 2
EndSplineSet
Validated: 1
EndChar

StartChar: Pi
Encoding: 928 928 455
Width: 400
Flags: W
HStem: 0 21G<0 100 200 300> 0 21G<0 100 200 300> 400 100<100 200>
VStem: 0 100<0 400> 200 100<0 400>
LayerCount: 2
Fore
SplineSet
0 0 m 1xb8
 0 500 l 1
 300 500 l 1
 300 0 l 1
 200 0 l 1
 200 400 l 1
 100 400 l 1
 100 0 l 1
 0 0 l 1xb8
EndSplineSet
Validated: 1
EndChar

StartChar: Rho
Encoding: 929 929 456
Width: 400
Flags: W
HStem: 0 21G<0 100> 0 21G<0 100> 200 100<100 184.87> 400 100<100 184.87>
VStem: 0 100<0 200 300 400> 200 100<314.517 385.483>
LayerCount: 2
Fore
SplineSet
0 0 m 1xbc
 0 500 l 1
 100 500 l 1
 150 500 l 2
 225 500 300 425 300 350 c 0
 300 275 225 200 150 200 c 2
 100 200 l 1
 100 0 l 1
 0 0 l 1xbc
100 400 m 1
 100 300 l 1
 150 300 l 2
 175 300 200 325 200 350 c 0
 200 375 175 400 150 400 c 2
 100 400 l 1
EndSplineSet
Validated: 1
EndChar

StartChar: Sigma
Encoding: 931 931 457
Width: 400
Flags: W
HStem: 0 100<100 300> 400 100<100 300>
LayerCount: 2
Fore
SplineSet
300 500 m 1
 300 400 l 1
 100 400 l 1
 225 250 l 1
 100 100 l 1
 300 100 l 1
 300 0 l 1
 0 0 l 1
 0 125 l 1
 100 250 l 1
 0 375 l 1
 0 500 l 1
 300 500 l 1
EndSplineSet
Validated: 1
EndChar

StartChar: tonos
Encoding: 900 900 458
Width: 110
Flags: W
HStem: 450 150<25 75>
VStem: 0 100
LayerCount: 2
Fore
SplineSet
0 450 m 1
 25 600 l 1
 100 600 l 1
 75 450 l 1
 0 450 l 1
EndSplineSet
Validated: 1
EndChar

StartChar: Iotatonos
Encoding: 906 906 463
Width: 300
Flags: W
HStem: 0 21G<100 200> 0 21G<100 200> 350 150<25 75> 480 20G<100 200>
VStem: 0 100 100 100<0 500>
LayerCount: 2
Fore
SplineSet
200 0 m 1x94
 100 0 l 1
 100 500 l 1
 200 500 l 1
 200 0 l 1x94
EndSplineSet
Refer: 458 900 S 1 0 0 1 0 -100 2
Validated: 5
EndChar

StartChar: Tau
Encoding: 932 932 467
Width: 400
Flags: W
HStem: 0 21G<100 200> 0 21G<100 200> 400 100<0 100 200 300>
VStem: 100 100<0 400>
LayerCount: 2
Fore
SplineSet
0 500 m 1xb0
 300 500 l 1
 300 400 l 1
 200 400 l 1
 200 0 l 1
 100 0 l 1
 100 400 l 1
 0 400 l 1
 0 500 l 1xb0
EndSplineSet
Validated: 1
EndChar

StartChar: Upsilon
Encoding: 933 933 468
Width: 400
Flags: W
HStem: 0 21G<100 200> 0 21G<100 200> 480 20G<0 100 200 300>
VStem: 0 100<353.094 500> 100 100<0 223.114> 200 100<353.094 500>
LayerCount: 2
Fore
SplineSet
0 500 m 1xb0
 100 500 l 1
 100 425 100 350 150 300 c 1
 200 350 200 425 200 500 c 1
 300 500 l 1xb4
 300 350 275.127929688 302.61328125 200 200 c 1
 200 0 l 1
 100 0 l 1
 100 200 l 1xa8
 24.8720703125 302.61328125 0 350 0 500 c 1xb0
EndSplineSet
Validated: 1
EndChar

StartChar: Chi
Encoding: 935 935 469
Width: 400
Flags: W
HStem: 0 21G<0 100 200 300> 0 21G<0 100 200 300> 480 20G<0 100 200 300>
VStem: 0 100<0 147.679 352.321 500> 200 100<0 147.679 352.321 500>
LayerCount: 2
Fore
SplineSet
0 500 m 1xb8
 100 500 l 1
 100 425 100 350 150 300 c 1
 200 350 200 425 200 500 c 1
 300 500 l 1
 300 376.48046875 283.057617188 322.4921875 235.15234375 250 c 1
 283.057617188 177.5078125 300 123.51953125 300 0 c 1
 200 0 l 1
 200 75 200 150 150 200 c 1
 100 150 100 75 100 0 c 1
 0 0 l 1
 0 123.51953125 16.9423828125 177.5078125 64.84765625 250 c 1
 16.9423828125 322.4921875 0 376.48046875 0 500 c 1xb8
EndSplineSet
Validated: 1
EndChar

StartChar: uni03A9
Encoding: 937 937 470
Width: 600
Flags: W
HStem: 0 200<125 200 300 375> 0 100<25 150 350 475> 400 100<137.353 362.647>
VStem: 0 100<220.045 361.438> 25 175<0 100> 300 175<0 100> 400 100<217.85 361.438>
LayerCount: 2
Fore
SplineSet
200 500 m 2x68
 300 500 l 2x6c
 450 500 500 375 500 300 c 0x62
 500 200 425 100 350 100 c 1
 475 100 l 1
 475 0 l 1x64
 350 0 l 1
 300 0 l 1xa4
 300 100 l 1x64
 300 200 l 1xa4
 350 200 l 2
 375 200 400 225 400 275 c 2
 400 300 l 2xa2
 400 350 375 400 300 400 c 2
 200 400 l 2xac
 125 400 100 350 100 300 c 2
 100 275 l 2xb0
 100 225 125 200 150 200 c 2
 200 200 l 1xa8
 200 100 l 1x68
 200 0 l 1
 150 0 l 1xa8
 25 0 l 1
 25 100 l 1x68
 150 100 l 1
 75 100 1.8720703125 205.036132812 0 300 c 0x70
 -1.4775390625 374.985351562 50 500 200 500 c 2x68
EndSplineSet
Validated: 33
EndChar

StartChar: Psi
Encoding: 936 936 473
Width: 600
Flags: W
HStem: 0 21G<200 300> 0 21G<200 300> 200 100<137.353 200 300 362.647> 480 20G<0 100 200 300 400 500>
VStem: 0 100<338.562 500> 200 100<0 200 300 500> 400 100<338.562 500>
CounterMasks: 1 0e
LayerCount: 2
Fore
SplineSet
0 500 m 1xbe
 100 500 l 1
 100 400 l 2
 100 350 125 300 200 300 c 1
 200 500 l 1
 300 500 l 1
 300 300 l 1
 375 300 400 350 400 400 c 2
 400 500 l 1
 500 500 l 1
 500 400 l 2
 500 325 450 200 300 200 c 1
 300 0 l 1
 200 0 l 1
 200 200 l 1
 50 200 -1.4775390625 325.014648438 0 400 c 2
 0 500 l 1xbe
EndSplineSet
Validated: 33
EndChar

StartChar: Phi
Encoding: 934 934 474
Width: 600
Flags: W
HStem: 0 21G<200 300> 0 21G<200 300> 100 100<117.576 200 300 382.424> 300 100<115.475 200 300 384.525> 480 20G<200 300>
VStem: 0 100<214.517 285.493> 200 100<0 100 200 300 400 500> 400 100<214.517 285.493>
CounterMasks: 1 07
LayerCount: 2
Fore
SplineSet
200 500 m 1xbf
 300 500 l 1
 300 400 l 1
 325 400 l 2
 420.036132812 400.318359375 500 325 500 250 c 0
 500 175 425 100 325 100 c 2
 300 100 l 1
 300 0 l 1
 200 0 l 1
 200 100 l 1
 175 100 l 2
 75 100 0 175 0 250 c 0
 0 325 79.9638671875 400.318359375 175 400 c 2
 200 400 l 1
 200 500 l 1xbf
150 300 m 2
 125 300 100 275 100 250 c 0
 100 225 125 200 150 200 c 2
 175 200 l 1
 200 200 l 1
 200 300 l 1
 175 300 l 1
 150 300 l 2
300 300 m 1
 300 200 l 1
 325 200 l 1
 350 200 l 2
 375 200 400 225 400 250 c 0
 400 275 375 300 350 300 c 2
 325 300 l 1
 300 300 l 1
EndSplineSet
Validated: 33
EndChar

StartChar: uni03CF
Encoding: 975 975 475
Width: 400
Flags: W
HStem: 0 21G<0 100> 0 21G<0 100> 200 100<100 164.677> 480 20G<0 100 200 300>
VStem: 0 100<0 200 300 500> 200 100<-22.4 147.679 352.321 500>
LayerCount: 2
Fore
SplineSet
0 500 m 1xbc
 100 500 l 1
 100 300 l 1
 150 300 l 1
 200 350 200 425 200 500 c 1
 300 500 l 1
 300 376.48046875 283.057617188 322.4921875 235.15234375 250 c 1
 283.057617188 177.5078125 300 123.51953125 300 0 c 1
 275 -100 l 1
 175 -100 l 1
 200 0 l 1x7c
 200 75 200 150 150 200 c 1
 100 200 l 1
 100 0 l 1
 0 0 l 1
 0 500 l 1xbc
EndSplineSet
Validated: 1
EndChar

StartChar: Upsilon1
Encoding: 978 978 476
Width: 500
Flags: W
HStem: 0 21G<100 200> 0 21G<100 200> 480 20G<0 100 200 380>
VStem: 0 100<353.094 500> 100 100<0 223.114>
LayerCount: 2
Fore
SplineSet
150 300 m 0
 100 350 100 425 100 500 c 1
 0 500 l 1x30
 0 350 24.87109375 302.61328125 100 200 c 1024x28
0 500 m 1
 100 500 l 1xb0
 100 425 100 350 150 300 c 1
 200 350 200 425 200 500 c 1
 250 500 l 1
 300 500 l 1
 400 475 l 1
 400 375 l 1
 300 400 l 1
 294.337890625 400 l 1
 283.390625 321.25390625 255.342773438 275.588867188 200 200 c 1
 200 0 l 1
 100 0 l 1
 100 200 l 1xa8
 24.8720703125 302.61328125 0 350 0 500 c 1
EndSplineSet
Validated: 3
EndChar

StartChar: alpha
Encoding: 945 945 479
Width: 500
Flags: HW
HStem: 0 100<118.568 178.192> 300 100<115.133 178.924>
VStem: 0 100<120.671 283.81>
AnchorPoint: "bottom" 200 0 basechar 0
AnchorPoint: "top" 200 400 basechar 0
LayerCount: 2
Fore
SplineSet
150 400 m 0
 225.579101562 401.248046875 250 325 250 325 c 1
 250 325 289.62109375 400 350 400 c 2
 400 400 l 1
 400 300 l 1
 400 300 325 300 300 200 c 1
 324.955078125 103.607421875 400 100 400 100 c 1
 400 0 l 1
 350 0 l 2
 300 0 250 75 250 75 c 1
 250 75 225 0 150 0 c 0
 75 0 0 75 0 200 c 0
 0 325 75.009765625 398.76171875 150 400 c 0
150 300 m 0
 125 300 100 281.762695312 100 225 c 2
 100 175 l 2
 100 125 129.783203125 99.216796875 150 100 c 0
 198.306640625 101.872070312 200 200 200 200 c 1
 200 200 200 300 150 300 c 0
EndSplineSet
EndChar

StartChar: gamma
Encoding: 947 947 480
Width: 400
Flags: HW
HStem: 380 20G<0 100 200 300>
VStem: 0 100<200.793 400> 100 100<-100 31.9062> 200 100<200.793 400>
AnchorPoint: "bottom" 100 0 basechar 0
AnchorPoint: "top" 100 400 basechar 0
LayerCount: 2
Fore
SplineSet
0 400 m 1xc0
 100 400 l 1
 100 300 l 2
 100 250 100 175 150 125 c 1
 200 175 200 250 200 300 c 2
 200 400 l 1
 300 400 l 1
 300 300 l 2xd0
 300 209.397460938 236.453125 70.166015625 200 -2.30859375 c 1
 200 -100 l 1
 100 -100 l 1
 100 -1.970703125 l 1xa0
 63.5458984375 70.951171875 0 210.766601562 0 300 c 2
 0 400 l 1xc0
EndSplineSet
EndChar

StartChar: delta
Encoding: 948 948 481
Width: 400
Flags: HW
HStem: 0 100<114.252 185.748> 200 100<114.599 186.095> 400 100<50 185.401>
VStem: 0 100<115.056 185.748> 200 100<115.056 185.466 314.534 385.748>
CounterMasks: 1 e0
AnchorPoint: "bottom" 100 0 basechar 0
AnchorPoint: "top" 100 400 basechar 0
LayerCount: 2
Fore
SplineSet
50 500 m 1
 150 500 l 2
 200 500 300 400 300 350 c 0
 300 323.306640625 271.495117188 282.37109375 237.31640625 250 c 1
 271.495117188 217.62890625 300 176.693359375 300 150 c 0
 300 87.7216796875 200 0 150 0 c 0
 100 0 0 87.7216796875 0 150 c 0
 0 200 100 300 150 300 c 0
 175 300 200 325 200 350 c 0
 200 375 175 400 150 400 c 2
 50 400 l 1
 50 500 l 1
150 200 m 0
 125 200 100 175 100 150 c 0
 100 125 125 100 150 100 c 0
 175 100 200 125 200 150 c 0
 200 175 175 200 150 200 c 0
EndSplineSet
EndChar

StartChar: epsilon
Encoding: 949 949 482
Width: 400
Flags: HW
HStem: 0 100<115.13 300> 175 75<101.123 300> 325 75<116.016 300>
VStem: 0 100<114.252 172.347 252.653 310.725>
AnchorPoint: "bottom" 100 0 basechar 0
AnchorPoint: "top" 100 400 basechar 0
LayerCount: 2
Fore
SplineSet
175 400 m 2
 300 400 l 1
 300 325 l 1
 150 325 l 2
 125 325 100 300 100 275 c 0
 100 250 125 250 150 250 c 2
 300 250 l 1
 300 175 l 1
 150 175 l 2
 125 175 100 175 100 150 c 0
 100 125 125 100 150 100 c 2
 300 100 l 1
 300 0 l 1
 150 0 l 2
 75 0 0 100 0 150 c 0
 0 176.883789062 6.4482421875 197.313476562 16.994140625 212.5 c 1
 6.4482421875 227.686523438 0 248.116210938 0 275 c 0
 0 325 100 400 175 400 c 2
EndSplineSet
EndChar

StartChar: zeta
Encoding: 950 950 483
Width: 400
Flags: HW
HStem: 0 100<127.419 186.095> 400 100<0 150 271.957 300>
VStem: 0 100<123.842 200.855> 200 100<-100 -13.9046>
AnchorPoint: "bottom" 100 0 basechar 0
AnchorPoint: "top" 100 400 basechar 0
LayerCount: 2
Fore
SplineSet
300 400 m 1
 200 350 100 200 100 150 c 0
 100 100 225 100 250 100 c 0
 275 100 300 75 300 50 c 2
 300 -100 l 1
 200 -100 l 1
 200 -50 l 2
 200 -25 175 0 150 0 c 0
 50 0 -3.47265625 47.5009765625 0 150 c 0
 2.5419921875 225.028320312 75 350 150 400 c 1
 0 400 l 1
 0 500 l 1
 300 500 l 1
 300 400 l 1
EndSplineSet
EndChar

StartChar: eta
Encoding: 951 951 484
Width: 400
Flags: HW
HStem: 0 21G<0 100> 0 21G<0 100> 300 100<100 179.329>
VStem: 0 100<0 300> 200 100<-100 279.329>
AnchorPoint: "bottom" 100 0 basechar 0
AnchorPoint: "top" 100 400 basechar 0
LayerCount: 2
Fore
SplineSet
0 400 m 1xb8
 100 400 l 2
 225 400 300 325 300 200 c 2
 300 -100 l 1
 200 -100 l 1
 200 225 l 2
 200 281.76171875 175 300 125 300 c 2
 100 300 l 1
 100 0 l 1
 0 0 l 1
 0 400 l 1xb8
EndSplineSet
EndChar

StartChar: theta
Encoding: 952 952 485
Width: 400
Flags: HW
HStem: 0 100<114.517 185.483> 200 100<100 200> 400 100<114.517 185.483>
VStem: 0 100<116.016 200 300 383.984> 200 100<116.016 200 300 383.984>
CounterMasks: 1 e0
AnchorPoint: "bottom" 100 0 basechar 0
AnchorPoint: "top" 100 400 basechar 0
LayerCount: 2
Fore
SplineSet
150 500 m 0
 225 500 300 400 300 325 c 2
 300 175 l 2
 300 100 225 0 150 0 c 0
 75 0 0 100 0 175 c 2
 0 325 l 2
 0 400 75 500 150 500 c 0
150 400 m 0
 125 400 100 375 100 350 c 2
 100 300 l 1
 200 300 l 1
 200 350 l 2
 200 375 175 400 150 400 c 0
100 200 m 1
 100 150 l 2
 100 125 125 100 150 100 c 0
 175 100 200 125 200 150 c 2
 200 200 l 1
 100 200 l 1
EndSplineSet
EndChar

StartChar: iota
Encoding: 953 953 486
Width: 200
Flags: HW
HStem: 0 21G<0 100> 0 21G<0 100> 380 20G<0 100>
VStem: 0 100<0 400>
AnchorPoint: "bottom" 0 0 basechar 0
AnchorPoint: "top" 0 400 basechar 0
LayerCount: 2
Fore
SplineSet
0 0 m 1xb0
 0 400 l 1
 100 400 l 1
 100 0 l 1
 0 0 l 1xb0
EndSplineSet
EndChar

StartChar: kappa
Encoding: 954 954 487
Width: 400
Flags: HW
HStem: 0 21G<0 100 200 300> 0 21G<0 100 200 300> 380 20G<0 100 200 300>
VStem: 0 100<0 150 250 400> 200 100<0.0182194 88.0303 311.97 400>
AnchorPoint: "bottom" 100 0 basechar 0
AnchorPoint: "top" 100 400 basechar 0
LayerCount: 2
Fore
SplineSet
0 0 m 1xb8
 0 400 l 1
 100 400 l 1
 100 250 l 1
 125 250 l 1
 175 300 200 325 200 350 c 2
 200 400 l 1
 300 400 l 1
 300 350 l 2
 300 308.333007812 200 200 200 200 c 1
 200 200 300 91.6669921875 300 50 c 2
 300 0 l 1
 200 0 l 1
 200 0 200.534179688 25.005859375 200 50 c 0
 199.375976562 79.189453125 175 100 125 150 c 1
 100 150 l 1
 100 0 l 1
 0 0 l 1xb8
EndSplineSet
EndChar

StartChar: lambda
Encoding: 955 955 488
Width: 400
Flags: HW
HStem: 0 21G<0 100 200 300> 0 21G<0 100 200 300> 400 100<0 76.7233>
VStem: 0 100<0 136.842> 200 100<0 137.686>
AnchorPoint: "bottom" 100 0 basechar 0
AnchorPoint: "top" 100 400 basechar 0
LayerCount: 2
Fore
SplineSet
0 500 m 1xb8
 75 500 l 2
 125 500 150 450 175 400 c 0
 200 350 300 150 300 50 c 2
 300 0 l 1
 200 0 l 1
 200 25 l 2
 200 75 201.87109375 101.916992188 150 225 c 1
 100 100 100 75 100 25 c 2
 100 0 l 1
 0 0 l 1
 0 50 l 2
 0 128.212890625 62.1650390625 266.584960938 100.302734375 347.5703125 c 1
 83.53515625 377.46875 66.767578125 400 50 400 c 2
 0 400 l 1
 0 500 l 1xb8
EndSplineSet
EndChar

StartChar: uni03BC
Encoding: 956 956 489
Width: 400
Flags: HW
HStem: 0 100<113.833 185.483> 380 20G<0 100 200 300>
VStem: 0 100<-100 10.668 113.905 400> 200 100<115.13 400>
AnchorPoint: "bottom" 100 0 basechar 0
AnchorPoint: "top" 100 400 basechar 0
LayerCount: 2
Fore
SplineSet
0 400 m 1
 100 400 l 1
 100 150 l 2
 100 125 125 100 150 100 c 0
 175 100 200 125 200 150 c 2
 200 400 l 1
 300 400 l 1
 300 150 l 2
 300 75 225 0 150 0 c 0
 133.041015625 0 116.091796875 3.865234375 100 10.66796875 c 1
 100 -100 l 1
 0 -100 l 1
 0 150 l 1
 0 400 l 1
EndSplineSet
EndChar

StartChar: nu
Encoding: 957 957 490
Width: 400
Flags: HW
HStem: 0 21G<113.629 187.5> 0 21G<113.629 187.5> 380 20G<0 100 200 300>
VStem: 0 100<266.45 400> 200 100<262.314 400>
AnchorPoint: "bottom" 100 0 basechar 0
AnchorPoint: "top" 100 400 basechar 0
LayerCount: 2
Fore
SplineSet
175 0 m 1xb8
 125 0 l 1
 102.258789062 50.1884765625 0 250 0 350 c 2
 0 400 l 1
 100 400 l 1
 100 375 l 2
 100 325 100 300 150 175 c 1
 201.872070312 298.083007812 200 325 200 375 c 2
 200 400 l 1
 300 400 l 1
 300 350 l 2
 300 250 200 50 175 0 c 1xb8
EndSplineSet
EndChar

StartChar: xi
Encoding: 958 958 491
Width: 400
Flags: HW
HStem: 0 100<110.602 186.095> 200 100<217.419 300> 400 100<0 110.641 213.905 300>
VStem: 0 100<114.126 189.037> 100 100<313.951 386.16> 200 100<-100 -13.9046>
CounterMasks: 1 e0
AnchorPoint: "bottom" 100 0 basechar 0
AnchorPoint: "top" 100 400 basechar 0
LayerCount: 2
Fore
SplineSet
0 500 m 1xf0
 300 500 l 1
 300 400 l 1xf4
 250 400 l 2
 225 400 200 375 200 350 c 0xe8
 200 325 225 300 250 300 c 2
 300 300 l 1
 300 200 l 1
 250 200 l 2
 125 200 100 200 100 150 c 0
 100 100 129.412109375 100 250 100 c 0
 275 100 300 75 300 50 c 2
 300 -100 l 1
 200 -100 l 1
 200 -50 l 2
 200 -25 175 0 150 0 c 0
 50 0 -3.47265625 47.5009765625 0 150 c 0xf4
 1.7822265625 202.6015625 37.9970703125 255.137695312 119.751953125 281.8671875 c 1
 107.353515625 303.044921875 100 326.521484375 100 350 c 0xe8
 100 366.932617188 103.854492188 383.888671875 110.640625 400 c 1
 0 400 l 1
 0 500 l 1xf0
EndSplineSet
EndChar

StartChar: omicron
Encoding: 959 959 492
Width: 400
Flags: HW
HStem: 0 100<114.517 185.483> 300 100<114.517 185.483>
VStem: 0 100<116.016 283.984> 200 100<114.199 283.984>
AnchorPoint: "bottom" 100 0 basechar 0
AnchorPoint: "top" 100 400 basechar 0
LayerCount: 2
Fore
SplineSet
150 400 m 0
 225 400 300 300 300 225 c 2
 300 175 l 2
 300 104.453125 225 0 150 0 c 0
 75 0 0 100 0 175 c 2
 0 225 l 2
 0 300 75 400 150 400 c 0
150 300 m 0
 125 300 100 275 100 250 c 2
 100 150 l 2
 100 125 125 100 150 100 c 0
 175 100 200 125 200 150 c 2
 200 250 l 2
 200 275 175 300 150 300 c 0
EndSplineSet
EndChar

StartChar: pi
Encoding: 960 960 493
Width: 400
Flags: HW
HStem: 0 21G<0 100 198.333 300> 0 21G<0 100 198.333 300> 300 100<100 175 275 300>
VStem: 0 100<0 300>
AnchorPoint: "bottom" 100 0 basechar 0
AnchorPoint: "top" 100 400 basechar 0
LayerCount: 2
Fore
SplineSet
0 400 m 1xb0
 300 400 l 1
 300 300 l 1
 275 300 l 1
 300 0 l 1
 200 0 l 1
 175 300 l 1
 100 300 l 1
 100 0 l 1
 0 0 l 1
 0 300 l 1
 0 400 l 1xb0
EndSplineSet
EndChar

StartChar: rho
Encoding: 961 961 494
Width: 400
Flags: HW
HStem: 0 100<113.833 185.483> 300 100<114.517 185.483>
VStem: 0 100<-100 13.9316 113.905 283.984> 200 100<114.199 283.984>
AnchorPoint: "bottom" 100 0 basechar 0
AnchorPoint: "top" 100 400 basechar 0
LayerCount: 2
Fore
SplineSet
150 400 m 0
 225 400 300 300 300 225 c 2
 300 175 l 2
 300 104.453125 225 0 150 0 c 0
 133.041015625 0 116.091796875 5.1513671875 100 13.931640625 c 1
 100 -100 l 1
 0 -100 l 1
 0 175 l 1
 0 200 l 1
 0 225 l 2
 0 300 75 400 150 400 c 0
150 300 m 0
 125 300 100 275 100 250 c 2
 100 200 l 1
 100 150 l 2
 100 125 125 100 150 100 c 0
 175 100 200 125 200 150 c 2
 200 250 l 2
 200 275 175 300 150 300 c 0
EndSplineSet
EndChar

StartChar: sigma1
Encoding: 962 962 495
Width: 400
Flags: HW
HStem: 0 100<115.13 186.095> 300 100<115.13 300>
VStem: 0 100<116.016 283.984> 200 100<-100 -13.9046>
AnchorPoint: "bottom" 100 0 basechar 0
AnchorPoint: "top" 100 400 basechar 0
LayerCount: 2
Fore
SplineSet
150 400 m 2
 300 400 l 1
 300 300 l 1
 150 300 l 2
 125 300 100 275 100 250 c 2
 100 150 l 2
 100 125 125 100 150 100 c 2
 250 100 l 2
 275 100 300 75 300 50 c 2
 300 -100 l 1
 200 -100 l 1
 200 -50 l 2
 200 -25 175 0 150 0 c 0
 75 0 0 100 0 175 c 2
 0 225 l 2
 0 300 75 400 150 400 c 2
EndSplineSet
EndChar

StartChar: sigma
Encoding: 963 963 496
Width: 400
Flags: HW
HStem: 0 100<114.517 185.483> 300 100<115.13 186.095 279.695 350>
VStem: 0 100<116.016 283.984> 200 100<114.199 285.89>
AnchorPoint: "bottom" 100 0 basechar 0
AnchorPoint: "top" 100 400 basechar 0
LayerCount: 2
Fore
SplineSet
150 400 m 2
 350 400 l 1
 350 300 l 1
 279.6953125 300 l 1
 292.41796875 275.145507812 300 248.815429688 300 225 c 2
 300 175 l 2
 300 104.453125 225 0 150 0 c 0
 75 0 0 100 0 175 c 2
 0 225 l 2
 0 300 75 400 150 400 c 2
150 300 m 0
 125 300 100 275 100 250 c 2
 100 150 l 2
 100 125 125 100 150 100 c 0
 175 100 200 125 200 150 c 2
 200 250 l 2
 200 275 175 300 150 300 c 0
EndSplineSet
EndChar

StartChar: tau
Encoding: 964 964 497
Width: 400
Flags: HW
HStem: 0 21G<100 200> 0 21G<100 200> 300 100<0 100 200 300>
VStem: 100 100<0 300>
AnchorPoint: "bottom" 100 0 basechar 0
AnchorPoint: "top" 100 400 basechar 0
LayerCount: 2
Fore
SplineSet
0 400 m 1xb0
 300 400 l 1
 300 300 l 1
 200 300 l 1
 200 0 l 1
 100 0 l 1
 100 300 l 1
 0 300 l 1
 0 400 l 1xb0
EndSplineSet
EndChar

StartChar: upsilon
Encoding: 965 965 498
Width: 400
Flags: HW
HStem: 0 100<114.517 185.483> 380 20G<0 100 200 300>
VStem: 0 100<115.13 400> 200 100<115.13 400>
AnchorPoint: "bottom" 100 0 basechar 0
AnchorPoint: "top" 100 400 basechar 0
LayerCount: 2
Fore
SplineSet
0 400 m 1
 100 400 l 1
 100 150 l 2
 100 125 125 100 150 100 c 0
 175 100 200 125 200 150 c 2
 200 400 l 1
 300 400 l 1
 300 150 l 2
 300 75 225 0 150 0 c 0
 75 0 0 75 0 150 c 2
 0 400 l 1
EndSplineSet
EndChar

StartChar: phi
Encoding: 966 966 499
Width: 400
Flags: HW
HStem: 380 20G<112.5 187.5>
VStem: 0 75<131.002 270.432> 100 100<-100 18.1027> 125 50<105.85 293.936> 225 75<129.568 267.542>
AnchorPoint: "bottom" 100 0 basechar 0
AnchorPoint: "top" 100 400 basechar 0
LayerCount: 2
Fore
SplineSet
150 400 m 0xe8
 225 400 300 325 300 250 c 2
 300 150 l 2
 300 95.4052734375 255.073242188 35.5078125 200 11.197265625 c 1
 200 -100 l 1
 100 -100 l 1
 100 10.66796875 l 1
 44.9267578125 33.9482421875 0 91.958984375 0 150 c 2
 0 250 l 2
 0 325 75 400 150 400 c 0xe8
125 294.150390625 m 1xd8
 101.086914062 284.125 75 261.123046875 75 225 c 2
 75 175 l 2
 75 138.876953125 101.086914062 115.875 125 105.849609375 c 1
 125 294.150390625 l 1xd8
175 293.935546875 m 1
 175 105.849609375 l 1
 198.913085938 115.875 225 138.876953125 225 175 c 2
 225 225 l 2
 225 260.189453125 198.913085938 283.607421875 175 293.935546875 c 1
EndSplineSet
EndChar

StartChar: chi
Encoding: 967 967 500
Width: 400
Flags: HW
HStem: 380 20G<0 100 200 300>
VStem: 0 100<-100 47.6793 252.321 400> 200 100<-100 47.6793 252.321 400>
AnchorPoint: "bottom" 100 0 basechar 0
AnchorPoint: "top" 100 400 basechar 0
LayerCount: 2
Fore
SplineSet
0 400 m 1
 100 400 l 1
 100 325 100 250 150 200 c 1
 200 250 200 325 200 400 c 1
 300 400 l 1
 300 276.48046875 283.057617188 222.4921875 235.15234375 150 c 1
 283.057617188 77.5078125 300 23.51953125 300 -100 c 1
 200 -100 l 1
 200 -25 200 50 150 100 c 1
 100 50 100 -25 100 -100 c 1
 0 -100 l 1
 0 23.51953125 16.9423828125 77.5078125 64.84765625 150 c 1
 16.9423828125 222.4921875 0 276.48046875 0 400 c 1
EndSplineSet
EndChar

StartChar: psi
Encoding: 968 968 501
Width: 600
Flags: HW
HStem: 0 100<115.13 200 300 384.87> 380 20G<0 100 400 500> 480 20G<200 300>
VStem: 0 100<116.016 400> 200 100<-100 0 100 500> 400 100<116.016 400>
CounterMasks: 1 1c
AnchorPoint: "bottom" 200 0 basechar 0
AnchorPoint: "top" 200 400 basechar 0
LayerCount: 2
Fore
SplineSet
200 500 m 1
 300 500 l 1
 300 100 l 1
 350 100 l 2
 375 100 400 125 400 150 c 2
 400 200 l 1
 400 400 l 1
 500 400 l 1
 500 200 l 1
 500 175 l 2
 500 100 425 0 350 0 c 2
 300 0 l 1
 300 -100 l 1
 200 -100 l 1
 200 0 l 1
 150 0 l 2
 75 0 0 100 0 175 c 2
 0 200 l 1
 0 400 l 1
 100 400 l 1
 100 200 l 1
 100 150 l 2
 100 125 125 100 150 100 c 2
 200 100 l 1
 200 500 l 1
EndSplineSet
EndChar

StartChar: omega
Encoding: 969 969 502
Width: 600
Flags: HW
HStem: 0 100<114.517 185.683 314.317 385.483> 380 20G<0 100 200 300 400 500>
VStem: 0 100<115.13 400> 200 100<113.905 400> 400 100<115.13 400>
CounterMasks: 1 38
AnchorPoint: "bottom" 200 0 basechar 0
AnchorPoint: "top" 200 400 basechar 0
LayerCount: 2
Fore
SplineSet
0 400 m 1
 100 400 l 1
 100 150 l 2
 100 125 125 100 150 100 c 0
 175 100 200 125 200 150 c 2
 200 400 l 1
 300 400 l 1
 300 150 l 2
 300 125 325 100 350 100 c 0
 375 100 400 125 400 150 c 2
 400 400 l 1
 500 400 l 1
 500 150 l 2
 500 75 425 0 350 0 c 0
 313.861328125 0 277.748046875 17.4404296875 250 43.876953125 c 1
 222.251953125 17.4404296875 186.138671875 0 150 0 c 0
 75 0 0 75 0 150 c 2
 0 400 l 1
EndSplineSet
EndChar

StartChar: omega1
Encoding: 982 982 515
Width: 600
Flags: W
HStem: 0 100<114.517 185.683 314.317 385.483> 300 100<100 200 300 400>
VStem: 0 100<115.13 300> 200 100<113.905 300> 400 100<115.13 300>
CounterMasks: 1 38
LayerCount: 2
Fore
SplineSet
0 400 m 1
 25 400 l 1
 100 400 l 1
 200 400 l 1
 300 400 l 1
 475 400 l 1
 500 400 l 1
 500 150 l 2
 500 75 425 0 350 0 c 0
 313.861328125 0 277.748046875 17.4404296875 250 43.876953125 c 1
 222.251953125 17.4404296875 186.138671875 0 150 0 c 0
 75 0 0 75 0 150 c 2
 0 400 l 1
100 300 m 1
 100 150 l 2
 100 125 125 100 150 100 c 0
 175 100 200 125 200 150 c 2
 200 300 l 1
 100 300 l 1
300 300 m 1
 300 150 l 2
 300 125 325 100 350 100 c 0
 375 100 400 125 400 150 c 2
 400 300 l 1
 300 300 l 1
EndSplineSet
Validated: 1
EndChar

StartChar: uni03D0
Encoding: 976 976 516
Width: 400
Flags: W
HStem: 0 100<100 185.401> 400 100<116.644 185.748>
VStem: 0 100<100 382.41> 200 100<115.056 185.478 314.544 385.748>
LayerCount: 2
Fore
SplineSet
150 500 m 0
 200 500 300 400 300 350 c 0
 300 323.302734375 271.431640625 282.4375 237.24609375 250.064453125 c 1
 271.455078125 217.68359375 300 176.7109375 300 150 c 0
 300 87.7216796875 200 0 150 0 c 2
 100 0 l 1
 0 0 l 1
 0 350 l 2
 0 400 100 500 150 500 c 0
150 400 m 0
 125 400 100.193359375 371.626953125 100 350 c 2
 100 100 l 1
 150 100 l 2
 175 100 200 125 200 150 c 0
 200 175 175 200 150 200 c 1
 150 300 l 1
 175 300 200 325 200 350 c 0
 200 375 175 400 150 400 c 0
EndSplineSet
Validated: 1
EndChar

StartChar: phi1
Encoding: 981 981 517
Width: 400
Flags: W
VStem: 0 75<129.568 270.432> 100 100<-100 12.7378 387.262 525> 125 50<105.85 294.15> 225 75<129.568 270.432>
LayerCount: 2
Fore
SplineSet
100 525 m 1xd0
 200 525 l 1
 200 392.595703125 l 1
 255.073242188 376.0859375 300 333.041015625 300 275 c 2
 300 125 l 2
 300 70.404296875 255.073242188 25.47265625 200 7.93359375 c 1
 200 -100 l 1
 100 -100 l 1
 100 7.404296875 l 1
 44.9267578125 23.9140625 0 66.958984375 0 125 c 2
 0 275 l 2
 0 333.041015625 44.9267578125 376.0859375 100 392.595703125 c 1
 100 525 l 1xd0
125 294.150390625 m 1xb0
 101.086914062 284.125 75 261.123046875 75 225 c 2
 75 175 l 2
 75 138.876953125 101.086914062 115.875 125 105.849609375 c 1
 125 294.150390625 l 1xb0
175 294.150390625 m 1
 175 105.849609375 l 1
 198.913085938 115.875 225 138.876953125 225 175 c 2
 225 225 l 2
 225 261.123046875 198.913085938 284.125 175 294.150390625 c 1
EndSplineSet
Validated: 1
EndChar

StartChar: uni03D7
Encoding: 983 983 518
Width: 400
Flags: W
HStem: 0 21G<0 100> 0 21G<0 100> 380 20G<0 100 200 300>
VStem: 175 125<-86.0954 -25> 175 100<36.9141 200>
LayerCount: 2
Fore
SplineSet
0 400 m 1xa8
 100 400 l 1
 100 400 114.330078125 342.586914062 121.287109375 271.287109375 c 1
 187.5 337.5 l 1
 193.75 375 200 400 200 400 c 1
 300 400 l 1xb0
 300 400 275 300 275 200 c 0xa8
 275 100 300 0 300 0 c 1
 300 -50 l 2x70
 300 -75 275 -100 250 -100 c 2
 175 -100 l 1x68
 175 -25 l 1
 200 -25 200 0 200 0 c 1x70
 200 0 175 100 175 200 c 1
 122.9296875 147.9296875 l 1
 116.96484375 68.015625 100 0 100 0 c 1
 0 0 l 1
 0 0 25 100 25 200 c 0
 25 300 0 400 0 400 c 1xa8
EndSplineSet
Validated: 1
EndChar

StartChar: uni0402
Encoding: 1026 1026 519
Width: 500
Flags: W
HStem: 0 21G<100 200> 0 21G<100 200> 200 100<200 279.329> 400 100<0 100 200 400>
VStem: 100 100<0 200 300 400> 300 100<-23.0677 179.329>
LayerCount: 2
Fore
SplineSet
0 500 m 1xbc
 100 500 l 1
 200 500 l 1
 400 500 l 1
 400 400 l 1
 200 400 l 1
 200 300 l 1
 324.999023438 300 400 224.999023438 400 100 c 2
 400 50 l 1
 400 0 l 2
 400 -72.6494140625 350 -125 300 -125 c 2
 275 -125 l 1
 275 -25 l 1
 275 -25 300 -25 300 0 c 2x7c
 300 125 l 2
 300 181.76171875 275 200 225 200 c 2
 200 200 l 1
 200 0 l 1
 100 0 l 1
 100 400 l 1
 0 400 l 1
 0 500 l 1xbc
EndSplineSet
Validated: 1
EndChar

StartChar: uni0404
Encoding: 1028 1028 520
Width: 400
Flags: W
HStem: 0 100<114.517 198.655> 200 100<100 200> 400 100<114.517 198.655>
VStem: 0 100<115.13 200 300 384.87>
CounterMasks: 1 e0
LayerCount: 2
Fore
SplineSet
150 500 m 0
 225 500 300 450 300 375 c 1
 200 375 l 1
 200 400 175 400 150 400 c 0
 125 400 100 375 100 350 c 2
 100 300 l 1
 200 300 l 1
 200 200 l 1
 100 200 l 1
 100 150 l 2
 100 125 125 100 150 100 c 0
 175 100 200 100 200 125 c 1
 300 125 l 1
 300 50 225 0 150 0 c 0
 75 0 0 75 0 150 c 2
 0 350 l 2
 0 425 75 500 150 500 c 0
EndSplineSet
Validated: 1
EndChar

StartChar: uni0405
Encoding: 1029 1029 521
Width: 400
Flags: W
HStem: 0 100<101.345 185.483> 200 100<115.13 184.87> 400 100<114.517 198.48>
VStem: 0 100<104.586 125 314.517 385.483> 200 100<114.517 185.483 375 395.414>
CounterMasks: 1 e0
LayerCount: 2
Fore
SplineSet
150 500 m 0
 225 500 300 450 300 375 c 1
 200 375 l 1
 199.806640625 396.626953125 175 400 150 400 c 0
 125 400 100 375 100 350 c 0
 100 325 125 300 150 300 c 0
 225 300 300 225 300 150 c 0
 300 75 225 0 150 0 c 0
 75 0 0 50 0 125 c 1
 100 125 l 1
 100 100 125 100 150 100 c 0
 175 100 200 125 200 150 c 0
 200 175 175 200 150 200 c 0
 75 200 0 275 0 350 c 0
 0 425 75 500 150 500 c 0
EndSplineSet
Validated: 1
EndChar

StartChar: uni0406
Encoding: 1030 1030 522
Width: 200
Flags: W
HStem: 0 21G<0 100> 0 21G<0 100> 480 20G<0 100>
VStem: 0 100<0 500>
LayerCount: 2
Fore
SplineSet
0 0 m 1xb0
 0 500 l 1
 100 500 l 1
 100 0 l 1
 0 0 l 1xb0
EndSplineSet
Validated: 1
EndChar

StartChar: uni0408
Encoding: 1032 1032 523
Width: 300
Flags: W
HStem: 0 100<0 84.8701> 480 20G<100 200>
VStem: 100 100<115.13 500>
LayerCount: 2
Fore
SplineSet
100 500 m 1
 200 500 l 1
 200 150 l 2
 200 75 125 0 50 0 c 2
 0 0 l 1
 0 100 l 1
 50 100 l 2
 75 100 100 125 100 150 c 2
 100 500 l 1
EndSplineSet
Validated: 1
EndChar

StartChar: uni0409
Encoding: 1033 1033 524
Width: 600
Flags: W
HStem: 0 100<300 384.87> 200 100<300 383.984> 400 100<150 200>
VStem: 0 100<0 289.034> 200 100<100 200 300 400> 400 100<114.517 185.483>
CounterMasks: 1 fc
LayerCount: 2
Fore
SplineSet
75 500 m 1
 200 500 l 1
 300 500 l 1
 300 300 l 1
 325 300 l 2
 400 300 500 225 500 150 c 0
 500 75 425 0 350 0 c 2
 300 0 l 1
 200 0 l 1
 200 100 l 1
 200 200 l 1
 200 300 l 1
 200 400 l 1
 150 400 l 1
 150 400 100 275 100 150 c 2
 100 0 l 1
 0 0 l 1
 0 150 l 2
 0 300 75 500 75 500 c 1
300 200 m 1
 300 100 l 1
 350 100 l 2
 375 100 400 125 400 150 c 0
 400 175 375 200 350 200 c 2
 300 200 l 1
EndSplineSet
Validated: 1
EndChar

StartChar: uni040A
Encoding: 1034 1034 525
Width: 600
Flags: W
HStem: 0 100<300 384.87> 200 100<100 200 300 383.984> 480 20G<0 100 200 300>
VStem: 0 100<0 200 300 500> 200 100<100 200 300 500> 400 100<114.517 185.483>
CounterMasks: 1 1c
LayerCount: 2
Fore
SplineSet
0 500 m 1
 100 500 l 1
 100 300 l 1
 200 300 l 1
 200 500 l 1
 300 500 l 1
 300 300 l 1
 325 300 l 2
 400 300 500 225 500 150 c 0
 500 75 425 0 350 0 c 2
 300 0 l 1
 200 0 l 1
 200 100 l 1
 200 200 l 1
 100 200 l 1
 100 0 l 1
 0 0 l 1
 0 500 l 1
300 200 m 1
 300 100 l 1
 350 100 l 2
 375 100 400 125 400 150 c 0
 400 175 375 200 350 200 c 2
 300 200 l 1
EndSplineSet
Validated: 1
EndChar

StartChar: uni040B
Encoding: 1035 1035 526
Width: 500
Flags: W
HStem: 0 21G<100 200 300 400> 0 21G<100 200 300 400> 200 100<200 279.329> 400 100<0 100 200 400>
VStem: 100 100<0 200 300 400> 300 100<0 179.329>
LayerCount: 2
Fore
SplineSet
0 500 m 1xbc
 100 500 l 1
 200 500 l 1
 400 500 l 1
 400 400 l 1
 200 400 l 1
 200 300 l 1
 325 300 400 224.999023438 400 100 c 2
 400 0 l 1
 300 0 l 1
 300 125 l 2
 300 181.76171875 275 200 225 200 c 2
 200 200 l 1
 200 0 l 1
 100 0 l 1
 100 400 l 1
 0 400 l 1
 0 500 l 1xbc
EndSplineSet
Validated: 1
EndChar

StartChar: uni040F
Encoding: 1039 1039 527
Width: 400
Flags: W
HStem: 480 20G<0 100 200 300>
VStem: 0 100<100 500> 100 100<-100 0> 200 100<100 500>
LayerCount: 2
Fore
SplineSet
0 500 m 1xc0
 100 500 l 1
 100 100 l 1
 200 100 l 1
 200 500 l 1
 300 500 l 1
 300 0 l 1xd0
 200 0 l 1
 200 -100 l 1
 100 -100 l 1
 100 0 l 1xa0
 0 0 l 1
 0 500 l 1xc0
EndSplineSet
Validated: 1
EndChar

StartChar: uni0410
Encoding: 1040 1040 528
Width: 400
Flags: HW
HStem: 0 21G<0 100 200 300> 0 21G<0 100 200 300> 100 100<112.451 186.432> 480 20G<125 175>
VStem: 0 100<0 100> 200 100<0 100>
AnchorPoint: "bottom" 100 0 basechar 0
LayerCount: 2
Fore
SplineSet
125 500 m 1xbc
 175 500 l 1
 175 500 300 225 300 100 c 2
 300 0 l 1
 200 0 l 1
 200 100 l 1
 100 100 l 1
 100 0 l 1
 0 0 l 1
 0 100 l 2
 0 225 125 500 125 500 c 1xbc
150 300 m 1
 134.203125 285.236328125 121.236328125 243.140625 112.451171875 200 c 1
 186.431640625 200 l 1
 176.874023438 244.10546875 163.455078125 286.544921875 150 300 c 1
EndSplineSet
Substitution2: "SmallCaps" uni0410.smallcaps
EndChar

StartChar: uni0411
Encoding: 1041 1041 529
Width: 400
Flags: HW
HStem: 0 100<100 184.87> 200 100<100 183.984> 400 100<100 275>
VStem: 0 100<100 200 300 400> 200 100<114.517 185.483>
CounterMasks: 1 e0
AnchorPoint: "bottom" 100 0 basechar 0
LayerCount: 2
Fore
SplineSet
0 500 m 1
 275 500 l 1
 275 400 l 1
 100 400 l 1
 100 300 l 1
 125 300 l 2
 200 300 300 225 300 150 c 0
 300 75 225 0 150 0 c 2
 100 0 l 1
 0 0 l 1
 0 100 l 1
 0 200 l 1
 0 300 l 1
 0 400 l 1
 0 500 l 1
100 200 m 1
 100 100 l 1
 150 100 l 2
 175 100 200 125 200 150 c 0
 200 175 175 200 150 200 c 2
 100 200 l 1
EndSplineSet
Substitution2: "SmallCaps" uni0411.smallcaps
EndChar

StartChar: uni0412
Encoding: 1042 1042 530
Width: 400
Flags: HW
HStem: 0 100<100 184.87> 200 100<100 160.477> 400 100<100 159.87>
VStem: 0 100<100 200 300 400> 175 100<314.108 385.483> 200 100<114.517 185.656>
CounterMasks: 1 e0
AnchorPoint: "bottom" 100 0 basechar 0
LayerCount: 2
Fore
SplineSet
0 500 m 1xf4
 100 500 l 1
 125 500 l 2
 200 500 275 425 275 350 c 0xf8
 275 319.28125 262.405273438 288.571289062 242.39453125 263.005859375 c 1
 276.376953125 234.171875 300 192.087890625 300 150 c 0
 300 75 225 0 150 0 c 2
 100 0 l 1
 0 0 l 1
 0 100 l 1
 0 200 l 1
 0 300 l 1
 0 400 l 1
 0 500 l 1xf4
100 400 m 1
 100 300 l 1
 125 300 l 2
 150 300 175 325 175 350 c 0
 175 375 150 400 125 400 c 2
 100 400 l 1
100 200 m 1
 100 100 l 1
 150 100 l 2
 175 100 200 125 200 150 c 0xf4
 200 175 175 200 150 200 c 2
 125 200 l 1
 100 200 l 1
EndSplineSet
Substitution2: "SmallCaps" uni0412.smallcaps
EndChar

StartChar: uni0413
Encoding: 1043 1043 531
Width: 400
Flags: HW
HStem: 0 21G<0 100> 0 21G<0 100> 400 100<100 300>
VStem: 0 100<0 400>
AnchorPoint: "bottom" 100 0 basechar 0
LayerCount: 2
Fore
SplineSet
0 500 m 1xb0
 100 500 l 1
 300 500 l 1
 300 400 l 1
 100 400 l 1
 100 0 l 1
 0 0 l 1
 0 500 l 1xb0
EndSplineSet
Substitution2: "SmallCaps" uni0413.smallcaps
EndChar

StartChar: uni0414
Encoding: 1044 1044 532
Width: 400
Flags: HW
HStem: 0 100<100 200> 400 100<150 200>
VStem: 0 100<100 289.034> 0 75<-100 0> 200 100<100 400> 300 75<-100 0>
AnchorPoint: "bottom" 100 0 basechar 0
LayerCount: 2
Fore
SplineSet
75 500 m 1xd0
 300 500 l 1xd4
 300 100 l 1xc8
 375 100 l 1
 375 -100 l 1
 300 -100 l 1
 300 0 l 1xc4
 200 0 l 1
 100 0 l 1xe8
 75 0 l 1
 75 -100 l 1
 0 -100 l 1
 0 0 l 1xd0
 0 100 l 1
 0 150 l 2xe0
 0 300 75 500 75 500 c 1xd0
150 400 m 1
 150 400 100 275 100 150 c 2
 100 100 l 1
 200 100 l 1
 200 400 l 1xe8
 150 400 l 1
EndSplineSet
Substitution2: "SmallCaps" uni0414.smallcaps
EndChar

StartChar: uni0415
Encoding: 1045 1045 533
Width: 400
Flags: HW
HStem: 0 100<100 300> 200 100<100 225> 400 100<100 300>
VStem: 0 100<100 200 300 400>
CounterMasks: 1 e0
AnchorPoint: "bottom" 100 0 basechar 0
LayerCount: 2
Fore
SplineSet
0 0 m 1
 0 500 l 1
 300 500 l 1
 300 400 l 1
 100 400 l 1
 100 300 l 1
 225 300 l 1
 225 200 l 1
 100 200 l 1
 100 100 l 1
 300 100 l 1
 300 0 l 1
 100 0 l 1
 0 0 l 1
EndSplineSet
Substitution2: "SmallCaps" uni0415.smallcaps
EndChar

StartChar: uni0416
Encoding: 1046 1046 534
Width: 600
Flags: HW
HStem: 0 21G<0 100 200 300 400 500> 0 21G<0 100 200 300 400 500> 200 100<135.323 200 300 364.677> 480 20G<0 100 200 300 400 500>
VStem: 0 100<0 147.679 352.321 500> 200 100<0 200 300 500> 400 100<0 147.679 352.321 500>
CounterMasks: 1 0e
AnchorPoint: "bottom" 200 0 basechar 0
LayerCount: 2
Fore
SplineSet
0 500 m 1xbe
 100 500 l 1
 100 425 100 350 150 300 c 1
 200 300 l 1
 200 500 l 1
 300 500 l 1
 300 300 l 1
 350 300 l 1
 400 350 400 425 400 500 c 1
 500 500 l 1
 500 376.481445312 483.057617188 322.4921875 435.15234375 250 c 1
 483.057617188 177.5078125 500 123.518554688 500 0 c 1
 400 0 l 1
 400 75 400 150 350 200 c 1
 300 200 l 1
 300 0 l 1
 200 0 l 1
 200 200 l 1
 150 200 l 1
 100 150 100 75 100 0 c 1
 0 0 l 1
 0 123.518554688 16.9423828125 177.5078125 64.84765625 250 c 1
 16.9423828125 322.4921875 -0 376.481445312 0 500 c 1xbe
EndSplineSet
Substitution2: "SmallCaps" uni0416.smallcaps
EndChar

StartChar: uni0417
Encoding: 1047 1047 535
Width: 400
Flags: HW
HStem: 0 100<0 183.984> 200 100<25 186.095> 400 100<0 183.984>
VStem: 200 100<114.517 185.683 314.317 385.483>
CounterMasks: 1 e0
AnchorPoint: "bottom" 100 0 basechar 0
LayerCount: 2
Fore
SplineSet
0 500 m 1
 125 500 l 2
 200 500 300 425 300 350 c 0
 300 313.861328125 276.75390625 277.748046875 244.302734375 250 c 1
 276.75390625 222.251953125 300 186.138671875 300 150 c 0
 300 75 200 0 125 0 c 2
 0 0 l 1
 0 100 l 1
 150 100 l 2
 175 100 200 125 200 150 c 0
 200 175 175 200 150 200 c 2
 125 200 l 1
 25 200 l 1
 25 300 l 1
 125 300 l 1
 150 300 l 2
 175 300 200 325 200 350 c 0
 200 375 175 400 150 400 c 2
 0 400 l 1
 0 500 l 1
EndSplineSet
Substitution2: "SmallCaps" uni0417.smallcaps
EndChar

StartChar: uni0418
Encoding: 1048 1048 536
Width: 500
Flags: HW
HStem: 0 21G<0 100 300 400> 0 21G<0 100 300 400> 480 20G<0 100 300 400>
VStem: 0 100<0 50 175 500> 300 100<0 250 375 500>
AnchorPoint: "bottom" 200 0 basechar 0
LayerCount: 2
Fore
SplineSet
100 500 m 1xb8
 100 175 l 1
 300 375 l 1
 300 500 l 1
 400 500 l 1
 400 0 l 1
 300 0 l 1
 300 250 l 1
 100 50 l 1
 100 0 l 1
 0 0 l 1
 0 500 l 1
 100 500 l 1xb8
EndSplineSet
Substitution2: "SmallCaps" uni0418.smallcaps
EndChar

StartChar: uni041A
Encoding: 1050 1050 537
Width: 400
Flags: HW
HStem: 0 21G<0 100 200 300> 0 21G<0 100 200 300> 200 100<100 164.677> 480 20G<0 100 200 300>
VStem: 0 100<0 200 300 500> 200 100<0 147.679 352.321 500>
AnchorPoint: "bottom" 100 0 basechar 0
LayerCount: 2
Fore
SplineSet
0 500 m 1xbc
 100 500 l 1
 100 300 l 1
 150 300 l 1
 200 350 200 425 200 500 c 1
 300 500 l 1
 300 376.48046875 283.057617188 322.4921875 235.15234375 250 c 1
 283.057617188 177.5078125 300 123.51953125 300 0 c 1
 200 0 l 1
 200 75 200 150 150 200 c 1
 100 200 l 1
 100 0 l 1
 0 0 l 1
 0 500 l 1xbc
EndSplineSet
Substitution2: "SmallCaps" uni041A.smallcaps
EndChar

StartChar: uni041B
Encoding: 1051 1051 538
Width: 400
Flags: HW
HStem: 0 21G<0 100 200 300> 0 21G<0 100 200 300> 400 100<150 200>
VStem: 0 100<0 289.034> 200 100<0 400>
AnchorPoint: "bottom" 100 0 basechar 0
LayerCount: 2
Fore
SplineSet
200 0 m 1xb8
 200 400 l 1
 150 400 l 1
 150 400 100 275 100 150 c 2
 100 0 l 1
 0 0 l 1
 0 150 l 2
 0 300 75 500 75 500 c 1
 300 500 l 1
 300 0 l 1
 200 0 l 1xb8
EndSplineSet
Substitution2: "SmallCaps" uni041B.smallcaps
EndChar

StartChar: uni041C
Encoding: 1052 1052 539
Width: 600
Flags: HW
HStem: 0 21G<0 100 400 500> 0 21G<0 100 400 500> 480 20G<0 95 405 500>
VStem: 0 100<0 350> 400 100<0 350>
AnchorPoint: "bottom" 200 0 basechar 0
LayerCount: 2
Fore
SplineSet
0 0 m 1xb8
 0 500 l 1
 75 500 l 1
 250 325 l 1
 425 500 l 1
 500 500 l 1
 500 0 l 1
 400 0 l 1
 400 350 l 1
 275 225 l 1
 225 225 l 1
 100 350 l 1
 100 0 l 1
 0 0 l 1xb8
EndSplineSet
Substitution2: "SmallCaps" uni041C.smallcaps
EndChar

StartChar: uni041D
Encoding: 1053 1053 540
Width: 400
Flags: HW
HStem: 0 21G<0 100 200 300> 0 21G<0 100 200 300> 200 100<100 200> 480 20G<0 100 200 300>
VStem: 0 100<0 200 300 500> 200 100<0 200 300 500>
AnchorPoint: "bottom" 100 0 basechar 0
LayerCount: 2
Fore
SplineSet
0 500 m 1xbc
 100 500 l 1
 100 300 l 1
 200 300 l 1
 200 500 l 1
 300 500 l 1
 300 0 l 1
 200 0 l 1
 200 200 l 1
 100 200 l 1
 100 0 l 1
 0 0 l 1
 0 500 l 1xbc
EndSplineSet
Substitution2: "SmallCaps" uni041D.smallcaps
EndChar

StartChar: uni041E
Encoding: 1054 1054 541
Width: 400
Flags: HW
HStem: 0 100<114.517 185.483> 400 100<114.517 185.483>
VStem: 0 100<115.13 384.87> 200 100<115.13 384.87>
AnchorPoint: "bottom" 100 0 basechar 0
LayerCount: 2
Fore
SplineSet
0 350 m 2
 0 425 75 500 150 500 c 0
 225 500 300 425 300 350 c 2
 300 150 l 2
 300 75 225 0 150 0 c 0
 75 0 0 75 0 150 c 2
 0 350 l 2
100 350 m 2
 100 150 l 2
 100 125 125 100 150 100 c 0
 175 100 200 125 200 150 c 2
 200 350 l 2
 200 375 175 400 150 400 c 0
 125 400 100 375 100 350 c 2
EndSplineSet
Substitution2: "SmallCaps" uni041E.smallcaps
EndChar

StartChar: uni041F
Encoding: 1055 1055 542
Width: 400
Flags: HW
HStem: 0 21G<0 100 200 300> 0 21G<0 100 200 300> 400 100<100 200>
VStem: 0 100<0 400> 200 100<0 400>
AnchorPoint: "bottom" 100 0 basechar 0
LayerCount: 2
Fore
SplineSet
0 0 m 1xb8
 0 500 l 1
 300 500 l 1
 300 0 l 1
 200 0 l 1
 200 400 l 1
 100 400 l 1
 100 0 l 1
 0 0 l 1xb8
EndSplineSet
Substitution2: "SmallCaps" uni041F.smallcaps
EndChar

StartChar: uni0420
Encoding: 1056 1056 543
Width: 400
Flags: HW
HStem: 0 21G<0 100> 0 21G<0 100> 200 100<100 184.87> 400 100<100 184.87>
VStem: 0 100<0 200 300 400> 200 100<314.517 385.483>
AnchorPoint: "bottom" 100 0 basechar 0
LayerCount: 2
Fore
SplineSet
0 0 m 1xbc
 0 500 l 1
 100 500 l 1
 150 500 l 2
 225 500 300 425 300 350 c 0
 300 275 225 200 150 200 c 2
 100 200 l 1
 100 0 l 1
 0 0 l 1xbc
100 400 m 1
 100 300 l 1
 150 300 l 2
 175 300 200 325 200 350 c 0
 200 375 175 400 150 400 c 2
 100 400 l 1
EndSplineSet
Substitution2: "SmallCaps" uni0420.smallcaps
EndChar

StartChar: uni0421
Encoding: 1057 1057 544
Width: 400
Flags: HW
HStem: 0 100<114.517 198.655> 400 100<114.517 198.655>
VStem: -0 100<115.13 384.87>
AnchorPoint: "bottom" 100 0 basechar 0
LayerCount: 2
Fore
SplineSet
150 500 m 0
 225 500 300 450 300 375 c 1
 200 375 l 1
 200 400 175 400 150 400 c 0
 125 400 100 375 100 350 c 2
 100 150 l 2
 100 125 125 100 150 100 c 0
 175 100 200 100 200 125 c 1
 300 125 l 1
 300 50 225 0 150 0 c 0
 75 0 -0 75 -0 150 c 2
 -0 350 l 2
 -0 425 75 500 150 500 c 0
EndSplineSet
Substitution2: "SmallCaps" uni0421.smallcaps
EndChar

StartChar: uni0422
Encoding: 1058 1058 545
Width: 400
Flags: HW
HStem: 0 21G<100 200> 0 21G<100 200> 400 100<0 100 200 300>
VStem: 100 100<0 400>
AnchorPoint: "bottom" 100 0 basechar 0
LayerCount: 2
Fore
SplineSet
0 500 m 1xb0
 300 500 l 1
 300 400 l 1
 200 400 l 1
 200 0 l 1
 100 0 l 1
 100 400 l 1
 0 400 l 1
 0 500 l 1xb0
EndSplineSet
Substitution2: "SmallCaps" uni0422.smallcaps
EndChar

StartChar: uni0423
Encoding: 1059 1059 546
Width: 400
Flags: HW
HStem: 0 100<25 184.87> 200 100<117.85 200> 480 20G<0 100 200 300>
VStem: 0 100<318.568 500> 200 100<117.85 200 300 500>
AnchorPoint: "bottom" 100 0 basechar 0
LayerCount: 2
Fore
SplineSet
200 300 m 1
 200 500 l 1
 300 500 l 1
 300 200 l 2
 300 100 225 0 150 0 c 2
 25 0 l 1
 25 100 l 1
 150 100 l 2
 175 100 200 125 200 150 c 2
 200 200 l 1
 100 200 0 275 0 350 c 2
 0 500 l 1
 100 500 l 1
 100 350 l 2
 100 325 125 300 175 300 c 2
 200 300 l 1
EndSplineSet
Substitution2: "SmallCaps" uni0423.smallcaps
EndChar

StartChar: uni0424
Encoding: 1060 1060 547
Width: 600
Flags: HW
HStem: 0 21G<200 300> 0 21G<200 300> 100 100<117.85 200 300 382.15> 400 100<117.85 200 300 382.15>
VStem: 0 100<215.13 384.87> 200 100<0 100 200 400 500 600> 400 100<215.13 384.87>
CounterMasks: 1 0e
AnchorPoint: "bottom" 200 0 basechar 0
LayerCount: 2
Fore
SplineSet
200 600 m 1xbe
 300 600 l 1
 300 500 l 1
 400 500 500 425 500 350 c 2
 500 250 l 2
 500 175 400 100 300 100 c 1
 300 0 l 1
 200 0 l 1
 200 100 l 1
 100 100 0 175 0 250 c 2
 0 350 l 2
 0 425 100 500 200 500 c 1
 200 600 l 1xbe
150 400 m 2
 125 400 100 375 100 350 c 2
 100 250 l 2
 100 225 125 200 150 200 c 2
 175 200 l 1
 200 200 l 1
 200 250 l 1
 200 350 l 1
 200 400 l 1
 175 400 l 1
 150 400 l 2
300 400 m 1
 300 350 l 1
 300 250 l 1
 300 200 l 1
 325 200 l 1
 350 200 l 2
 375 200 400 225 400 250 c 2
 400 350 l 2
 400 375 375 400 350 400 c 2
 325 400 l 1
 300 400 l 1
EndSplineSet
Substitution2: "SmallCaps" uni0424.smallcaps
EndChar

StartChar: uni0425
Encoding: 1061 1061 548
Width: 400
Flags: HW
HStem: 0 21G<0 100 200 300> 0 21G<0 100 200 300> 480 20G<0 100 200 300>
VStem: 0 100<0 147.679 352.321 500> 200 100<0 147.679 352.321 500>
AnchorPoint: "bottom" 100 0 basechar 0
LayerCount: 2
Fore
SplineSet
0 500 m 1xb8
 100 500 l 1
 100 425 100 350 150 300 c 1
 200 350 200 425 200 500 c 1
 300 500 l 1
 300 376.48046875 283.057617188 322.4921875 235.15234375 250 c 1
 283.057617188 177.5078125 300 123.51953125 300 0 c 1
 200 0 l 1
 200 75 200 150 150 200 c 1
 100 150 100 75 100 0 c 1
 0 0 l 1
 0 123.51953125 16.9423828125 177.5078125 64.84765625 250 c 1
 16.9423828125 322.4921875 0 376.48046875 0 500 c 1xb8
EndSplineSet
Substitution2: "SmallCaps" uni0425.smallcaps
EndChar

StartChar: uni0426
Encoding: 1062 1062 549
Width: 400
Flags: HW
HStem: 0 100<100 200> 480 20G<0 100 200 300>
VStem: 0 100<100 500> 200 100<100 500> 300 75<-100 0>
AnchorPoint: "bottom" 100 0 basechar 0
LayerCount: 2
Fore
SplineSet
0 500 m 1xe8
 100 500 l 1
 100 100 l 1
 200 100 l 1
 200 500 l 1
 300 500 l 1
 300 100 l 1xf0
 375 100 l 1
 375 -100 l 1
 300 -100 l 1
 300 0 l 1
 0 0 l 1
 0 500 l 1xe8
EndSplineSet
Substitution2: "SmallCaps" uni0426.smallcaps
EndChar

StartChar: uni0427
Encoding: 1063 1063 550
Width: 400
Flags: HW
HStem: 0 21G<200 300> 0 21G<200 300> 200 100<120.671 200> 480 20G<0 100 200 300>
VStem: 0 100<320.671 500> 200 100<0 200 300 500>
AnchorPoint: "bottom" 100 0 basechar 0
LayerCount: 2
Fore
SplineSet
200 300 m 1xbc
 200 500 l 1
 300 500 l 1
 300 0 l 1
 200 0 l 1
 200 200 l 1
 75 200 0 275 0 400 c 2
 0 500 l 1
 100 500 l 1
 100 375 l 2
 100 318.23828125 125 300 175 300 c 2
 200 300 l 1xbc
EndSplineSet
Substitution2: "SmallCaps" uni0427.smallcaps
EndChar

StartChar: uni0428
Encoding: 1064 1064 551
Width: 600
Flags: HW
HStem: 0 100<100 200 300 400> 480 20G<0 100 200 300 400 500>
VStem: 0 100<100 500> 200 100<100 500> 400 100<100 500>
CounterMasks: 1 38
AnchorPoint: "bottom" 200 0 basechar 0
LayerCount: 2
Fore
SplineSet
500 500 m 1
 500 0 l 1
 0 0 l 1
 0 500 l 1
 100 500 l 1
 100 100 l 1
 200 100 l 1
 200 500 l 1
 300 500 l 1
 300 100 l 1
 400 100 l 1
 400 500 l 1
 500 500 l 1
EndSplineSet
Substitution2: "SmallCaps" uni0428.smallcaps
EndChar

StartChar: uni0429
Encoding: 1065 1065 552
Width: 600
Flags: HW
HStem: 0 100<100 200 300 400> 480 20G<0 100 200 300 400 500>
VStem: 0 100<100 500> 200 100<100 500> 400 100<100 500> 500 75<-100 0>
AnchorPoint: "bottom" 100 0 basechar 0
LayerCount: 2
Fore
SplineSet
0 500 m 1xf4
 100 500 l 1
 100 100 l 1
 200 100 l 1
 200 500 l 1
 300 500 l 1
 300 100 l 1
 400 100 l 1
 400 500 l 1
 500 500 l 1
 500 100 l 1xf8
 575 100 l 1
 575 -100 l 1
 500 -100 l 1
 500 0 l 1
 0 0 l 1
 0 500 l 1xf4
EndSplineSet
Substitution2: "SmallCaps" uni0429.smallcaps
EndChar

StartChar: uni042A
Encoding: 1066 1066 553
Width: 500
Flags: HW
HStem: 0 100<200 284.87> 200 100<200 283.984> 400 100<0 100>
VStem: 100 100<100 200 300 400> 300 100<114.517 185.483>
CounterMasks: 1 e0
AnchorPoint: "bottom" 100 0 basechar 0
LayerCount: 2
Fore
SplineSet
0 500 m 1
 200 500 l 1
 200 300 l 1
 225 300 l 2
 300 300 400 225 400 150 c 0
 400 75 325 0 250 0 c 2
 200 0 l 1
 100 0 l 1
 100 100 l 1
 100 200 l 1
 100 300 l 1
 100 400 l 1
 0 400 l 1
 0 500 l 1
200 200 m 1
 200 100 l 1
 250 100 l 2
 275 100 300 125 300 150 c 0
 300 175 275 200 250 200 c 2
 200 200 l 1
EndSplineSet
Substitution2: "SmallCaps" uni042A.smallcaps
EndChar

StartChar: uni042B
Encoding: 1067 1067 554
Width: 600
Flags: HW
HStem: 0 100<100 184.87> 200 100<100 183.984> 480 20G<0 100 400 500>
VStem: 0 100<100 200 300 500> 200 100<114.517 185.483> 400 100<0 500>
CounterMasks: 1 1c
AnchorPoint: "bottom" 200 0 basechar 0
LayerCount: 2
Fore
SplineSet
0 500 m 1
 100 500 l 1
 100 300 l 1
 125 300 l 2
 200 300 300 225 300 150 c 0
 300 75 225 0 150 0 c 2
 0 0 l 1
 0 500 l 1
100 200 m 1
 100 100 l 1
 150 100 l 2
 175 100 200 125 200 150 c 0
 200 175 175 200 150 200 c 2
 100 200 l 1
400 0 m 1
 400 500 l 1
 500 500 l 1
 500 0 l 1
 400 0 l 1
EndSplineSet
Substitution2: "SmallCaps" uni042B.smallcaps
EndChar

StartChar: uni042C
Encoding: 1068 1068 555
Width: 400
Flags: HW
HStem: 0 100<100 184.87> 200 100<100 183.984> 480 20G<0 100>
VStem: 0 100<100 200 300 500> 200 100<114.517 185.483>
AnchorPoint: "bottom" 100 0 basechar 0
LayerCount: 2
Fore
SplineSet
0 500 m 1
 100 500 l 1
 100 300 l 1
 125 300 l 2
 200 300 300 225 300 150 c 0
 300 75 225 0 150 0 c 2
 100 0 l 1
 0 0 l 1
 0 100 l 1
 0 200 l 1
 0 300 l 1
 0 500 l 1
100 200 m 1
 100 100 l 1
 150 100 l 2
 175 100 200 125 200 150 c 0
 200 175 175 200 150 200 c 2
 100 200 l 1
EndSplineSet
Substitution2: "SmallCaps" uni042C.smallcaps
EndChar

StartChar: uni042D
Encoding: 1069 1069 556
Width: 400
Flags: HW
HStem: 0 100<101.345 185.483> 200 100<100 200> 400 100<101.345 185.483>
VStem: 200 100<115.13 200 300 384.87>
CounterMasks: 1 e0
AnchorPoint: "bottom" 100 0 basechar 0
LayerCount: 2
Fore
SplineSet
150 500 m 0
 225 500 300 425 300 350 c 2
 300 150 l 2
 300 75 225 0 150 0 c 0
 75 0 0 50 0 125 c 1
 100 125 l 1
 100 100 125 100 150 100 c 0
 175 100 200 125 200 150 c 2
 200 200 l 1
 100 200 l 1
 100 300 l 1
 200 300 l 1
 200 350 l 2
 200 375 175 400 150 400 c 0
 125 400 100 400 100 375 c 1
 0 375 l 1
 0 450 75 500 150 500 c 0
EndSplineSet
Substitution2: "SmallCaps" uni042D.smallcaps
EndChar

StartChar: uni042E
Encoding: 1070 1070 557
Width: 600
Flags: HW
HStem: 0 100<314.517 385.483> 200 100<100 200> 400 100<314.517 385.483>
VStem: 0 100<0 200 300 500> 200 100<115.13 200 300 384.87> 400 100<115.13 384.87>
CounterMasks: 1 fc
AnchorPoint: "bottom" 200 0 basechar 0
LayerCount: 2
Fore
SplineSet
0 500 m 1
 100 500 l 1
 100 300 l 1
 200 300 l 1
 200 350 l 2
 200 425 275 500 350 500 c 0
 425 500 500 425 500 350 c 2
 500 150 l 2
 500 75 425 0 350 0 c 0
 275 0 200 75 200 150 c 2
 200 200 l 1
 100 200 l 1
 100 0 l 1
 0 0 l 1
 0 500 l 1
350 400 m 0
 325 400 300 375 300 350 c 2
 300 150 l 2
 300 125 325 100 350 100 c 0
 375 100 400 125 400 150 c 2
 400 350 l 2
 400 375 375 400 350 400 c 0
EndSplineSet
Substitution2: "SmallCaps" uni042E.smallcaps
EndChar

StartChar: uni042F
Encoding: 1071 1071 558
Width: 400
Flags: HW
HStem: 0 21G<0 100 200 300> 0 21G<0 100 200 300> 200 100<152.624 200> 400 100<140.13 200>
VStem: 0 100<0 148.998> 25 100<314.029 385.483> 200 100<0 200 300 400>
AnchorPoint: "bottom" 100 0 basechar 0
LayerCount: 2
Fore
SplineSet
300 500 m 1xb6
 300 0 l 1
 200 0 l 1
 200 200 l 1
 175 200 l 2
 167.396484375 200 159.796875 200.807617188 152.271484375 202.271484375 c 1
 150 200 l 2
 100 150 100 75 100 0 c 1
 0 0 l 1xba
 0 124.907226562 17.3642578125 178.73828125 66.515625 252.478515625 c 1
 41.3955078125 279.877929688 25 314.9375 25 350 c 0
 25 425 100 500 175 500 c 2
 200 500 l 1
 300 500 l 1xb6
200 400 m 1
 175 400 l 2
 150 400 125 375 125 350 c 0x36
 125 325 150 300 175 300 c 2
 200 300 l 1
 200 400 l 1
EndSplineSet
Substitution2: "SmallCaps" uni042F.smallcaps
EndChar

StartChar: uni0430
Encoding: 1072 1072 559
Width: 400
Flags: HW
HStem: 0 100<120.671 200> 300 100<120.671 200>
VStem: -0 100<120.671 279.329> 200 100<100 300>
AnchorPoint: "bottom" 100 0 basechar 0
AnchorPoint: "top" 100 400 basechar 0
LayerCount: 2
Fore
SplineSet
200 400 m 2
 300 400 l 1
 300 0 l 1
 200 0 l 2
 75 0 -0 75 -0 200 c 0
 0 325 75 400 200 400 c 2
200 300 m 1
 175 300 l 2
 125 300 100 281.762695312 100 225 c 2
 100 175 l 2
 100 125 125 100 175 100 c 2
 200 100 l 1
 200 300 l 1
EndSplineSet
EndChar

StartChar: uni0431
Encoding: 1073 1073 560
Width: 400
Flags: HW
HStem: 0 100<114.252 185.748> 200 100<114.177 185.748> 400 100<114.599 219.434>
VStem: 0 100<113.905 186.095 283.453 385.452> 200 100<114.517 185.483>
CounterMasks: 1 e0
AnchorPoint: "bottom" 100 0 basechar 0
AnchorPoint: "top" 100 400 basechar 0
LayerCount: 2
Fore
SplineSet
150 500 m 2
 300 500 l 1
 300 400 200 400 150 400 c 0
 125 400 100 375 100 350 c 2
 100 283.453125 l 1
 118.379882812 293.858398438 136.118164062 300 150 300 c 0
 200 300 300 225 300 150 c 0
 300 75 200 0 150 0 c 0
 100 0 -0 75 0 147.7734375 c 1
 -0 147.7734375 -0 275 0 347.7734375 c 0
 0 420.546875 100 500 150 500 c 2
150 200 m 0
 125 200 100 175 100 150 c 0
 100 125 125 100 150 100 c 0
 175 100 200 125 200 150 c 0
 200 175 175 200 150 200 c 0
EndSplineSet
EndChar

StartChar: uni0432
Encoding: 1074 1074 561
Width: 400
Flags: HW
HStem: 0 100<100 181.432> 175 75<100 165.025> 325 75<100 163.291>
VStem: 0 100<100 175 250 325> 175 100<260.499 314.112> 200 100<117.173 171.851>
AnchorPoint: "bottom" 100 0 basechar 0
AnchorPoint: "top" 100 400 basechar 0
LayerCount: 2
Fore
SplineSet
0 400 m 1xf4
 100 400 l 1
 125 400 l 2
 200 400 275 343.75 275 287.5 c 0xf8
 275 267.51171875 265.497070312 247.538085938 249.921875 230.07421875 c 1
 281.403320312 210.919921875 300 180.471679688 300 150 c 0
 300 50 225 0 150 0 c 2
 100 0 l 1
 0 0 l 1
 0 100 l 1
 0 175 l 1
 0 250 l 1
 0 325 l 1
 0 400 l 1xf4
100 325 m 1
 100 250 l 1
 125 250 l 2
 150 250 175 268.75 175 287.5 c 0
 175 306.25 150 325 125 325 c 2
 100 325 l 1
100 175 m 1
 100 100 l 1
 150 100 l 2
 175 100 200 129.166992188 200 150 c 0xf4
 200 175 175 175 150 175 c 2
 125 175 l 1
 100 175 l 1
EndSplineSet
EndChar

StartChar: uni0433
Encoding: 1075 1075 562
Width: 400
Flags: HW
HStem: 0 21G<0 100> 0 21G<0 100> 300 100<100 300>
VStem: 0 100<0 300>
AnchorPoint: "bottom" 100 0 basechar 0
AnchorPoint: "top" 100 400 basechar 0
LayerCount: 2
Fore
SplineSet
0 0 m 1xb0
 0 400 l 1
 300 400 l 1
 300 300 l 1
 100 300 l 1
 100 0 l 1
 0 0 l 1xb0
EndSplineSet
EndChar

StartChar: uni0434
Encoding: 1076 1076 563
Width: 400
Flags: HW
HStem: 0 100<100 200> 300 100<150 200>
VStem: 0 100<100 222.106> 0 75<-100 0> 200 100<100 300> 300 75<-100 0>
AnchorPoint: "bottom" 100 0 basechar 0
AnchorPoint: "top" 100 400 basechar 0
LayerCount: 2
Fore
SplineSet
75 400 m 1xd0
 300 400 l 1xd4
 300 100 l 1xc8
 375 100 l 1
 375 -100 l 1
 300 -100 l 1
 300 0 l 1xc4
 200 0 l 1
 100 0 l 1xe8
 75 0 l 1
 75 -100 l 1
 0 -100 l 1
 0 0 l 1xd0
 0 100 l 2xe0
 0 250 75 400 75 400 c 1xd0
150 300 m 1
 150 300 100 225 100 100 c 1
 200 100 l 1
 200 300 l 1xe8
 150 300 l 1
EndSplineSet
EndChar

StartChar: uni043B
Encoding: 1083 1083 564
Width: 400
Flags: HW
HStem: 0 21G<0 100 200 300> 0 21G<0 100 200 300> 300 100<150 200>
VStem: 0 100<0 222.106> 200 100<0 300>
AnchorPoint: "bottom" 100 0 basechar 0
AnchorPoint: "top" 100 400 basechar 0
LayerCount: 2
Fore
SplineSet
200 0 m 1xb8
 200 300 l 1
 150 300 l 1
 150 300 100 225 100 100 c 2
 100 0 l 1
 0 0 l 1
 0 100 l 2
 0 250 75 400 75 400 c 1
 300 400 l 1
 300 0 l 1
 200 0 l 1xb8
EndSplineSet
EndChar

StartChar: uni0435
Encoding: 1077 1077 565
Width: 400
Flags: HW
HStem: 0 100<114.982 204.747> 175 75<100 200> 325 75<114.517 185.493>
VStem: -0 100<116.105 175 250 291.433> 200 100<250 300.166>
AnchorPoint: "bottom" 100 0 basechar 0
AnchorPoint: "top" 100 400 basechar 0
LayerCount: 2
Fore
SplineSet
300 225 m 2
 300 175 l 1
 100 175 l 1
 100 150 l 2
 100 125 125 100 150 100 c 2
 200 100 l 1
 300 100 l 1
 300 50 249.99609375 -0.8427734375 150 0 c 0
 74.556640625 0.6357421875 -0 100 -0 175 c 2
 -0 225 l 2
 -0 300 75 400 150 400 c 0
 225 400 300.318359375 320.036132812 300 225 c 2
150 325 m 0
 125 325 100 300 100 275 c 2
 100 250 l 1
 200 250 l 1
 200 275 l 2
 200 300 175 325 150 325 c 0
EndSplineSet
EndChar

StartChar: uni0436
Encoding: 1078 1078 566
Width: 600
Flags: HW
HStem: 0 21G<0 100 200 300 400 500> 0 21G<0 100 200 300 400 500> 150 100<159.511 200 300 340.489> 380 20G<0 100 200 300 400 500>
VStem: 0 100<0.0182194 88.0303 311.97 400> 200 100<0 150 250 400> 400 100<0.0182194 88.0303 311.97 400>
CounterMasks: 1 0e
AnchorPoint: "bottom" 200 0 basechar 0
AnchorPoint: "top" 200 400 basechar 0
LayerCount: 2
Fore
SplineSet
0 400 m 1xbe
 100 400 l 1
 100 350 l 2
 100 325 125 300 175 250 c 1
 200 250 l 1
 200 400 l 1
 300 400 l 1
 300 250 l 1
 325 250 l 1
 375 300 400 325 400 350 c 2
 400 400 l 1
 500 400 l 1
 500 350 l 2
 500 308.333007812 400 200 400 200 c 1
 400 200 500 91.6669921875 500 50 c 2
 500 0 l 1
 400 0 l 1
 400 0 400.534179688 25.005859375 400 50 c 0
 399.375976562 79.189453125 375 100 325 150 c 1
 300 150 l 1
 300 0 l 1
 200 0 l 1
 200 150 l 1
 175 150 l 1
 125 100 100.624023438 79.189453125 100 50 c 0
 99.4658203125 25.005859375 100 0 100 0 c 1
 0 0 l 1
 0 50 l 2
 0 91.6669921875 100 200 100 200 c 1
 100 200 0 308.333007812 0 350 c 2
 0 400 l 1xbe
EndSplineSet
EndChar

StartChar: uni0437
Encoding: 1079 1079 567
Width: 400
Flags: HW
HStem: 0 100<0 184.87> 175 75<0 198.877> 325 75<0 183.984>
VStem: 200 100<114.252 172.347 252.653 310.725>
AnchorPoint: "bottom" 100 0 basechar 0
AnchorPoint: "top" 100 400 basechar 0
LayerCount: 2
Fore
SplineSet
125 400 m 2
 200 400 300 325 300 275 c 0
 300 248.116210938 293.551757812 227.686523438 283.005859375 212.5 c 1
 293.551757812 197.313476562 300 176.883789062 300 150 c 0
 300 100 225 0 150 0 c 2
 0 0 l 1
 0 100 l 1
 150 100 l 2
 175 100 200 125 200 150 c 0
 200 175 175 175 150 175 c 2
 0 175 l 1
 0 250 l 1
 150 250 l 2
 175 250 200 250 200 275 c 0
 200 300 175 325 150 325 c 2
 0 325 l 1
 0 400 l 1
 125 400 l 2
EndSplineSet
EndChar

StartChar: uni0438
Encoding: 1080 1080 568
Width: 500
Flags: HW
HStem: 0 21G<0 100 300 400> 0 21G<0 100 300 400> 380 20G<0 100 300 400>
VStem: -0 100<0 50 175 400> 300 100<0 250 375 400>
AnchorPoint: "bottom" 200 0 basechar 0
AnchorPoint: "top" 200 400 basechar 0
LayerCount: 2
Fore
SplineSet
100 400 m 1xb8
 100 175 l 1
 300 375 l 1
 300 400 l 1
 400 400 l 1
 400 0 l 1
 300 0 l 1
 300 250 l 1
 100 50 l 1
 100 0 l 1
 -0 0 l 1
 -0 400 l 1
 100 400 l 1xb8
EndSplineSet
EndChar

StartChar: uni043A
Encoding: 1082 1082 569
Width: 400
Flags: HW
HStem: 0 21G<0 100 200 300> 0 21G<0 100 200 300> 380 20G<0 100 200 300>
VStem: 0 100<0 150 250 400> 200 100<0.0182194 88.0303 311.97 400>
AnchorPoint: "bottom" 100 0 basechar 0
AnchorPoint: "top" 100 400 basechar 0
LayerCount: 2
Fore
SplineSet
0 0 m 1xb8
 0 400 l 1
 100 400 l 1
 100 250 l 1
 125 250 l 1
 175 300 200 325 200 350 c 2
 200 400 l 1
 300 400 l 1
 300 350 l 2
 300 308.333007812 200 200 200 200 c 1
 200 200 300 91.6669921875 300 50 c 2
 300 0 l 1
 200 0 l 1
 200 0 200.534179688 25.005859375 200 50 c 0
 199.375976562 79.189453125 175 100 125 150 c 1
 100 150 l 1
 100 0 l 1
 0 0 l 1xb8
EndSplineSet
EndChar

StartChar: uni043C
Encoding: 1084 1084 570
Width: 600
Flags: HW
HStem: 0 21G<0 100 400 500> 0 21G<0 100 400 500> 380 20G<0 95 405 500>
VStem: 0 100<0 250> 400 100<0 250>
AnchorPoint: "bottom" 200 0 basechar 0
AnchorPoint: "top" 200 400 basechar 0
LayerCount: 2
Fore
SplineSet
0 0 m 1xb8
 0 400 l 1
 75 400 l 1
 250 225 l 1
 425 400 l 1
 500 400 l 1
 500 0 l 1
 400 0 l 1
 400 250 l 1
 275 125 l 1
 225 125 l 1
 100 250 l 1
 100 0 l 1
 0 0 l 1xb8
EndSplineSet
EndChar

StartChar: uni043D
Encoding: 1085 1085 571
Width: 400
Flags: HW
HStem: 0 21G<0 100 200 300> 0 21G<0 100 200 300> 200 100<100 200> 380 20G<0 100 200 300>
VStem: 0 100<0 200 300 400> 200 100<0 200 300 400>
AnchorPoint: "bottom" 100 0 basechar 0
AnchorPoint: "top" 100 400 basechar 0
LayerCount: 2
Fore
SplineSet
0 400 m 1xbc
 100 400 l 1
 100 300 l 1
 200 300 l 1
 200 400 l 1
 300 400 l 1
 300 0 l 1
 200 0 l 1
 200 200 l 1
 100 200 l 1
 100 0 l 1
 0 0 l 1
 0 400 l 1xbc
EndSplineSet
EndChar

StartChar: uni043E
Encoding: 1086 1086 572
Width: 400
Flags: HW
HStem: 0 100<114.517 185.483> 300 100<114.517 185.483>
VStem: 0 100<116.016 283.984> 200 100<114.199 283.984>
AnchorPoint: "bottom" 100 0 basechar 0
AnchorPoint: "top" 100 400 basechar 0
LayerCount: 2
Fore
SplineSet
150 400 m 0
 225 400 300 300 300 225 c 2
 300 175 l 2
 300 104.453125 225 0 150 0 c 0
 75 0 0 100 0 175 c 2
 0 225 l 2
 0 300 75 400 150 400 c 0
150 300 m 0
 125 300 100 275 100 250 c 2
 100 150 l 2
 100 125 125 100 150 100 c 0
 175 100 200 125 200 150 c 2
 200 250 l 2
 200 275 175 300 150 300 c 0
EndSplineSet
EndChar

StartChar: uni043F
Encoding: 1087 1087 573
Width: 400
Flags: HW
HStem: 0 21G<0 100 200 300> 0 21G<0 100 200 300> 300 100<100 200>
VStem: 0 100<0 300> 200 100<0 300>
AnchorPoint: "bottom" 100 0 basechar 0
AnchorPoint: "top" 100 400 basechar 0
LayerCount: 2
Fore
SplineSet
0 0 m 1xb8
 0 400 l 1
 300 400 l 1
 300 0 l 1
 200 0 l 1
 200 300 l 1
 100 300 l 1
 100 0 l 1
 0 0 l 1xb8
EndSplineSet
EndChar

StartChar: uni0440
Encoding: 1088 1088 574
Width: 400
Flags: HW
HStem: 0 100<100 179.329> 300 100<100 179.329>
VStem: 0 100<-100 0 100 300> 200 100<120.671 279.329>
AnchorPoint: "bottom" 100 0 basechar 0
AnchorPoint: "top" 100 400 basechar 0
LayerCount: 2
Fore
SplineSet
100 400 m 2
 225 400 300 325 300 200 c 0
 300 75 225 0 100 0 c 1
 100 -100 l 1
 0 -100 l 1
 0 0 l 1
 0 400 l 1
 100 400 l 2
125 300 m 2
 100 300 l 1
 100 100 l 1
 125 100 l 2
 175 100 200 125 200 175 c 2
 200 225 l 2
 200 281.762695312 175 300 125 300 c 2
EndSplineSet
EndChar

StartChar: uni0441
Encoding: 1089 1089 575
Width: 400
Flags: HW
HStem: 0 100<114.517 198.655> 300 100<114.517 198.655>
VStem: 0 100<116.016 284.443>
AnchorPoint: "bottom" 100 0 basechar 0
AnchorPoint: "top" 100 400 basechar 0
LayerCount: 2
Fore
SplineSet
150 400 m 0
 225 400 300 350 300 275 c 1
 200 275 l 1
 200 300 175 300 150 300 c 0
 125 300 100 275 100 250 c 2
 100 150 l 2
 100 125 125 100 150 100 c 0
 175 100 200 100 200 125 c 1
 300 125 l 1
 300 50 225 0 150 0 c 0
 75 0 0 100 0 175 c 2
 0 225 l 2
 0 301.086914062 75 400 150 400 c 0
EndSplineSet
EndChar

StartChar: uni0442
Encoding: 1090 1090 576
Width: 400
Flags: HW
HStem: 0 21G<100 200> 0 21G<100 200> 300 100<0 100 200 300>
VStem: 100 100<0 300>
AnchorPoint: "bottom" 100 0 basechar 0
AnchorPoint: "top" 100 400 basechar 0
LayerCount: 2
Fore
SplineSet
300 400 m 1xb0
 300 300 l 1
 200 300 l 1
 200 0 l 1
 100 0 l 1
 100 300 l 1
 0 300 l 1
 0 400 l 1
 300 400 l 1xb0
EndSplineSet
EndChar

StartChar: uni0443
Encoding: 1091 1091 577
Width: 400
Flags: HW
HStem: -100 100<25 184.87> 100 100<117.85 200> 380 20G<0 100 200 300>
VStem: -0 100<218.568 400> 200 100<17.8497 100 200 400>
AnchorPoint: "bottom" 100 0 basechar 0
AnchorPoint: "top" 100 400 basechar 0
LayerCount: 2
Fore
SplineSet
200 200 m 1
 200 400 l 1
 300 400 l 1
 300 100 l 2
 300 0 225 -100 150 -100 c 2
 25 -100 l 1
 25 0 l 1
 150 0 l 2
 175 0 200 25 200 50 c 2
 200 100 l 1
 100 100 -0 175 -0 250 c 2
 -0 400 l 1
 100 400 l 1
 100 250 l 2
 100 225 125 200 175 200 c 2
 200 200 l 1
EndSplineSet
EndChar

StartChar: uni0444
Encoding: 1092 1092 578
Width: 400
Flags: HW
HStem: 480 20G<100 200>
VStem: 0 75<129.568 270.432> 100 100<-100 12.7378 387.262 500> 125 50<105.85 294.15> 225 75<129.568 270.432>
AnchorPoint: "bottom" 100 0 basechar 0
AnchorPoint: "top" 100 400 basechar 0
LayerCount: 2
Fore
SplineSet
100 500 m 1xe8
 200 500 l 1
 200 392.595703125 l 1
 255.073242188 376.0859375 300 333.041015625 300 275 c 2
 300 125 l 2
 300 70.404296875 255.073242188 25.47265625 200 7.93359375 c 1
 200 -100 l 1
 100 -100 l 1
 100 7.404296875 l 1
 44.9267578125 23.9140625 0 66.958984375 0 125 c 2
 0 275 l 2
 0 333.041015625 44.9267578125 376.0859375 100 392.595703125 c 1
 100 500 l 1xe8
125 294.150390625 m 1xd8
 101.086914062 284.125 75 261.123046875 75 225 c 2
 75 175 l 2
 75 138.876953125 101.086914062 115.875 125 105.849609375 c 1
 125 294.150390625 l 1xd8
175 294.150390625 m 1
 175 105.849609375 l 1
 198.913085938 115.875 225 138.876953125 225 175 c 2
 225 225 l 2
 225 261.123046875 198.913085938 284.125 175 294.150390625 c 1
EndSplineSet
EndChar

StartChar: uni0445
Encoding: 1093 1093 579
Width: 400
Flags: HW
HStem: 0 21G<0 100 200 300> 0 21G<0 100 200 300> 380 20G<0 100 200 300>
VStem: 0 100<0 92.9977 306.408 400> 200 100<0.0182673 93.5093 306.408 400>
AnchorPoint: "bottom" 100 0 basechar 0
AnchorPoint: "top" 100 400 basechar 0
LayerCount: 2
Fore
SplineSet
300 50 m 2xb8
 300 0 l 1
 200 0 l 1
 200 0 201.903320312 25.072265625 200 50 c 0
 197.793945312 78.8857421875 200 100 150 150 c 1
 100.379882812 106.327148438 100 75 100 50 c 0
 100 25 100 0 100 0 c 1
 0 0 l 1
 0 50 l 2
 0 91.6669921875 100 200 100 200 c 1
 100 200 0 308.333007812 0 350 c 2
 0 400 l 1
 100 400 l 1
 100 400 100 375 100 350 c 0
 100 325 100 300 150 250 c 1
 200 300 200 325 200 350 c 0
 200 375 200 400 200 400 c 1
 300 400 l 1
 300 350 l 2
 300 308.333007812 200 200 200 200 c 1
 200 200 300 91.6669921875 300 50 c 2xb8
EndSplineSet
EndChar

StartChar: uni0446
Encoding: 1094 1094 580
Width: 400
Flags: HW
HStem: 0 100<100 200> 380 20G<0 100 200 300>
VStem: 0 100<100 400> 200 100<100 400> 300 75<-100 0>
AnchorPoint: "bottom" 100 0 basechar 0
AnchorPoint: "top" 100 400 basechar 0
LayerCount: 2
Fore
SplineSet
100 400 m 1xe8
 100 100 l 1
 200 100 l 1
 200 400 l 1
 300 400 l 1
 300 100 l 1xf0
 375 100 l 1
 375 -100 l 1
 300 -100 l 1
 300 0 l 1
 0 0 l 1
 0 400 l 1
 100 400 l 1xe8
EndSplineSet
EndChar

